<svg width="420" height="295" viewBox="0 0 420 295" fill="none" xmlns="http://www.w3.org/2000/svg">
    <path d="M384.185 103.217C383.744 103.593 383.303 103.953 382.851 104.307H271.495C270.665 103.953 269.84 103.589 269.017 103.217C257.261 97.9069 246.319 90.8359 236.54 82.2299C230.047 76.52 224.074 70.6248 219.743 65.1002C213.701 57.3907 208.137 48.9893 205.549 39.4165C202.967 29.8437 203.738 18.8707 209.507 10.9324C211.294 8.49047 213.49 6.40301 215.99 4.77028C216.405 4.49786 216.824 4.23634 217.255 3.99117C224.173 -0.0406352 232.903 -1.02135 240.693 1.06538C251.847 4.05654 261.117 12.4089 267.731 22.2051C274.345 31.9958 278.639 43.2413 282.87 54.3614C287.164 34.513 300.166 16.7349 317.73 7.69606C335.289 -1.3428 357.104 -1.23384 374.29 8.5569C379.697 11.6562 384.582 15.6495 388.752 20.3799C389.166 20.843 389.571 21.317 389.969 21.7965C398.352 31.8705 403.596 44.7723 404.027 58.0772C404.578 75.2178 396.925 92.4347 384.185 103.217Z" fill="#C6DACB" />
    <path d="M275.946 104.307H274.371C274.351 103.942 274.324 103.582 274.293 103.217C273.742 96.0903 272.59 89.0275 270.849 82.11C266.855 66.3173 260.033 51.4458 250.739 38.2723C241.472 25.0567 229.789 13.8636 216.357 5.33143C216.259 5.273 216.175 5.19209 216.111 5.09485C216.048 4.99761 216.006 4.88661 215.99 4.77025C215.964 4.6181 215.981 4.46151 216.037 4.31871C216.094 4.17592 216.189 4.05281 216.31 3.96373C216.432 3.87465 216.576 3.82328 216.724 3.81559C216.873 3.8079 217.02 3.84421 217.15 3.9203C217.186 3.94198 217.221 3.96562 217.255 3.99113C224.865 8.80561 231.929 14.4931 238.315 20.9465C249.737 32.5113 258.947 46.2154 265.458 61.3353C271.203 74.5775 274.722 88.7426 275.862 103.217C275.894 103.582 275.92 103.947 275.946 104.307Z" fill="white" />
    <path d="M389.969 21.7964C389.958 21.8025 389.945 21.8062 389.933 21.8073C388.783 22.0252 387.628 22.254 386.484 22.4992C377.09 24.5015 367.895 27.3997 359.015 31.1567C350.158 34.9084 341.638 39.4665 333.556 44.7776C325.463 50.086 317.832 56.1166 310.748 62.8009C303.665 69.4756 297.167 76.7907 291.332 84.6598C286.97 90.5557 283.005 96.7561 279.463 103.217C279.264 103.577 279.07 103.942 278.875 104.307H277.075C277.264 103.942 277.458 103.577 277.658 103.217C281.942 95.3004 286.855 87.7683 292.345 80.6988C298.416 72.8749 305.146 65.6272 312.454 59.0415C319.717 52.4929 327.511 46.6085 335.75 41.4541C344.024 36.2789 352.722 31.874 361.744 28.2908C370.499 24.8168 379.538 22.1691 388.752 20.3798C389.009 20.3308 389.261 20.2817 389.518 20.2327C390.499 20.0474 390.919 21.5839 389.969 21.7964Z" fill="white" />
    <path d="M103.766 107.546C106.566 102.059 107.029 94.9124 103.547 89.8634C101.474 86.858 98.2375 84.8851 94.8417 83.7723C91.4459 82.6595 87.8637 82.3324 84.3122 82.062C80.7966 81.7943 77.2185 81.58 73.7843 82.4053C70.3501 83.2306 67.0237 85.2468 65.3508 88.4673C62.5246 93.9078 65.0991 100.884 63.0233 106.677C61.1184 111.993 55.6969 115.102 50.3673 116.356C45.0378 117.61 39.4751 117.477 34.143 118.719C28.8108 119.961 23.3802 123.04 21.4415 128.344C20.0396 132.179 20.7361 136.596 22.5835 140.222C24.4308 143.848 27.3239 146.783 30.3949 149.365C34.9763 153.216 40.3362 156.514 46.2228 156.848C52.4255 157.2 58.4902 154.135 62.9546 149.652C67.4189 145.169 70.4582 139.375 72.8864 133.44C74.4269 129.676 75.8823 125.624 78.9694 123.081C81.2378 121.213 84.1229 120.395 86.9209 119.621L90.0892 118.744C92.9602 117.965 95.6471 116.584 97.9846 114.686C100.322 112.788 102.261 110.414 103.682 107.71C103.71 107.655 103.738 107.601 103.766 107.546Z" fill="#2F2E41" />
    <path d="M78.7794 288.037H72.3445L69.2826 262.273H78.781L78.7794 288.037Z" fill="#FFB8B8" />
    <path d="M67.7475 286.128H80.1586V294.239H59.933C59.933 293.174 60.1352 292.119 60.5279 291.135C60.9206 290.151 61.4962 289.257 62.2218 288.504C62.9475 287.751 63.8089 287.153 64.757 286.745C65.7051 286.338 66.7212 286.128 67.7475 286.128V286.128Z" fill="#2F2E41" />
    <path d="M132.321 288.037H125.886L122.824 262.273H132.323L132.321 288.037Z" fill="#FFB8B8" />
    <path d="M121.289 286.128H133.7V294.239H113.475C113.475 293.174 113.677 292.119 114.07 291.135C114.462 290.151 115.038 289.257 115.764 288.504C116.489 287.751 117.351 287.153 118.299 286.745C119.247 286.338 120.263 286.128 121.289 286.128V286.128Z" fill="#2F2E41" />
    <path d="M91.1501 267.559C91.0604 267.559 90.9707 267.554 90.8814 267.544L64.6998 264.632C64.352 264.594 64.0162 264.479 63.7147 264.295C63.4132 264.111 63.1529 263.862 62.9511 263.566C62.7493 263.269 62.6107 262.932 62.5444 262.575C62.4782 262.219 62.4858 261.852 62.5669 261.499L85.7486 169.982C85.8572 169.517 86.089 169.092 86.4178 168.756C86.7466 168.419 87.1594 168.185 87.6097 168.08L109.115 161.858C109.546 161.759 109.994 161.782 110.414 161.924C110.834 162.066 111.21 162.322 111.502 162.665C125.329 178.852 135.748 214.736 143.642 259.965C143.701 260.306 143.693 260.657 143.618 260.995C143.543 261.333 143.402 261.651 143.205 261.931C143.007 262.211 142.757 262.446 142.469 262.622C142.181 262.798 141.862 262.912 141.53 262.956L120.078 265.799C119.47 265.881 118.854 265.724 118.351 265.358C117.849 264.992 117.497 264.445 117.364 263.823L106.926 215.524C106.831 215.079 106.59 214.682 106.246 214.4C105.902 214.117 105.475 213.966 105.036 213.971C104.597 213.976 104.173 214.138 103.835 214.429C103.497 214.72 103.266 215.122 103.18 215.569L93.558 265.504C93.449 266.083 93.1491 266.605 92.7098 266.98C92.2704 267.355 91.719 267.56 91.1501 267.559V267.559Z" fill="#2F2E41" />
    <path d="M87.1677 120.112C94.2881 120.112 100.06 114.121 100.06 106.731C100.06 99.34 94.2881 93.3488 87.1677 93.3488C80.0473 93.3488 74.2751 99.34 74.2751 106.731C74.2751 114.121 80.0473 120.112 87.1677 120.112Z" fill="#FFB8B8" />
    <path d="M86.8077 170.24C86.2657 170.239 85.7391 170.053 85.3098 169.709C84.8805 169.366 84.5727 168.885 84.4343 168.341L76.6782 138.097C76.1184 135.924 76.3502 133.613 77.3294 131.606C78.3085 129.599 79.9662 128.037 81.9852 127.22C88.2286 124.69 94.1769 123.752 99.6647 124.429C104.542 125.033 110.559 155.005 110.161 155.644L112.086 161.637C112.195 161.977 112.234 162.337 112.201 162.694C112.167 163.05 112.062 163.395 111.891 163.707C111.721 164.019 111.489 164.29 111.212 164.502C110.934 164.715 110.616 164.865 110.279 164.942L87.3427 170.179C87.167 170.219 86.9876 170.24 86.8077 170.24V170.24Z" fill="#EFBF63" />
    <path d="M93.7588 201.168C93.8693 200.573 93.8527 199.96 93.7101 199.372C93.5676 198.784 93.3027 198.236 92.9339 197.766C92.5652 197.296 92.1016 196.916 91.5759 196.652C91.0502 196.388 90.4751 196.246 89.8911 196.238L85.4225 182.252L80.8553 188.265L85.799 200.625C85.8505 201.644 86.2604 202.608 86.951 203.334C87.6417 204.061 88.565 204.499 89.5462 204.566C90.5273 204.633 91.4981 204.324 92.2745 203.698C93.0509 203.072 93.579 202.172 93.7588 201.168V201.168Z" fill="#FFB8B8" />
    <path d="M151.21 167.556C150.942 167.017 150.564 166.546 150.102 166.175C149.64 165.804 149.105 165.543 148.536 165.41C147.966 165.277 147.375 165.275 146.804 165.405C146.234 165.535 145.698 165.793 145.234 166.161L133.394 158.031L133.383 165.688L144.628 172.234C145.275 173.002 146.171 173.497 147.147 173.626C148.122 173.754 149.109 173.506 149.921 172.93C150.732 172.353 151.311 171.487 151.549 170.497C151.787 169.507 151.666 168.46 151.21 167.556H151.21Z" fill="#FFB8B8" />
    <path d="M84.39 194.707C83.8722 194.707 83.3676 194.538 82.9478 194.223C82.5281 193.908 82.2146 193.464 82.0521 192.954L71.5764 169.953C71.1467 168.605 70.9279 167.194 70.9282 165.774L74.0777 135.878C74.0776 134.204 74.693 132.593 75.7982 131.375C76.9035 130.156 78.4153 129.421 80.025 129.319C81.6347 129.218 83.2209 129.758 84.4599 130.83C85.6988 131.901 86.497 133.423 86.6915 135.085L81.8729 169.209L89.5624 190.152C89.684 190.71 89.6219 191.293 89.386 191.809C89.1501 192.325 88.7541 192.744 88.2614 192.999L85.4909 194.437C85.1491 194.615 84.7722 194.707 84.39 194.707Z" fill="#EFBF63" />
    <path d="M140.338 170.576C139.952 170.576 139.572 170.482 139.228 170.301L118.395 159.379C117.174 158.739 116.059 157.901 115.094 156.894L94.76 135.721C93.6216 134.535 92.962 132.944 92.9159 131.27C92.8698 129.597 93.4407 127.969 94.5119 126.718C95.5832 125.467 97.0741 124.687 98.6803 124.538C100.287 124.39 101.887 124.883 103.155 125.917L125.182 151.308L142.642 162.815C143.107 163.12 143.46 163.579 143.644 164.117C143.828 164.656 143.833 165.243 143.657 165.784L142.673 168.833C142.508 169.341 142.195 169.782 141.776 170.095C141.357 170.408 140.854 170.576 140.338 170.576L140.338 170.576Z" fill="#EFBF63" />
    <path d="M72.503 99.812C74.693 102.786 77.8411 104.842 81.3716 105.604C84.9501 106.372 88.6746 105.818 91.9015 104.038C94.4981 102.582 96.5759 100.397 98.611 98.2449C99.4604 97.3469 100.365 96.3113 100.322 95.0862C100.256 93.1882 98.0577 92.1505 96.1709 91.7366C89.9775 90.3955 83.5332 91.1478 77.7815 93.8831C75.2199 95.1182 72.551 97.3526 72.9356 100.13" fill="#2F2E41" />
    <path d="M411.076 103.217H158.065C155.699 103.22 153.432 104.197 151.759 105.934C150.086 107.67 149.145 110.024 149.141 112.479V213.819C149.145 216.275 150.086 218.628 151.759 220.365C153.432 222.101 155.699 223.078 158.065 223.081H411.076C413.442 223.078 415.71 222.101 417.383 220.365C419.055 218.628 419.997 216.275 420 213.819V112.479C419.997 110.024 419.055 107.67 417.383 105.934C415.71 104.197 413.442 103.22 411.076 103.217ZM418.95 213.819C418.948 215.986 418.117 218.063 416.641 219.595C415.165 221.127 413.164 221.989 411.076 221.992H158.065C155.978 221.989 153.976 221.127 152.5 219.595C151.024 218.063 150.194 215.986 150.191 213.819V112.479C150.194 110.313 151.024 108.235 152.5 106.703C153.976 105.171 155.978 104.309 158.065 104.307H411.076C413.164 104.309 415.165 105.171 416.641 106.703C418.117 108.235 418.948 110.313 418.95 112.479V213.819Z" fill="#3F3D56" />
    <path d="M411.076 103.217H158.065C155.699 103.22 153.432 104.197 151.759 105.934C150.086 107.67 149.145 110.024 149.141 112.479V213.819C149.145 216.275 150.086 218.628 151.759 220.365C153.432 222.101 155.699 223.078 158.065 223.081H411.076C413.442 223.078 415.71 222.101 417.383 220.365C419.055 218.628 419.997 216.275 420 213.819V112.479C419.997 110.024 419.055 107.67 417.383 105.934C415.71 104.197 413.442 103.22 411.076 103.217ZM418.95 213.819C418.948 215.986 418.117 218.063 416.641 219.595C415.165 221.127 413.164 221.989 411.076 221.992H158.065C155.978 221.989 153.976 221.127 152.5 219.595C151.024 218.063 150.194 215.986 150.191 213.819V112.479C150.194 110.313 151.024 108.235 152.5 106.703C153.976 105.171 155.978 104.309 158.065 104.307H411.076C413.164 104.309 415.165 105.171 416.641 106.703C418.117 108.235 418.948 110.313 418.95 112.479V213.819Z" stroke="black" />
    <path d="M204.003 132.138H204.003C198.086 132.138 192.303 133.96 187.386 137.369C182.47 140.779 178.641 145.624 176.38 151.288C174.12 156.952 173.529 163.184 174.681 169.196C175.833 175.208 178.677 180.733 182.857 185.071C187.036 189.409 192.364 192.365 198.167 193.564C203.97 194.762 209.984 194.147 215.449 191.797C220.914 189.447 225.582 185.47 228.865 180.371C232.147 175.272 233.898 169.279 233.898 163.149V163.149C233.889 154.933 230.741 147.053 225.139 141.238C219.536 135.422 211.935 132.148 204.003 132.138ZM204.002 194.25C198.084 194.25 192.297 192.428 187.373 189.013C182.449 185.598 178.608 180.742 176.339 175.057C174.07 169.372 173.476 163.115 174.633 157.078C175.79 151.042 178.645 145.499 182.835 141.151C187.024 136.803 192.359 133.844 198.164 132.645C203.969 131.447 209.987 132.062 215.456 134.413C220.926 136.765 225.604 140.749 228.897 145.863C232.189 150.978 233.948 156.994 233.948 163.149C233.939 171.4 230.777 179.308 225.161 185.137C219.545 190.965 211.935 194.24 204.002 194.25Z" fill="#3F3D56" stroke="black" />
    <path d="M388.498 142.99H267.241C265.546 142.991 263.917 143.673 262.696 144.893C261.475 146.113 260.756 147.776 260.69 149.534C260.681 149.622 260.678 149.712 260.68 149.801C260.682 151.606 261.374 153.337 262.604 154.614C263.834 155.89 265.502 156.609 267.241 156.611H388.498C390.238 156.611 391.907 155.894 393.137 154.616C394.368 153.339 395.059 151.607 395.059 149.801C395.059 147.994 394.368 146.262 393.137 144.985C391.907 143.708 390.238 142.99 388.498 142.99Z" fill="#6C6C6C" />
    <path d="M388.498 169.687H267.241C265.546 169.688 263.917 170.37 262.696 171.59C261.475 172.81 260.756 174.473 260.69 176.231C260.681 176.319 260.678 176.409 260.68 176.498C260.682 178.303 261.374 180.034 262.604 181.311C263.834 182.587 265.502 183.306 267.241 183.308H388.498C390.238 183.308 391.907 182.591 393.137 181.313C394.368 180.036 395.059 178.304 395.059 176.498C395.059 174.691 394.368 172.959 393.137 171.682C391.907 170.405 390.238 169.687 388.498 169.687V169.687Z" fill="#222222" />
    <path d="M200.606 176.956C199.757 176.958 198.93 176.673 198.25 176.144L198.208 176.111L189.335 169.06C188.924 168.733 188.579 168.325 188.32 167.86C188.06 167.395 187.892 166.881 187.824 166.349C187.756 165.816 187.79 165.275 187.924 164.755C188.057 164.236 188.288 163.75 188.603 163.323C188.918 162.897 189.311 162.539 189.759 162.27C190.207 162.001 190.702 161.826 191.215 161.755C191.728 161.685 192.25 161.72 192.75 161.859C193.25 161.997 193.719 162.237 194.13 162.564L199.877 167.138L213.459 148.753C213.774 148.326 214.167 147.969 214.615 147.7C215.064 147.431 215.558 147.256 216.072 147.186C216.585 147.116 217.107 147.151 217.607 147.29C218.107 147.429 218.576 147.669 218.986 147.996L218.902 148.115L218.989 147.997C219.817 148.658 220.359 149.634 220.496 150.709C220.633 151.785 220.353 152.873 219.718 153.734L203.742 175.359C203.373 175.858 202.898 176.261 202.354 176.538C201.81 176.815 201.212 176.958 200.606 176.956V176.956Z" fill="#4D9662" />
    <path d="M200.519 295H0.52492C0.385703 295 0.252187 294.943 0.153745 294.84C0.0553035 294.738 0 294.6 0 294.455C0 294.311 0.0553035 294.172 0.153745 294.07C0.252187 293.968 0.385703 293.91 0.52492 293.91H200.519C200.659 293.91 200.792 293.968 200.891 294.07C200.989 294.172 201.044 294.311 201.044 294.455C201.044 294.6 200.989 294.738 200.891 294.84C200.792 294.943 200.659 295 200.519 295Z" fill="#3F3D56" />
    <path d="M358.656 78.6717C347.69 77.1062 336.554 77.3668 325.667 79.4437C314.812 81.5035 304.333 85.3064 294.606 90.7156C289.14 93.7642 283.952 97.322 279.106 101.345C278.314 102.001 279.435 103.151 280.219 102.501C288.722 95.4799 298.255 89.9182 308.453 86.0273C318.571 82.1432 329.206 79.9038 339.982 79.3883C346.08 79.0977 352.19 79.3854 358.237 80.2478C358.438 80.2978 358.65 80.2667 358.83 80.1607C359.01 80.0548 359.144 79.8819 359.206 79.677C359.26 79.4681 359.232 79.2453 359.13 79.0571C359.027 78.8689 358.856 78.7305 358.656 78.6717H358.656Z" fill="white" />
</svg>
