<svg width="808" height="420" viewBox="0 0 808 420" fill="none" xmlns="http://www.w3.org/2000/svg">
    <g clip-path="url(#clip0)">
        <path d="M435.154 410.996L424.495 328.391L424.487 328.263C424.49 325.877 425.439 323.589 427.126 321.902C428.813 320.215 431.101 319.266 433.487 319.263H537.487C539.873 319.266 542.161 320.215 543.848 321.902C545.535 323.589 546.484 325.877 546.487 328.263L538.732 388.39L535.82 410.996C535.8 413.371 534.843 415.642 533.158 417.314C531.472 418.987 529.195 419.927 526.82 419.93H444.154C441.779 419.927 439.501 418.987 437.816 417.314C436.131 415.642 435.174 413.371 435.154 410.996ZM537.487 321.263H433.487C431.642 321.265 429.872 321.995 428.561 323.294C427.251 324.593 426.505 326.356 426.487 328.201L434.226 388.136L437.145 410.801L437.154 410.93C437.156 412.786 437.894 414.565 439.206 415.877C440.518 417.19 442.298 417.928 444.154 417.93H526.82C528.676 417.928 530.455 417.19 531.768 415.877C533.08 414.565 533.818 412.786 533.82 410.93L544.487 328.201C544.468 326.356 543.723 324.593 542.412 323.294C541.102 321.995 539.332 321.265 537.487 321.263V321.263Z" fill="#3F3D56" />
        <path d="M485.487 344.263C516.415 344.263 541.487 340.084 541.487 334.93C541.487 329.775 516.415 325.596 485.487 325.596C454.559 325.596 429.487 329.775 429.487 334.93C429.487 340.084 454.559 344.263 485.487 344.263Z" fill="#B38D71" />
        <path d="M480.639 330.73C488.377 311.753 492.321 291.445 492.248 270.951C492.23 250.45 488.35 230.136 480.81 211.072C476.565 200.385 471.128 190.212 464.601 180.745C463.689 179.422 465.847 178.175 466.752 179.487C478.51 196.676 486.771 216.01 491.064 236.388C495.396 256.655 495.89 277.554 492.521 298.003C490.628 309.454 487.448 320.654 483.041 331.392C482.44 332.854 480.028 332.214 480.639 330.73V330.73Z" fill="#98D673" />
        <path d="M490.981 239.727C494.378 236.046 495.304 230.921 495.278 226.066C495.246 220.3 493.828 214.655 493.557 208.905C493.314 203.761 494.094 198.557 497.1 194.257C499.687 190.555 503.767 187.706 508.45 187.968C518.438 188.528 523.088 200.015 524.529 208.403C526.476 219.305 524.538 230.544 519.054 240.165C513.57 249.786 504.887 257.18 494.515 261.061C493.015 261.632 492.367 259.225 493.852 258.658C503.009 255.171 510.773 248.784 515.96 240.472C521.147 232.159 523.472 222.378 522.581 212.621C522.274 207.813 521.015 203.113 518.878 198.795C516.962 195.172 513.981 191.574 509.796 190.646C505.673 189.732 501.806 192.019 499.422 195.274C496.417 199.377 495.791 204.337 496.069 209.299C496.663 219.905 500.956 232.588 492.742 241.489C491.652 242.67 489.894 240.905 490.981 239.727V239.727Z" fill="#98D673" />
        <path d="M489.039 285.346C480.592 279.835 479.749 269.054 478.684 259.975C478.081 254.835 477.207 249.371 474.053 245.108C471.458 241.602 467.061 238.59 462.506 239.405C458.49 240.124 455.775 243.44 454.298 247.045C452.746 251.224 452.148 255.697 452.547 260.137C453.167 270.249 457.123 279.87 463.796 287.492C467.069 291.368 470.925 294.711 475.226 297.4C479.638 300.049 484.564 301.727 489.675 302.324C491.248 302.51 491.267 305.004 489.675 304.815C484.826 304.278 480.119 302.842 475.795 300.583C471.578 298.282 467.745 295.338 464.433 291.859C456.864 284.288 451.949 274.471 450.421 263.876C449.658 259.05 449.829 254.122 450.924 249.361C451.988 245.213 454.114 241.053 457.783 238.649C459.753 237.436 462.026 236.809 464.339 236.84C466.651 236.872 468.907 237.561 470.842 238.828C475.316 241.551 478.136 246.079 479.564 251.026C481.318 257.097 481.195 263.488 482.489 269.643C483.575 274.811 485.698 280.195 490.296 283.195C491.634 284.068 490.387 286.226 489.039 285.347V285.346Z" fill="#98D673" />
        <path d="M409.504 141.301C409.504 132.994 411.967 124.874 416.582 117.967C421.197 111.06 427.757 105.677 435.431 102.498C443.106 99.3194 451.551 98.4877 459.698 100.108C467.845 101.729 475.329 105.729 481.202 111.603C487.076 117.477 491.076 124.96 492.697 133.107C494.317 141.255 493.486 149.699 490.307 157.374C487.128 165.048 481.745 171.608 474.838 176.223C467.931 180.838 459.811 183.301 451.504 183.301C440.369 183.289 429.693 178.86 421.819 170.986C413.946 163.112 409.517 152.436 409.504 141.301V141.301ZM411.504 141.301C411.504 149.212 413.85 156.946 418.245 163.524C422.64 170.102 428.888 175.229 436.197 178.256C443.506 181.284 451.548 182.076 459.308 180.533C467.067 178.989 474.194 175.18 479.788 169.586C485.382 163.991 489.192 156.864 490.735 149.105C492.279 141.346 491.487 133.303 488.459 125.994C485.432 118.685 480.305 112.438 473.727 108.042C467.149 103.647 459.415 101.301 451.504 101.301C440.899 101.313 430.732 105.531 423.233 113.03C415.734 120.529 411.516 130.696 411.504 141.301V141.301Z" fill="#3F3D56" />
        <path d="M427.504 129.799L422.504 128.799C422.504 128.799 426.704 133.499 427.504 133.799C427.579 134.798 427.579 135.8 427.504 136.799C437.104 177.999 472.504 159.799 472.504 159.799C459.604 160.099 458.504 154.799 458.504 154.799C466.004 153.699 467.504 148.799 467.504 148.799C466.831 149.154 466.051 149.248 465.313 149.064C464.575 148.879 463.931 148.429 463.504 147.799C471.604 145.699 470.504 137.799 470.504 137.799C469.06 138.841 467.373 139.496 465.604 139.699C466.504 138.599 474.104 129.499 469.504 124.799C469.504 124.799 463.904 134.799 449.204 135.699L448.204 135.499C448.374 134.779 448.441 134.038 448.404 133.299C448.404 130.514 447.298 127.844 445.329 125.874C443.359 123.905 440.689 122.799 437.904 122.799C430.904 122.799 429.404 126.799 429.404 126.799L424.404 123.799C424.504 123.799 425.004 128.799 427.504 129.799Z" fill="#95CCFF" />
        <path d="M696.487 419.93H634.487C632.643 419.928 630.874 419.199 629.563 417.901C628.253 416.604 627.507 414.842 627.487 412.997L619.487 350.93C619.489 349.074 620.227 347.295 621.539 345.983C622.852 344.67 624.631 343.932 626.487 343.93H704.487C706.343 343.932 708.122 344.67 709.434 345.983C710.747 347.295 711.485 349.074 711.487 350.93L711.479 351.058L703.487 412.997C703.467 414.842 702.721 416.604 701.411 417.901C700.1 419.199 698.331 419.928 696.487 419.93V419.93ZM621.487 350.868L629.487 412.93C629.488 414.256 630.016 415.526 630.953 416.464C631.89 417.401 633.161 417.929 634.487 417.93H696.487C697.812 417.929 699.083 417.401 700.021 416.464C700.958 415.526 701.485 414.256 701.487 412.93L701.495 412.801L709.486 350.868C709.469 349.554 708.934 348.299 707.999 347.374C707.063 346.45 705.802 345.932 704.487 345.93H626.487C625.172 345.932 623.91 346.45 622.975 347.374C622.039 348.299 621.505 349.554 621.487 350.868V350.868Z" fill="#3F3D56" />
        <path d="M665.487 362.93C688.683 362.93 707.487 359.796 707.487 355.93C707.487 352.064 688.683 348.93 665.487 348.93C642.291 348.93 623.487 352.064 623.487 355.93C623.487 359.796 642.291 362.93 665.487 362.93Z" fill="#B38D71" />
        <path d="M666.626 348.759C660.53 333.81 657.42 317.813 657.469 301.67C657.483 285.519 660.538 269.516 666.476 254.497C669.823 246.081 674.108 238.069 679.25 230.613C680.347 229.019 677.749 227.518 676.659 229.099C667.361 242.701 660.821 257.995 657.41 274.114C653.969 290.169 653.56 306.725 656.202 322.931C657.696 332.063 660.223 340.995 663.733 349.557C664.456 351.318 667.36 350.547 666.626 348.759V348.759Z" fill="#98D673" />
        <path d="M658.32 276.607C652.194 269.891 656.356 259.466 656.467 251.564C656.675 247.555 655.533 243.593 653.223 240.31C651.066 237.447 647.784 235.32 644.081 235.553C635.984 236.062 632.142 245.166 630.95 252.033C629.364 260.787 630.907 269.82 635.308 277.552C639.709 285.284 646.688 291.223 655.025 294.329C656.829 295.021 657.61 292.122 655.822 291.437C648.71 288.715 642.679 283.747 638.648 277.286C634.617 270.824 632.805 263.224 633.487 255.639C633.718 251.848 634.716 248.144 636.421 244.75C637.905 241.997 640.215 239.206 643.461 238.628C646.681 238.055 649.559 240.095 651.243 242.689C653.388 245.992 653.657 249.848 653.367 253.687C652.734 262.061 649.809 271.722 656.198 278.728C657.502 280.158 659.619 278.031 658.32 276.607V276.607Z" fill="#98D673" />
        <path d="M659.75 313.472C666.17 309.233 667.259 301.301 668.043 294.261C668.501 290.151 668.991 285.723 671.301 282.175C673.136 279.356 676.392 276.811 679.933 277.163C687.007 277.866 688.11 287.505 687.823 292.957C687.373 300.846 684.308 308.361 679.112 314.316C673.814 320.399 667.142 324.948 658.987 325.93C657.094 326.158 657.071 329.161 658.987 328.93C675.273 326.969 688.233 312.359 690.477 296.43C691.455 289.483 691.017 280.128 684.57 275.751C683.023 274.76 681.233 274.213 679.396 274.17C677.558 274.127 675.745 274.588 674.152 275.505C670.587 277.575 667.943 280.924 666.758 284.873C665.138 289.749 665.245 294.948 664.276 299.951C663.475 304.082 661.901 308.462 658.236 310.882C656.632 311.941 658.133 314.54 659.75 313.472H659.75Z" fill="#98D673" />
        <path d="M686.47 230.635C678.163 230.635 670.043 228.171 663.136 223.556C656.229 218.941 650.846 212.382 647.667 204.707C644.488 197.033 643.656 188.588 645.277 180.441C646.897 172.294 650.897 164.81 656.771 158.936C662.645 153.062 670.129 149.062 678.276 147.442C686.423 145.821 694.868 146.653 702.542 149.832C710.217 153.011 716.776 158.394 721.392 165.301C726.007 172.208 728.47 180.328 728.47 188.635C728.457 199.77 724.028 210.445 716.154 218.319C708.281 226.193 697.605 230.622 686.47 230.635V230.635ZM686.47 148.635C678.558 148.635 670.825 150.981 664.247 155.376C657.669 159.771 652.542 166.018 649.515 173.327C646.487 180.636 645.695 188.679 647.238 196.438C648.782 204.198 652.591 211.325 658.186 216.919C663.78 222.513 670.907 226.323 678.666 227.866C686.425 229.41 694.468 228.617 701.777 225.59C709.086 222.562 715.333 217.435 719.729 210.858C724.124 204.28 726.47 196.546 726.47 188.635C726.458 178.03 722.24 167.863 714.741 160.364C707.242 152.865 697.075 148.647 686.47 148.635V148.635Z" fill="#3F3D56" />
        <path fill-rule="evenodd" clip-rule="evenodd" d="M713.926 188.8C713.925 183.553 712.421 178.416 709.591 173.998C706.762 169.579 702.725 166.064 697.96 163.868C693.195 161.673 687.9 160.888 682.703 161.608C677.506 162.328 672.624 164.522 668.635 167.93C664.645 171.338 661.716 175.818 660.194 180.839C658.672 185.861 658.621 191.213 660.046 196.262C661.471 201.312 664.313 205.847 668.236 209.332C672.158 212.816 676.997 215.104 682.18 215.924V196.739H675.207V188.8H682.18V182.749C682.18 175.869 686.28 172.066 692.551 172.066C694.61 172.095 696.664 172.274 698.698 172.603V179.36H695.234C691.825 179.36 690.759 181.476 690.759 183.65V188.801H698.373L697.157 196.74H690.759V215.926C697.217 214.903 703.099 211.609 707.346 206.636C711.593 201.664 713.926 195.339 713.926 188.8V188.8Z" fill="#3993E6" />
        <path d="M808 418.93C807.999 419.195 807.894 419.449 807.706 419.636C807.519 419.824 807.265 419.929 807 419.93H1C0.734784 419.93 0.480429 419.825 0.292892 419.637C0.105356 419.45 0 419.195 0 418.93C0 418.665 0.105356 418.41 0.292892 418.223C0.480429 418.035 0.734784 417.93 1 417.93H807C807.265 417.931 807.519 418.036 807.706 418.224C807.894 418.411 807.999 418.665 808 418.93V418.93Z" fill="#3F3D56" />
        <path d="M191.487 419.93H129.487C127.643 419.928 125.874 419.199 124.563 417.901C123.253 416.604 122.507 414.842 122.487 412.997L114.487 350.93C114.489 349.074 115.227 347.295 116.539 345.983C117.852 344.67 119.631 343.932 121.487 343.93H199.487C201.343 343.932 203.122 344.67 204.434 345.983C205.747 347.295 206.485 349.074 206.487 350.93L206.479 351.058L198.487 412.997C198.467 414.842 197.721 416.604 196.41 417.901C195.1 419.199 193.331 419.928 191.487 419.93ZM116.487 350.868L124.487 412.93C124.488 414.256 125.016 415.526 125.953 416.464C126.89 417.401 128.161 417.929 129.487 417.93H191.487C192.812 417.929 194.083 417.401 195.021 416.464C195.958 415.526 196.485 414.256 196.487 412.93L196.495 412.801L204.486 350.868C204.469 349.554 203.934 348.299 202.999 347.374C202.063 346.45 200.802 345.932 199.487 345.93H121.487C120.172 345.932 118.91 346.45 117.975 347.374C117.039 348.299 116.505 349.554 116.487 350.868V350.868Z" fill="#3F3D56" />
        <path d="M160.487 362.93C183.683 362.93 202.487 359.796 202.487 355.93C202.487 352.064 183.683 348.93 160.487 348.93C137.291 348.93 118.487 352.064 118.487 355.93C118.487 359.796 137.291 362.93 160.487 362.93Z" fill="#B38D71" />
        <path d="M159.241 352.557C165.444 337.288 168.591 320.95 168.504 304.47C168.477 288.05 165.36 271.782 159.317 256.515C155.908 247.916 151.547 239.726 146.314 232.099C145.226 230.519 142.625 232.018 143.724 233.613C152.844 246.94 159.266 261.923 162.63 277.717C166.044 293.502 166.435 309.792 163.781 325.723C162.276 334.651 159.783 343.383 156.348 351.759C155.615 353.544 158.516 354.321 159.241 352.557V352.557Z" fill="#98D673" />
        <path d="M166.775 281.728C172.191 275.79 170.95 267.508 169.992 260.233C169.463 256.22 168.994 251.884 170.511 248.022C171.654 245.112 174.026 242.229 177.242 241.634C180.485 241.034 183.365 243.1 185.2 245.591C187.248 248.592 188.579 252.022 189.093 255.618C190.524 263.631 189.116 271.892 185.11 278.977C181.105 286.063 174.754 291.53 167.151 294.436C165.367 295.121 166.142 298.022 167.949 297.329C175.408 294.479 181.808 289.401 186.279 282.784C191.087 275.54 193.265 266.866 192.448 258.209C191.77 251.056 189.045 241.666 181.447 239.037C173.662 236.344 167.576 244.165 166.698 251.075C166.016 256.45 167.446 261.72 167.817 267.056C168.12 271.405 167.727 276.237 164.654 279.607C163.355 281.031 165.471 283.158 166.775 281.728Z" fill="#98D673" />
        <path d="M164.738 313.882C157.488 309.095 158.551 298.521 157.056 291.094C156.227 286.98 154.538 282.985 151.275 280.216C148.389 277.767 144.477 276.348 140.748 277.609C133.351 280.111 131.769 289.395 132.161 296.162C132.687 304.768 136.057 312.954 141.74 319.437C147.611 326.177 155.016 330.85 163.987 331.93C165.899 332.16 165.883 329.158 163.987 328.93C149.114 327.139 137.429 313.212 135.419 298.832C134.834 295.258 134.963 291.603 135.798 288.079C136.566 285.202 138.067 282.149 140.87 280.784C144.087 279.218 147.631 280.744 149.99 283.109C152.866 285.992 153.913 289.953 154.508 293.871C155.724 301.888 155.639 311.464 163.223 316.472C164.839 317.539 166.343 314.942 164.738 313.882V313.882Z" fill="#98D673" />
        <path d="M141.258 232.883C132.952 232.883 124.831 230.419 117.925 225.804C111.018 221.189 105.634 214.63 102.456 206.955C99.2767 199.281 98.4449 190.836 100.066 182.689C101.686 174.542 105.686 167.058 111.56 161.184C117.434 155.31 124.918 151.31 133.065 149.69C141.212 148.069 149.657 148.901 157.331 152.08C165.006 155.259 171.565 160.642 176.18 167.549C180.795 174.456 183.258 182.576 183.258 190.883C183.246 202.018 178.817 212.693 170.943 220.567C163.069 228.441 152.394 232.87 141.258 232.883V232.883ZM141.258 150.883C133.347 150.883 125.614 153.229 119.036 157.624C112.458 162.019 107.331 168.266 104.303 175.575C101.276 182.884 100.484 190.927 102.027 198.686C103.57 206.446 107.38 213.573 112.974 219.167C118.568 224.761 125.696 228.571 133.455 230.114C141.214 231.658 149.257 230.865 156.566 227.838C163.875 224.81 170.122 219.684 174.517 213.106C178.913 206.528 181.258 198.794 181.258 190.883C181.247 180.278 177.028 170.111 169.53 162.612C162.031 155.113 151.863 150.895 141.258 150.883V150.883Z" fill="#3F3D56" />
        <path d="M152.698 170.105C155.495 170.114 158.176 171.229 160.154 173.207C162.133 175.186 163.248 177.866 163.256 180.664V201.779C163.248 204.576 162.133 207.257 160.154 209.235C158.176 211.214 155.495 212.329 152.698 212.337H131.583C128.785 212.329 126.105 211.214 124.126 209.235C122.148 207.257 121.033 204.576 121.024 201.779V180.664C121.033 177.866 122.148 175.186 124.126 173.207C126.105 171.229 128.785 170.114 131.583 170.105H152.698L152.698 170.105ZM152.698 165.883H131.583C127.666 165.894 123.913 167.455 121.144 170.225C118.374 172.994 116.813 176.747 116.802 180.664V201.779C116.813 205.695 118.374 209.448 121.144 212.218C123.913 214.988 127.666 216.548 131.583 216.56H152.698C156.614 216.549 160.367 214.988 163.137 212.218C165.907 209.448 167.468 205.695 167.479 201.779V180.664C167.468 176.747 165.907 172.994 163.137 170.225C160.367 167.455 156.614 165.894 152.698 165.883L152.698 165.883Z" fill="url(#paint0_linear)" />
        <path d="M155.865 180.664C155.027 180.662 154.225 180.328 153.633 179.735C153.042 179.141 152.71 178.338 152.711 177.5C152.712 176.662 153.046 175.859 153.638 175.267C154.231 174.675 155.034 174.343 155.872 174.343C156.709 174.343 157.513 174.675 158.106 175.267C158.698 175.859 159.031 176.662 159.032 177.5C159.033 178.338 158.702 179.141 158.11 179.735C157.519 180.328 156.716 180.662 155.879 180.664C155.874 180.664 155.87 180.664 155.865 180.664Z" fill="url(#paint1_linear)" />
        <path d="M142.14 182.775C143.811 182.775 145.444 183.27 146.833 184.198C148.222 185.126 149.305 186.446 149.944 187.989C150.583 189.532 150.751 191.231 150.425 192.869C150.099 194.508 149.294 196.013 148.113 197.194C146.932 198.375 145.427 199.18 143.788 199.506C142.15 199.831 140.451 199.664 138.908 199.025C137.365 198.386 136.045 197.303 135.117 195.914C134.189 194.525 133.694 192.892 133.694 191.221C133.694 190.112 133.912 189.014 134.337 187.989C134.761 186.964 135.383 186.033 136.168 185.249C136.952 184.464 137.883 183.842 138.908 183.418C139.933 182.993 141.031 182.775 142.14 182.775V182.775ZM142.14 178.552C139.635 178.552 137.185 179.295 135.102 180.687C133.018 182.079 131.394 184.058 130.435 186.373C129.477 188.688 129.226 191.235 129.715 193.693C130.203 196.151 131.41 198.408 133.182 200.18C134.954 201.952 137.211 203.158 139.669 203.647C142.126 204.136 144.674 203.885 146.989 202.926C149.304 201.967 151.282 200.343 152.675 198.26C154.067 196.177 154.81 193.727 154.81 191.221C154.81 189.558 154.482 187.91 153.845 186.373C153.209 184.836 152.275 183.439 151.099 182.263C149.922 181.086 148.526 180.153 146.989 179.516C145.452 178.88 143.804 178.552 142.14 178.552V178.552Z" fill="url(#paint2_linear)" />
        <path d="M381.243 406.999L392.963 403.402L384.667 356.484L367.369 361.792L381.243 406.999Z" fill="#FFB8B8" />
        <path d="M418.906 407.349L382.071 418.653L377.704 404.421L400.307 397.484C404.082 396.326 408.162 396.715 411.65 398.564C415.138 400.414 417.748 403.574 418.906 407.349V407.349L418.906 407.349Z" fill="#2F2E41" />
        <path d="M281.245 407.269L293.504 407.268L299.337 359.98L281.242 359.981L281.245 407.269Z" fill="#FFB8B8" />
        <path d="M317.149 418.651L278.618 418.653L278.617 403.766L302.261 403.765C306.209 403.765 309.996 405.333 312.788 408.125C315.58 410.917 317.149 414.703 317.149 418.651V418.651V418.651Z" fill="#2F2E41" />
        <path d="M280.365 270.191C279.358 269.308 278.557 268.215 278.017 266.989C277.478 265.763 277.215 264.434 277.245 263.094C277.275 261.755 277.599 260.439 278.193 259.239C278.787 258.038 279.637 256.982 280.683 256.146L290.188 136.451L309.519 141.281L294.042 258.039C295.331 259.89 295.896 262.149 295.63 264.389C295.365 266.628 294.287 268.692 292.601 270.19C290.915 271.688 288.738 272.515 286.483 272.516C284.228 272.516 282.051 271.689 280.365 270.191V270.191Z" fill="#FFB8B8" />
        <path d="M319.076 90.0272C332.641 90.0272 343.637 79.0309 343.637 65.4662C343.637 51.9015 332.641 40.9052 319.076 40.9052C305.511 40.9052 294.515 51.9015 294.515 65.4662C294.515 79.0309 305.511 90.0272 319.076 90.0272Z" fill="#FFB8B8" />
        <path d="M297.719 132.77C292.177 125.161 292.007 114.683 297.976 107.405C301.872 102.656 308.389 98.856 319.269 98.856C348.269 98.856 359.269 121.856 359.269 121.856C359.269 121.856 371.269 143.856 364.269 163.856C357.269 183.856 357.269 185.856 357.269 185.856L311.269 181.856C311.269 181.856 319.029 162.024 297.719 132.77Z" fill="#ECCB56" />
        <path d="M283.534 152.678L293.444 120.257C294.108 118.086 295.24 116.088 296.761 114.403C298.282 112.718 300.155 111.387 302.247 110.505C304.338 109.623 306.598 109.212 308.867 109.299C311.135 109.387 313.357 109.972 315.374 111.012V111.012C318.874 112.825 321.554 115.901 322.871 119.617C324.187 123.333 324.041 127.41 322.462 131.022L309.864 159.713L283.534 152.678Z" fill="#ECCB56" />
        <path d="M356.269 180.856L395.269 382.856L374.269 388.856L323.269 255.856L300.269 391.856L278.269 394.856C278.269 394.856 268.619 214.911 311.269 181.856L356.269 180.856Z" fill="#2F2E41" />
        <path d="M361.365 195.515C358.092 195.517 354.899 194.503 352.226 192.614C349.553 190.725 347.531 188.054 346.44 184.968L335.178 153.634L352.662 145.325L362.259 174.621L411.152 172.251C411.413 171.836 411.703 171.439 412.02 171.064V171.064C412.973 169.945 414.142 169.028 415.456 168.368C416.771 167.708 418.204 167.319 419.672 167.222C421.139 167.126 422.611 167.325 424.001 167.807C425.39 168.289 426.668 169.046 427.761 170.031C429.819 171.93 431.086 174.534 431.309 177.326C431.532 180.117 430.695 182.89 428.964 185.092C428.042 186.238 426.9 187.188 425.605 187.885C424.31 188.582 422.888 189.012 421.424 189.15C419.959 189.288 418.482 189.131 417.08 188.688C415.677 188.245 414.378 187.525 413.258 186.571C412.984 186.337 412.723 186.088 412.476 185.826L364.484 195.211C363.456 195.413 362.412 195.514 361.365 195.515Z" fill="#FFB8B8" />
        <path d="M328.872 124.76C328.607 122.506 328.84 120.22 329.555 118.066C330.27 115.911 331.45 113.94 333.01 112.292C334.571 110.643 336.475 109.357 338.587 108.526C340.699 107.694 342.969 107.336 345.234 107.478V107.478C349.168 107.731 352.859 109.47 355.558 112.343C358.257 115.216 359.762 119.008 359.769 122.95V154.285L332.833 158.429L328.872 124.76Z" fill="#ECCB56" />
        <path d="M324.477 90.25C320.791 90.234 317.947 86.3528 318.112 82.6701C318.278 78.9874 320.751 75.7472 323.731 73.5771C326.711 71.4071 330.206 70.0853 333.529 68.4898C336.852 66.8943 340.147 64.9042 342.198 61.8416C343.438 59.837 344.178 57.5641 344.356 55.2141C344.534 52.864 344.145 50.5056 343.222 48.3372C341.312 44.0003 338.034 40.4088 333.889 38.113C327.731 34.5085 320.441 33.3559 313.472 34.8849C306.502 36.4139 300.365 40.5122 296.281 46.3634L292.073 57.8212C287.786 62.9774 287.105 70.6346 289.741 76.8009C292.377 82.9673 297.989 87.6067 304.322 89.8123C310.748 91.8772 317.626 92.0834 324.163 90.4072" fill="#2F2E41" />
        <path d="M302.031 52.0897C300.222 49.1903 297.086 47.3464 293.845 46.2642C290.09 45.0105 286.096 44.6405 282.174 45.1829C278.253 45.7254 274.509 47.1657 271.235 49.3916C267.961 51.6175 265.245 54.5691 263.299 58.0165C261.352 61.4638 260.228 65.3139 260.013 69.2671C259.669 75.5814 261.646 81.7562 262.808 87.9723C263.97 94.1883 264.201 101.054 260.774 106.368C258.163 110.416 253.81 112.965 249.513 115.141C245.931 116.954 242.058 118.657 238.06 118.295C234.062 117.934 230.043 114.767 230.149 110.754C228.811 113.631 227.907 116.692 227.468 119.834C227.186 122.99 227.964 126.396 230.244 128.596C233.557 131.795 238.806 131.561 243.359 130.871C253.216 129.377 263.198 126.575 270.985 120.35C278.772 114.126 283.94 103.875 281.889 94.1192C281.032 90.0437 279.019 86.3232 277.392 82.4895C275.765 78.6558 274.495 74.4625 275.242 70.3655C275.685 68.2548 276.585 66.2669 277.88 64.5421C279.174 62.8174 280.832 61.3979 282.735 60.3837C286.584 58.3824 290.988 57.7145 295.258 58.4847C298.057 58.9441 301.552 59.6573 303.212 57.3573C303.652 56.6287 303.876 55.7904 303.86 54.9395C303.843 54.0885 303.586 53.2596 303.118 52.5487C302.16 51.1425 300.941 49.934 299.526 48.9891" fill="#2F2E41" />
        <path d="M535.467 55.9338C539.038 55.9338 541.934 52.8146 541.934 48.9669C541.934 45.1192 539.038 42 535.467 42C531.895 42 529 45.1192 529 48.9669C529 52.8146 531.895 55.9338 535.467 55.9338Z" fill="#909090" />
        <path d="M535.467 81.7071C539.038 81.7071 541.934 78.5879 541.934 74.7402C541.934 70.8925 539.038 67.7733 535.467 67.7733C531.895 67.7733 529 70.8925 529 74.7402C529 78.5879 531.895 81.7071 535.467 81.7071Z" fill="#606060" />
        <path d="M535.467 107.48C539.038 107.48 541.934 104.361 541.934 100.513C541.934 96.6658 539.038 93.5466 535.467 93.5466C531.895 93.5466 529 96.6658 529 100.513C529 104.361 531.895 107.48 535.467 107.48Z" fill="#909090" />
        <path d="M535.467 133.254C539.038 133.254 541.934 130.135 541.934 126.287C541.934 122.439 539.038 119.32 535.467 119.32C531.895 119.32 529 122.439 529 126.287C529 130.135 531.895 133.254 535.467 133.254Z" fill="#F2F2F2" />
        <path d="M562.467 55.9338C566.038 55.9338 568.934 52.8146 568.934 48.9669C568.934 45.1192 566.038 42 562.467 42C558.895 42 556 45.1192 556 48.9669C556 52.8146 558.895 55.9338 562.467 55.9338Z" fill="#909090" />
        <path d="M562.467 81.7071C566.038 81.7071 568.934 78.5879 568.934 74.7402C568.934 70.8925 566.038 67.7733 562.467 67.7733C558.895 67.7733 556 70.8925 556 74.7402C556 78.5879 558.895 81.7071 562.467 81.7071Z" fill="#606060" />
        <path d="M562.467 107.48C566.038 107.48 568.934 104.361 568.934 100.513C568.934 96.6658 566.038 93.5466 562.467 93.5466C558.895 93.5466 556 96.6658 556 100.513C556 104.361 558.895 107.48 562.467 107.48Z" fill="#909090" />
        <path d="M562.467 133.254C566.038 133.254 568.934 130.135 568.934 126.287C568.934 122.439 566.038 119.32 562.467 119.32C558.895 119.32 556 122.439 556 126.287C556 130.135 558.895 133.254 562.467 133.254Z" fill="#F2F2F2" />
        <path d="M589.467 55.9338C593.038 55.9338 595.934 52.8146 595.934 48.9669C595.934 45.1192 593.038 42 589.467 42C585.895 42 583 45.1192 583 48.9669C583 52.8146 585.895 55.9338 589.467 55.9338Z" fill="#909090" />
        <path d="M589.467 81.7071C593.038 81.7071 595.934 78.5879 595.934 74.7402C595.934 70.8925 593.038 67.7733 589.467 67.7733C585.895 67.7733 583 70.8925 583 74.7402C583 78.5879 585.895 81.7071 589.467 81.7071Z" fill="#606060" />
        <path d="M589.467 107.48C593.038 107.48 595.934 104.361 595.934 100.513C595.934 96.6658 593.038 93.5466 589.467 93.5466C585.895 93.5466 583 96.6658 583 100.513C583 104.361 585.895 107.48 589.467 107.48Z" fill="#909090" />
        <path d="M589.467 133.254C593.038 133.254 595.934 130.135 595.934 126.287C595.934 122.439 593.038 119.32 589.467 119.32C585.895 119.32 583 122.439 583 126.287C583 130.135 585.895 133.254 589.467 133.254Z" fill="#F2F2F2" />
        <path d="M616.467 55.9338C620.038 55.9338 622.934 52.8146 622.934 48.9669C622.934 45.1192 620.038 42 616.467 42C612.895 42 610 45.1192 610 48.9669C610 52.8146 612.895 55.9338 616.467 55.9338Z" fill="#606060" />
        <path d="M616.467 81.7071C620.038 81.7071 622.934 78.5879 622.934 74.7402C622.934 70.8925 620.038 67.7733 616.467 67.7733C612.895 67.7733 610 70.8925 610 74.7402C610 78.5879 612.895 81.7071 616.467 81.7071Z" fill="#606060" />
        <path d="M616.467 107.48C620.038 107.48 622.934 104.361 622.934 100.513C622.934 96.6658 620.038 93.5466 616.467 93.5466C612.895 93.5466 610 96.6658 610 100.513C610 104.361 612.895 107.48 616.467 107.48Z" fill="#606060" />
        <path d="M616.467 133.254C620.038 133.254 622.934 130.135 622.934 126.287C622.934 122.439 620.038 119.32 616.467 119.32C612.895 119.32 610 122.439 610 126.287C610 130.135 612.895 133.254 616.467 133.254Z" fill="#606060" />
        <path d="M643.467 55.9338C647.038 55.9338 649.934 52.8146 649.934 48.9669C649.934 45.1192 647.038 42 643.467 42C639.895 42 637 45.1192 637 48.9669C637 52.8146 639.895 55.9338 643.467 55.9338Z" fill="#606060" />
        <path d="M643.467 81.7071C647.038 81.7071 649.934 78.5879 649.934 74.7402C649.934 70.8925 647.038 67.7733 643.467 67.7733C639.895 67.7733 637 70.8925 637 74.7402C637 78.5879 639.895 81.7071 643.467 81.7071Z" fill="#606060" />
        <path d="M643.467 107.48C647.038 107.48 649.934 104.361 649.934 100.513C649.934 96.6658 647.038 93.5466 643.467 93.5466C639.895 93.5466 637 96.6658 637 100.513C637 104.361 639.895 107.48 643.467 107.48Z" fill="#606060" />
        <path d="M643.467 133.254C647.038 133.254 649.934 130.135 649.934 126.287C649.934 122.439 647.038 119.32 643.467 119.32C639.895 119.32 637 122.439 637 126.287C637 130.135 639.895 133.254 643.467 133.254Z" fill="#F2F2F2" />
        <path d="M670.467 55.9338C674.038 55.9338 676.934 52.8146 676.934 48.9669C676.934 45.1192 674.038 42 670.467 42C666.895 42 664 45.1192 664 48.9669C664 52.8146 666.895 55.9338 670.467 55.9338Z" fill="#F2F2F2" />
        <path d="M670.467 81.7071C674.038 81.7071 676.934 78.5879 676.934 74.7402C676.934 70.8925 674.038 67.7733 670.467 67.7733C666.895 67.7733 664 70.8925 664 74.7402C664 78.5879 666.895 81.7071 670.467 81.7071Z" fill="#606060" />
        <path d="M670.467 107.48C674.038 107.48 676.934 104.361 676.934 100.513C676.934 96.6658 674.038 93.5466 670.467 93.5466C666.895 93.5466 664 96.6658 664 100.513C664 104.361 666.895 107.48 670.467 107.48Z" fill="#F2F2F2" />
        <path d="M670.467 133.254C674.038 133.254 676.934 130.135 676.934 126.287C676.934 122.439 674.038 119.32 670.467 119.32C666.895 119.32 664 122.439 664 126.287C664 130.135 666.895 133.254 670.467 133.254Z" fill="#F2F2F2" />
        <path d="M535.545 30.9338C539.117 30.9338 542.012 27.8146 542.012 23.9669C542.012 20.1192 539.117 17 535.545 17C531.974 17 529.078 20.1192 529.078 23.9669C529.078 27.8146 531.974 30.9338 535.545 30.9338Z" fill="#F2F2F2" />
        <path d="M562.545 30.9338C566.117 30.9338 569.012 27.8146 569.012 23.9669C569.012 20.1192 566.117 17 562.545 17C558.974 17 556.078 20.1192 556.078 23.9669C556.078 27.8146 558.974 30.9338 562.545 30.9338Z" fill="#F2F2F2" />
        <path d="M589.545 30.9338C593.117 30.9338 596.012 27.8146 596.012 23.9669C596.012 20.1192 593.117 17 589.545 17C585.974 17 583.078 20.1192 583.078 23.9669C583.078 27.8146 585.974 30.9338 589.545 30.9338Z" fill="#F2F2F2" />
        <path d="M616.545 30.9338C620.117 30.9338 623.012 27.8146 623.012 23.9669C623.012 20.1192 620.117 17 616.545 17C612.974 17 610.078 20.1192 610.078 23.9669C610.078 27.8146 612.974 30.9338 616.545 30.9338Z" fill="#606060" />
        <path d="M643.545 30.9338C647.117 30.9338 650.012 27.8146 650.012 23.9669C650.012 20.1192 647.117 17 643.545 17C639.974 17 637.078 20.1192 637.078 23.9669C637.078 27.8146 639.974 30.9338 643.545 30.9338Z" fill="#F2F2F2" />
        <path d="M670.545 30.9338C674.117 30.9338 677.012 27.8146 677.012 23.9669C677.012 20.1192 674.117 17 670.545 17C666.974 17 664.078 20.1192 664.078 23.9669C664.078 27.8146 666.974 30.9338 670.545 30.9338Z" fill="#F2F2F2" />
    </g>
    <defs>
        <linearGradient id="paint0_linear" x1="142.14" y1="165.883" x2="142.14" y2="216.56" gradientUnits="userSpaceOnUse">
            <stop stop-color="#FF6767" />
            <stop offset="1" stop-color="#CE67FF" stop-opacity="0.87" />
        </linearGradient>
        <linearGradient id="paint1_linear" x1="155.872" y1="174.343" x2="155.872" y2="180.664" gradientUnits="userSpaceOnUse">
            <stop stop-color="#8840D1" />
            <stop offset="1" stop-color="#BB3C79" stop-opacity="0.7" />
        </linearGradient>
        <linearGradient id="paint2_linear" x1="142.14" y1="178.552" x2="142.14" y2="203.891" gradientUnits="userSpaceOnUse">
            <stop stop-color="#8840D1" />
            <stop offset="1" stop-color="#BB3C79" stop-opacity="0.7" />
        </linearGradient>
        <clipPath id="clip0">
            <rect width="808" height="419.93" fill="white" />
        </clipPath>
    </defs>
</svg>
