<svg width="420" height="290" viewBox="0 0 420 290" fill="none" xmlns="http://www.w3.org/2000/svg">
    <g clip-path="url(#clip0)">
        <path d="M420 0.25647H0.17926V290H420V0.25647Z" fill="#8F6AB4" />
        <path d="M407.995 36.5975H12.184V272.859H407.995V36.5975Z" fill="#7C7C7C" />
        <path d="M419.821 0H0V19.22H419.821V0Z" fill="#2F2E41" />
        <path d="M13.2539 13.3886C15.0796 13.3886 16.5596 11.7937 16.5596 9.82632C16.5596 7.85893 15.0796 6.26404 13.2539 6.26404C11.4282 6.26404 9.94824 7.85893 9.94824 9.82632C9.94824 11.7937 11.4282 13.3886 13.2539 13.3886Z" fill="#75C468" />
        <path d="M25.8015 13.3886C27.6271 13.3886 29.1071 11.7937 29.1071 9.82632C29.1071 7.85893 27.6271 6.26404 25.8015 6.26404C23.9758 6.26404 22.4958 7.85893 22.4958 9.82632C22.4958 11.7937 23.9758 13.3886 25.8015 13.3886Z" fill="#FDD589" />
        <path d="M38.349 13.3886C40.1747 13.3886 41.6547 11.7937 41.6547 9.82632C41.6547 7.85893 40.1747 6.26404 38.349 6.26404C36.5233 6.26404 35.0433 7.85893 35.0433 9.82632C35.0433 11.7937 36.5233 13.3886 38.349 13.3886Z" fill="#E25C5C" />
        <path d="M138.299 56.0299H60.8841V146.538H138.299V56.0299Z" fill="#C9DBD6" />
        <path d="M248.796 56.0299H171.381V146.538H248.796V56.0299Z" fill="#DADADA" />
        <path d="M359.293 56.0299H281.879V146.538H359.293V56.0299Z" fill="#D3AFAF" />
        <path d="M138.299 162.92H60.8841V253.428H138.299V162.92Z" fill="#CECECE" />
        <path d="M248.796 162.92H171.381V253.428H248.796V162.92Z" fill="#E6EFF7" />
        <path d="M359.293 162.92H281.879V253.428H359.293V162.92Z" fill="#E5E7CF" />
        <path d="M90.9545 110.757C98.1818 110.757 104.041 104.444 104.041 96.6553C104.041 88.8671 98.1818 82.5534 90.9545 82.5534C83.7273 82.5534 77.8684 88.8671 77.8684 96.6553C77.8684 104.444 83.7273 110.757 90.9545 110.757Z" fill="#FFB9B9" />
        <path d="M85.8427 107.452C85.8427 107.452 87.4785 115.825 87.4785 116.707C87.4785 117.588 95.2484 121.554 95.2484 121.554L102.2 120.232L104.654 112.3C104.654 112.3 100.565 105.689 100.565 103.045L85.8427 107.452Z" fill="#FFB9B9" />
        <path d="M79.6063 85.2939C79.6063 85.2939 83.7611 75.593 91.7244 77.8317C99.6878 80.0703 104.189 83.4283 104.535 86.7863C104.881 90.1443 104.362 95.1813 104.362 95.1813C104.362 95.1813 103.496 88.2787 97.9566 89.7712C92.4169 91.2636 83.7611 90.1443 83.7611 90.1443L82.3762 103.576C82.3762 103.576 80.8181 101.151 79.0869 102.643C77.3558 104.136 74.0666 88.2787 79.6063 85.2939Z" fill="#2F2E41" />
        <path d="M132.461 143.148L129.192 127.281C127.552 121.992 123.467 117.589 123.467 117.589L103.3 109.946H103.294C103.255 111.867 102.654 113.726 101.577 115.257C100.5 116.789 99.0024 117.915 97.2968 118.475C91.1603 120.674 86.9357 113.263 86.9357 113.263L69.8883 127.281C69.8883 127.281 64.5742 132.133 64.9853 141.387L64.42 146.538H134.033L132.461 143.148Z" fill="#6E917E" />
        <path d="M201.156 117.785C210.966 117.785 218.918 108.688 218.918 97.4663C218.918 86.2446 210.966 77.1477 201.156 77.1477C191.347 77.1477 183.394 86.2446 183.394 97.4663C183.394 108.688 191.347 117.785 201.156 117.785Z" fill="#2F2E41" />
        <path d="M216.916 128.214C222.076 128.214 226.26 123.706 226.26 118.144C226.26 112.583 222.076 108.075 216.916 108.075C211.755 108.075 207.572 112.583 207.572 118.144C207.572 123.706 211.755 128.214 216.916 128.214Z" fill="#2F2E41" />
        <path d="M210.408 104.659L215.414 118.684L202.733 124.438L201.619 121.718L197.727 112.211L210.408 104.659Z" fill="#9F616A" />
        <path d="M200.397 113.829C206.571 113.829 211.576 108.435 211.576 101.782C211.576 95.1282 206.571 89.7344 200.397 89.7344C194.223 89.7344 189.217 95.1282 189.217 101.782C189.217 108.435 194.223 113.829 200.397 113.829Z" fill="#9F616A" />
        <path d="M191.259 100.46C198.286 95.4076 200.386 94.1997 208.44 96.1515L208.923 83.4893L188.11 88.1943L191.259 100.46Z" fill="#2F2E41" />
        <path d="M236.436 129.109L236.128 129.147C236.12 129.135 236.111 129.124 236.102 129.114C234.879 127.796 229.04 125.398 224.687 123.736H224.682C221.917 122.679 219.753 121.92 219.753 121.92L214.491 116.088C213.165 117.694 210.364 118.935 207.701 119.81C205.663 120.474 203.59 121.007 201.493 121.405H201.488L200.398 125.154C200.398 125.154 188.048 135.228 187.051 136.303H187.046V136.314C186.967 136.436 186.934 136.587 186.954 136.735V136.763C186.331 139.978 186.011 143.253 185.998 146.538H239.777V143.137C239.777 138.463 236.436 129.109 236.436 129.109Z" fill="#575A89" />
        <path d="M335.328 146.538H308.737L307.272 130.969L307.185 130.022L307.005 128.145L306.27 120.297L305.35 128.726L303.407 146.538H298.576L298.756 140.994L298.936 135.372L299.013 133.107L300.005 102.292C299.929 97.4086 301.363 92.6368 304.081 88.7284C305.59 86.6115 307.537 84.9037 309.766 83.7412C311.996 82.5787 314.447 81.9936 316.924 82.0325C319.451 82.0237 321.946 82.6456 324.212 83.8496C326.479 85.0535 328.456 86.8069 329.988 88.9721C332.797 92.9197 334.301 97.7661 334.259 102.74L334.717 121.394L335.328 146.538Z" fill="#2F2E41" />
        <path d="M316.924 113.319C323.384 113.319 328.621 107.676 328.621 100.715C328.621 93.7538 323.384 88.1107 316.924 88.1107C310.465 88.1107 305.228 93.7538 305.228 100.715C305.228 107.676 310.465 113.319 316.924 113.319Z" fill="#FBBEBE" />
        <path d="M311.076 109.718C311.076 109.718 314.418 121.872 311.076 125.473C307.734 129.074 306.899 130.425 306.899 130.425L316.507 144.379L333.216 122.322C333.216 122.322 321.519 118.721 324.443 108.818L311.076 109.718Z" fill="#FBBEBE" />
        <path d="M347.159 146.538H337.291L337.127 144.716L336.978 143.032L341.521 142.417L347 141.681L347.061 143.569L347.159 146.538Z" fill="#FBBEBE" />
        <path d="M347.836 143.479C347.836 143.479 346.165 132.225 344.912 127.724C343.659 123.222 342.405 123.222 342.405 123.222H342.405L342.405 123.221C340.93 121.632 337.384 121.349 334.717 121.394C332.846 121.416 331.407 121.593 331.407 121.593L316.508 138.529L309.004 127.779V127.774C308.329 127.83 307.659 127.955 307.005 128.145C306.442 128.299 305.889 128.494 305.35 128.726C303.026 129.797 300.885 131.277 299.013 133.107H299.008C297.929 134.154 297.292 134.924 297.292 134.924C295.639 138.626 294.394 142.524 293.581 146.538H341.326L341.434 144.223V144.218L347.836 143.479Z" fill="#9B5989" />
        <path d="M307.108 98.6892C314.662 94.3004 317.765 94.4862 327.159 98.6892L329.665 92.1088C329.664 90.8698 329.206 89.6819 328.393 88.8058C327.58 87.9296 326.478 87.4368 325.328 87.4354H308.52C307.371 87.4368 306.268 87.9296 305.455 88.8058C304.642 89.6819 304.185 90.8698 304.184 92.1088L307.108 98.6892Z" fill="#2F2E41" />
        <path d="M98.5678 184.827C97.9455 184.772 97.3223 184.922 96.7809 185.257C96.2672 185.729 95.8548 186.316 95.5721 186.976C94.2644 189.451 92.494 191.606 90.3731 193.305C88.8282 194.524 86.8642 196.045 87.1285 198.294C87.268 199.036 87.5225 199.748 87.8815 200.4C89.3066 203.5 93.1956 205.896 92.8131 209.433C94.229 206.879 92.3351 205.616 93.751 203.061C94.4253 201.845 95.5967 200.472 96.6147 201.236C96.9556 201.491 97.1794 201.95 97.5343 202.175C98.3812 202.71 99.2822 201.686 100.032 200.961C102.617 198.46 106.293 199.116 109.51 199.895C111.028 200.263 112.696 200.745 113.594 202.309C114.775 204.366 112.473 206.587 111.891 208.912C111.844 209.11 111.842 209.318 111.885 209.517C111.928 209.716 112.015 209.901 112.139 210.056C112.263 210.211 112.42 210.331 112.597 210.407C112.773 210.482 112.964 210.51 113.153 210.489C114.118 210.386 115.262 210.302 115.319 209.845C116.533 209.892 118.021 209.744 118.541 208.381C118.7 207.842 118.784 207.28 118.791 206.715C118.982 204.426 119.883 202.338 120.481 200.159C121.078 197.98 121.337 195.427 120.33 193.496C119.97 192.853 119.525 192.27 119.009 191.766C113.29 185.802 105.77 184.818 98.5678 184.827Z" fill="#2F2E41" />
        <path d="M94.0569 213.901C94.0569 213.901 95.3008 225.071 90.7399 225.965C86.179 226.859 94.8861 242.05 94.8861 242.05L115.617 244.731L110.642 226.859C110.642 226.859 107.325 225.518 109.398 216.582C111.471 207.646 94.0569 213.901 94.0569 213.901Z" fill="#9F616A" />
        <path d="M103.386 221.274C110.256 221.274 115.825 215.272 115.825 207.869C115.825 200.466 110.256 194.465 103.386 194.465C96.5162 194.465 90.9472 200.466 90.9472 207.869C90.9472 215.272 96.5162 221.274 103.386 221.274Z" fill="#9F616A" />
        <path d="M81.9762 253.428C84.1759 244.107 87.2132 231.552 87.2132 231.552C87.2132 231.552 88.3953 231.812 90.2558 232.105C92.9735 232.542 95.7121 232.81 98.4583 232.909C101.974 233.014 105.674 232.765 108.537 231.696C109.616 231.322 110.624 230.743 111.512 229.984C111.887 229.66 112.222 229.286 112.509 228.871C117.484 221.721 119.556 248.975 119.556 248.975L119.941 253.428L81.9762 253.428Z" fill="#BABABA" />
        <path d="M121.719 282.228C121.555 282.228 121.39 282.233 121.226 282.244L121.462 281.768C121.544 281.918 121.627 282.073 121.719 282.228Z" fill="#FFB8B8" />
        <path d="M99.1738 188.334C98.6724 188.294 98.1702 188.399 97.7191 188.638C97.3112 188.959 96.975 189.374 96.7351 189.853C95.6292 191.646 94.1876 193.17 92.5028 194.326C91.2453 195.188 89.6465 196.263 89.8617 197.852C89.9784 198.385 90.1863 198.89 90.4746 199.341C91.6387 201.554 92.1022 204.116 91.7948 206.638L95.2526 201.222C95.8015 200.362 96.7551 199.392 97.5838 199.932C97.8613 200.112 98.0435 200.437 98.3324 200.595C99.0218 200.974 99.7552 200.25 100.365 199.738C102.47 197.97 105.462 198.433 108.081 198.984C109.317 199.244 110.675 199.585 111.406 200.691C112.62 202.528 111.352 205.182 112.061 207.305C112.259 207.155 112.428 206.964 112.556 206.743C112.685 206.521 112.771 206.275 112.81 206.017C113.798 206.05 115.009 205.945 115.433 204.982C115.562 204.605 115.631 204.206 115.636 203.804C115.792 202.186 116.525 200.71 117.012 199.171C117.498 197.631 117.709 195.826 116.889 194.461C116.589 193.999 116.226 193.587 115.814 193.239C111.158 189.023 105.036 188.328 99.1738 188.334Z" fill="#2F2E41" />
        <path d="M97.9958 231.995C95.1588 228.5 93.4731 223.405 93.396 223.178V223.172C93.396 223.172 88.8733 220.381 87.6296 223.061C86.3859 225.742 74.7759 232.443 73.5322 232.443C73.5223 232.448 73.5119 232.452 73.5014 232.454C73.008 232.632 66.8304 235.052 65.2423 244.063C64.811 247.163 64.5809 250.293 64.5536 253.428H98.3658C98.7153 249.479 98.9774 245.785 99.0802 242.595C99.2292 238.148 99.0853 234.692 98.4583 232.908C98.3581 232.576 98.2012 232.266 97.9958 231.995V231.995Z" fill="#2F2E41" />
        <path d="M127.069 234.509C127.049 234.404 127.033 234.315 127.018 234.232C126.963 233.995 126.869 233.77 126.74 233.568C126.738 233.563 126.736 233.557 126.735 233.551C124.34 229.552 108.938 224.047 108.938 224.047L108.362 226.191C108.362 226.191 108.434 228.306 108.537 231.696C108.639 234.869 108.763 239.156 108.881 243.863C108.963 246.937 109.035 250.194 109.102 253.428H132.142C130.851 247.005 129.156 240.684 127.069 234.509Z" fill="#2F2E41" />
        <path d="M342.637 253.428L344.399 244.146L346.039 243.398L346.049 243.404C346.198 243.465 347.982 244.279 347.982 247.364C347.982 247.984 347.894 250.216 347.75 253.428H342.637Z" fill="#575A89" />
        <path d="M324.121 221.006C332.027 221.006 338.437 214.099 338.437 205.579C338.437 197.059 332.027 190.151 324.121 190.151C316.214 190.151 309.804 197.059 309.804 205.579C309.804 214.099 316.214 221.006 324.121 221.006Z" fill="#FFB8B8" />
        <path d="M333.068 214.578L331.875 240.933L313.383 229.363L315.769 214.578H333.068Z" fill="#FFB8B8" />
        <path d="M338.437 242.218L337.225 253.428H327.516L316.98 231.613L314.01 225.47L312.586 224.468L314.236 224.064L315.536 225.077L330.086 236.436L332.419 228.888L332.481 228.694L333.067 226.794L338.437 242.218Z" fill="#FFDD67" />
        <path d="M315.471 190.473C315.471 190.473 317.261 180.831 327.401 182.759L326.208 183.402C326.208 183.402 335.752 182.116 334.559 187.902C334.559 187.902 342.314 193.044 340.524 198.829C339.472 202.182 338.674 205.622 338.138 209.114L336.349 207.186C336.349 207.186 334.559 194.33 323.822 195.615C315.77 196.58 312.489 200.677 311.65 203.63C311.264 205.019 310.771 206.37 310.176 207.67L309.506 207.829C309.506 207.829 305.927 193.687 315.471 190.473Z" fill="#2F2E41" />
        <path d="M346.049 243.404L346.039 243.398L338.438 235.788V230.649L332.568 225.664L332.481 228.694L331.875 249.291L322.115 234.825L315.536 225.077L314.354 223.333L314.642 221.699L310.998 226.146L297.811 236.808L296.68 237.721C295.383 239.12 294.187 240.623 293.103 242.218C292.748 242.789 291.135 247.33 289.033 253.428H347.75C347.894 250.216 347.982 247.984 347.982 247.364C347.982 244.279 346.198 243.465 346.049 243.404Z" fill="#2F2E41" />
        <path d="M208.911 188.633C199.21 188.633 191.345 198.038 191.345 209.64V224.38H195.552L197.988 218.918L197.379 224.38H224.419L226.633 219.415L226.079 224.38H229.124V212.806C229.124 199.455 220.074 188.633 208.911 188.633Z" fill="#2F2E41" />
        <path d="M194.735 253.428H183.31L183.202 243.387C183.197 243.282 183.197 243.182 183.197 243.077L185.484 240.302L185.525 240.252L194.257 246.212L194.735 253.428Z" fill="#D0CDE1" />
        <path d="M207.356 222.32C214.263 222.32 219.861 216.287 219.861 208.845C219.861 201.402 214.263 195.369 207.356 195.369C200.45 195.369 194.852 201.402 194.852 208.845C194.852 216.287 200.45 222.32 207.356 222.32Z" fill="#FBBEBE" />
        <path d="M200.187 216.93C200.187 216.93 203.855 237.413 202.188 239.569C200.521 241.725 219.861 235.616 219.861 235.616C219.861 235.616 213.526 221.601 216.86 213.696L200.187 216.93Z" fill="#FBBEBE" />
        <path d="M234.113 230.782H234.108C233.813 230.11 233.304 229.576 232.674 229.275C230.222 228.162 228.11 227.309 226.373 226.661C223.3 225.525 219.948 225.637 216.947 226.977C216.654 227.104 216.367 227.243 216.084 227.398C216.084 227.398 203.857 229.907 202.403 229.591C202.295 229.569 202.182 229.552 202.074 229.541C201.854 229.507 201.633 229.487 201.411 229.48C198.566 229.338 195.744 230.092 193.291 231.651C189.277 234.16 183.325 238.608 183.202 242.939L183.089 243.077L183.202 253.428H236.868C236.976 243.509 237.037 236.054 237.037 235.55C237.037 233.983 234.113 230.782 234.113 230.782Z" fill="#73A9E9" />
        <path d="M213.904 194.419C213.059 193.196 211.963 192.199 210.703 191.506C209.442 190.813 208.051 190.442 206.635 190.422H206.291C199.641 190.422 194.251 196.906 194.251 204.904V204.904H196.479L196.839 201.953L197.367 204.904H210.58L211.688 202.407L211.411 204.904H214.01C215.223 211.396 213.48 217.888 208.782 224.38H213.21L215.424 219.386L214.87 224.38H223.312L224.972 212.894C224.972 204.292 220.334 196.998 213.904 194.419Z" fill="#2F2E41" />
        <path d="M216.331 195.629C219.965 195.629 222.91 192.455 222.91 188.539C222.91 184.624 219.965 181.449 216.331 181.449C212.698 181.449 209.752 184.624 209.752 188.539C209.752 192.455 212.698 195.629 216.331 195.629Z" fill="#2F2E41" />
        <path d="M185.025 7.02344L186.652 11.084L188.279 7.02344H189.13V12H188.474V10.062L188.535 7.97021L186.901 12H186.399L184.769 7.98047L184.833 10.062V12H184.177V7.02344H185.025ZM190.876 12H190.244V8.30176H190.876V12ZM190.193 7.3208C190.193 7.21826 190.224 7.13167 190.285 7.06104C190.349 6.9904 190.442 6.95508 190.565 6.95508C190.688 6.95508 190.782 6.9904 190.846 7.06104C190.91 7.13167 190.941 7.21826 190.941 7.3208C190.941 7.42334 190.91 7.50879 190.846 7.57715C190.782 7.64551 190.688 7.67969 190.565 7.67969C190.442 7.67969 190.349 7.64551 190.285 7.57715C190.224 7.50879 190.193 7.42334 190.193 7.3208ZM193.375 11.5522C193.601 11.5522 193.798 11.4839 193.966 11.3472C194.135 11.2104 194.228 11.0396 194.247 10.8345H194.845C194.833 11.0464 194.76 11.248 194.626 11.4395C194.492 11.6309 194.312 11.7835 194.086 11.8975C193.863 12.0114 193.626 12.0684 193.375 12.0684C192.871 12.0684 192.47 11.9009 192.172 11.5659C191.876 11.2287 191.728 10.7684 191.728 10.1851V10.0791C191.728 9.71908 191.794 9.39893 191.926 9.11865C192.058 8.83838 192.247 8.62077 192.493 8.46582C192.742 8.31087 193.034 8.2334 193.372 8.2334C193.786 8.2334 194.13 8.35758 194.404 8.60596C194.68 8.85433 194.826 9.17676 194.845 9.57324H194.247C194.228 9.33398 194.137 9.13802 193.973 8.98535C193.811 8.8304 193.611 8.75293 193.372 8.75293C193.05 8.75293 192.801 8.86914 192.623 9.10156C192.448 9.33171 192.36 9.66553 192.36 10.103V10.2227C192.36 10.6488 192.448 10.9769 192.623 11.207C192.799 11.4372 193.049 11.5522 193.375 11.5522ZM197.343 8.86914C197.248 8.85319 197.144 8.84521 197.032 8.84521C196.618 8.84521 196.336 9.02181 196.188 9.375V12H195.556V8.30176H196.171L196.181 8.729C196.389 8.3986 196.682 8.2334 197.063 8.2334C197.186 8.2334 197.279 8.24935 197.343 8.28125V8.86914ZM197.692 10.1167C197.692 9.75439 197.763 9.42855 197.904 9.13916C198.047 8.84977 198.246 8.62646 198.499 8.46924C198.754 8.31201 199.044 8.2334 199.37 8.2334C199.874 8.2334 200.28 8.40771 200.59 8.75635C200.903 9.10498 201.059 9.56868 201.059 10.1475V10.1919C201.059 10.5519 200.989 10.8755 200.85 11.1626C200.713 11.4474 200.516 11.6696 200.259 11.8291C200.004 11.9886 199.71 12.0684 199.377 12.0684C198.876 12.0684 198.469 11.894 198.157 11.5454C197.847 11.1968 197.692 10.7354 197.692 10.1611V10.1167ZM198.328 10.1919C198.328 10.6021 198.422 10.9313 198.611 11.1797C198.803 11.4281 199.058 11.5522 199.377 11.5522C199.698 11.5522 199.953 11.4269 200.143 11.1763C200.332 10.9233 200.426 10.5701 200.426 10.1167C200.426 9.7111 200.329 9.38298 200.136 9.13232C199.944 8.87939 199.689 8.75293 199.37 8.75293C199.058 8.75293 198.806 8.87712 198.615 9.12549C198.423 9.37386 198.328 9.72933 198.328 10.1919ZM204.005 11.019C204.005 10.8481 203.94 10.716 203.81 10.6226C203.682 10.5269 203.458 10.4448 203.137 10.3765C202.818 10.3081 202.564 10.2261 202.375 10.1304C202.188 10.0347 202.049 9.92074 201.958 9.78857C201.869 9.65641 201.824 9.49919 201.824 9.31689C201.824 9.01383 201.952 8.75749 202.207 8.54785C202.465 8.33822 202.793 8.2334 203.191 8.2334C203.611 8.2334 203.95 8.34163 204.21 8.55811C204.472 8.77458 204.603 9.05143 204.603 9.38867H203.967C203.967 9.21549 203.893 9.06624 203.745 8.94092C203.599 8.81559 203.415 8.75293 203.191 8.75293C202.961 8.75293 202.781 8.80306 202.651 8.90332C202.521 9.00358 202.457 9.1346 202.457 9.29639C202.457 9.44906 202.517 9.56413 202.638 9.6416C202.758 9.71908 202.976 9.79313 203.291 9.86377C203.607 9.93441 203.864 10.0187 204.06 10.1167C204.256 10.2147 204.4 10.3332 204.494 10.4722C204.589 10.6089 204.637 10.7764 204.637 10.9746C204.637 11.305 204.505 11.5705 204.241 11.771C203.976 11.9692 203.633 12.0684 203.212 12.0684C202.916 12.0684 202.654 12.016 202.426 11.9111C202.198 11.8063 202.019 11.6605 201.889 11.4736C201.762 11.2845 201.698 11.0806 201.698 10.8618H202.33C202.341 11.0737 202.426 11.2424 202.583 11.3677C202.743 11.4907 202.952 11.5522 203.212 11.5522C203.451 11.5522 203.643 11.5044 203.786 11.4087C203.932 11.3107 204.005 11.1808 204.005 11.019ZM205.293 10.1167C205.293 9.75439 205.364 9.42855 205.505 9.13916C205.649 8.84977 205.847 8.62646 206.1 8.46924C206.355 8.31201 206.646 8.2334 206.972 8.2334C207.475 8.2334 207.882 8.40771 208.192 8.75635C208.504 9.10498 208.66 9.56868 208.66 10.1475V10.1919C208.66 10.5519 208.591 10.8755 208.452 11.1626C208.315 11.4474 208.118 11.6696 207.86 11.8291C207.605 11.9886 207.311 12.0684 206.979 12.0684C206.477 12.0684 206.07 11.894 205.758 11.5454C205.448 11.1968 205.293 10.7354 205.293 10.1611V10.1167ZM205.929 10.1919C205.929 10.6021 206.024 10.9313 206.213 11.1797C206.404 11.4281 206.66 11.5522 206.979 11.5522C207.3 11.5522 207.555 11.4269 207.744 11.1763C207.933 10.9233 208.028 10.5701 208.028 10.1167C208.028 9.7111 207.931 9.38298 207.737 9.13232C207.546 8.87939 207.291 8.75293 206.972 8.75293C206.66 8.75293 206.408 8.87712 206.216 9.12549C206.025 9.37386 205.929 9.72933 205.929 10.1919ZM209.764 12V8.79053H209.18V8.30176H209.764V7.92236C209.764 7.52588 209.87 7.2194 210.082 7.00293C210.294 6.78646 210.594 6.67822 210.981 6.67822C211.127 6.67822 211.271 6.69759 211.415 6.73633L211.381 7.24902C211.274 7.22852 211.16 7.21826 211.039 7.21826C210.834 7.21826 210.676 7.27865 210.564 7.39941C210.452 7.5179 210.396 7.6888 210.396 7.91211V8.30176H211.186V8.79053H210.396V12H209.764ZM212.745 7.40625V8.30176H213.435V8.79053H212.745V11.084C212.745 11.2321 212.775 11.3438 212.837 11.4189C212.898 11.4919 213.003 11.5283 213.151 11.5283C213.224 11.5283 213.325 11.5146 213.452 11.4873V12C213.286 12.0456 213.124 12.0684 212.967 12.0684C212.684 12.0684 212.471 11.9829 212.328 11.812C212.184 11.6411 212.112 11.3984 212.112 11.084V8.79053H211.439V8.30176H212.112V7.40625H212.745ZM219.314 7.56348H217.714V12H217.062V7.56348H215.465V7.02344H219.314V7.56348ZM221.146 12.0684C220.645 12.0684 220.237 11.9043 219.922 11.5762C219.608 11.2458 219.451 10.8049 219.451 10.2534V10.1372C219.451 9.77035 219.52 9.44336 219.659 9.15625C219.8 8.86686 219.996 8.64128 220.247 8.47949C220.5 8.31543 220.773 8.2334 221.067 8.2334C221.548 8.2334 221.922 8.39176 222.188 8.7085C222.455 9.02523 222.588 9.47868 222.588 10.0688V10.332H220.083C220.092 10.6966 220.198 10.9917 220.401 11.2173C220.606 11.4406 220.866 11.5522 221.18 11.5522C221.403 11.5522 221.593 11.5067 221.748 11.4155C221.903 11.3244 222.038 11.2036 222.154 11.0532L222.541 11.354C222.231 11.8302 221.766 12.0684 221.146 12.0684ZM221.067 8.75293C220.812 8.75293 220.598 8.84635 220.425 9.0332C220.252 9.21777 220.145 9.47754 220.104 9.8125H221.956V9.76465C221.938 9.44336 221.851 9.19499 221.696 9.01953C221.541 8.8418 221.332 8.75293 221.067 8.75293ZM225.606 12C225.57 11.9271 225.54 11.7972 225.518 11.6104C225.224 11.9157 224.873 12.0684 224.465 12.0684C224.1 12.0684 223.801 11.9658 223.566 11.7607C223.333 11.5534 223.217 11.2913 223.217 10.9746C223.217 10.5895 223.363 10.291 223.655 10.0791C223.949 9.86491 224.361 9.75781 224.892 9.75781H225.507V9.46729C225.507 9.24626 225.441 9.0708 225.309 8.94092C225.177 8.80876 224.982 8.74268 224.725 8.74268C224.499 8.74268 224.31 8.79964 224.157 8.91357C224.005 9.02751 223.928 9.16536 223.928 9.32715H223.292C223.292 9.14258 223.357 8.96484 223.487 8.79395C223.619 8.62077 223.797 8.48405 224.021 8.38379C224.246 8.28353 224.493 8.2334 224.762 8.2334C225.188 8.2334 225.522 8.34049 225.764 8.55469C226.005 8.7666 226.131 9.05941 226.14 9.43311V11.1353C226.14 11.4748 226.183 11.7448 226.27 11.9453V12H225.606ZM224.557 11.5181C224.755 11.5181 224.943 11.4668 225.121 11.3643C225.299 11.2617 225.428 11.1284 225.507 10.9644V10.2056H225.012C224.237 10.2056 223.85 10.4323 223.85 10.8857C223.85 11.084 223.916 11.2389 224.048 11.3506C224.18 11.4622 224.35 11.5181 224.557 11.5181ZM227.726 8.30176L227.743 8.71191C228.014 8.3929 228.38 8.2334 228.84 8.2334C229.357 8.2334 229.709 8.43164 229.896 8.82812C230.019 8.65039 230.179 8.50684 230.375 8.39746C230.573 8.28809 230.806 8.2334 231.075 8.2334C231.886 8.2334 232.299 8.66292 232.312 9.52197V12H231.68V9.55957C231.68 9.29525 231.62 9.09814 231.499 8.96826C231.378 8.8361 231.175 8.77002 230.891 8.77002C230.656 8.77002 230.461 8.84066 230.306 8.98193C230.151 9.12093 230.061 9.30892 230.036 9.5459V12H229.4V9.57666C229.4 9.0389 229.137 8.77002 228.611 8.77002C228.196 8.77002 227.912 8.94661 227.76 9.2998V12H227.127V8.30176H227.726ZM235.423 11.019C235.423 10.8481 235.358 10.716 235.228 10.6226C235.1 10.5269 234.876 10.4448 234.555 10.3765C234.236 10.3081 233.982 10.2261 233.792 10.1304C233.606 10.0347 233.467 9.92074 233.375 9.78857C233.287 9.65641 233.242 9.49919 233.242 9.31689C233.242 9.01383 233.37 8.75749 233.625 8.54785C233.882 8.33822 234.211 8.2334 234.609 8.2334C235.029 8.2334 235.368 8.34163 235.628 8.55811C235.89 8.77458 236.021 9.05143 236.021 9.38867H235.385C235.385 9.21549 235.311 9.06624 235.163 8.94092C235.017 8.81559 234.833 8.75293 234.609 8.75293C234.379 8.75293 234.199 8.80306 234.069 8.90332C233.939 9.00358 233.875 9.1346 233.875 9.29639C233.875 9.44906 233.935 9.56413 234.056 9.6416C234.176 9.71908 234.394 9.79313 234.708 9.86377C235.025 9.93441 235.282 10.0187 235.478 10.1167C235.674 10.2147 235.818 10.3332 235.912 10.4722C236.007 10.6089 236.055 10.7764 236.055 10.9746C236.055 11.305 235.923 11.5705 235.659 11.771C235.394 11.9692 235.051 12.0684 234.63 12.0684C234.334 12.0684 234.072 12.016 233.844 11.9111C233.616 11.8063 233.437 11.6605 233.307 11.4736C233.18 11.2845 233.116 11.0806 233.116 10.8618H233.748C233.759 11.0737 233.844 11.2424 234.001 11.3677C234.16 11.4907 234.37 11.5522 234.63 11.5522C234.869 11.5522 235.061 11.5044 235.204 11.4087C235.35 11.3107 235.423 11.1808 235.423 11.019Z" fill="white" />
    </g>
    <defs>
        <clipPath id="clip0">
            <rect width="420" height="290" fill="white" />
        </clipPath>
    </defs>
</svg>
