<svg width="796" height="575" viewBox="0 0 796 575" fill="none" xmlns="http://www.w3.org/2000/svg">
    <path d="M142.266 288.772C148.331 276.008 151.761 264.891 149.928 263.941C148.094 262.991 141.691 272.568 135.626 285.332C129.56 298.096 126.13 309.214 127.964 310.164C129.797 311.114 136.2 301.537 142.266 288.772Z" fill="#CCCCCC" />
    <path d="M449.942 448.327C456.007 435.563 459.914 424.692 458.668 424.047C457.422 423.401 451.495 433.225 445.43 445.99C439.365 458.754 435.458 469.624 436.704 470.27C437.95 470.915 443.877 461.091 449.942 448.327Z" fill="#CCCCCC" />
    <path d="M284.605 383.8L273.174 373.944L241.709 413.732L253.141 423.589L284.605 383.8Z" fill="#F55F44" />
    <path opacity="0.05" d="M258.317 426.763L274.555 430.749L285.865 380.519L269.628 376.533L258.317 426.763Z" fill="black" />
    <path d="M260.123 427.206L274.555 430.749L285.865 380.519L271.434 376.976L260.123 427.206Z" fill="#F55F44" />
    <path d="M150.477 262.785L127.414 311.319L436.181 471.286L459.243 422.753L150.477 262.785Z" fill="url(#paint0_linear)" />
    <path d="M436.73 470.131C430.686 467.104 123.537 307.87 127.964 310.164C145.011 282.995 149.928 263.941 149.928 263.941L458.694 423.908C458.694 423.908 447.851 443.779 436.73 470.131Z" fill="#F5F5F5" />
    <path opacity="0.05" d="M310.398 347.078L284.944 333.891L262.98 380.114L288.433 393.301L310.398 347.078Z" fill="black" />
    <path d="M309.291 346.505L286.051 334.464L264.086 380.687L287.327 392.728L309.291 346.505Z" fill="#F55F44" />
    <path opacity="0.05" d="M304.864 344.211L289.371 336.184L267.406 382.407L282.9 390.434L304.864 344.211Z" fill="black" />
    <path d="M303.758 343.638L290.477 336.758L268.513 382.98L281.793 389.861L303.758 343.638Z" fill="#F55F44" />
    <path d="M301.969 492.72C303.107 492.72 304.029 491.757 304.029 490.569C304.029 489.381 303.107 488.418 301.969 488.418C300.832 488.418 299.909 489.381 299.909 490.569C299.909 491.757 300.832 492.72 301.969 492.72Z" fill="#DBDBDB" />
    <g opacity="0.5">
        <path opacity="0.5" d="M174.804 396.342H172.692V408.839H174.804V396.342Z" fill="#47E6B1" />
        <path opacity="0.5" d="M179.732 403.693V401.488H167.763V403.693H179.732Z" fill="#47E6B1" />
    </g>
    <g opacity="0.5">
        <path opacity="0.5" d="M623.067 274.49H620.955V286.988H623.067V274.49Z" fill="#47E6B1" />
        <path opacity="0.5" d="M627.995 281.842V279.636H616.026V281.842H627.995Z" fill="#47E6B1" />
    </g>
    <g opacity="0.5">
        <path opacity="0.5" d="M171.477 166.374H169.365V178.871H171.477V166.374Z" fill="#47E6B1" />
        <path opacity="0.5" d="M176.405 173.725V171.52H164.436V173.725H176.405Z" fill="#47E6B1" />
    </g>
    <g opacity="0.5">
        <path opacity="0.5" d="M534.702 154.26H532.59V166.757H534.702V154.26Z" fill="#47E6B1" />
        <path opacity="0.5" d="M539.631 161.611V159.406H527.662V161.611H539.631Z" fill="#47E6B1" />
    </g>
    <path opacity="0.5" d="M126.649 262.328C126.067 262.063 125.599 261.585 125.333 260.983C125.067 260.38 125.023 259.697 125.208 259.063C125.238 258.966 125.257 258.866 125.264 258.764V258.764C125.281 258.473 125.208 258.185 125.055 257.941C124.903 257.697 124.68 257.511 124.418 257.411C124.157 257.31 123.871 257.3 123.604 257.382C123.336 257.464 123.101 257.634 122.933 257.866V257.866C122.876 257.948 122.827 258.038 122.79 258.132C122.536 258.74 122.078 259.229 121.501 259.507C120.924 259.784 120.27 259.831 119.663 259.637C119.57 259.606 119.474 259.586 119.376 259.578V259.578C119.098 259.561 118.822 259.637 118.588 259.796C118.355 259.955 118.177 260.189 118.08 260.462C117.984 260.735 117.974 261.033 118.053 261.312C118.131 261.592 118.294 261.837 118.516 262.012V262.012C118.595 262.072 118.681 262.123 118.771 262.162C119.353 262.427 119.822 262.906 120.087 263.508C120.353 264.11 120.398 264.793 120.213 265.427C120.183 265.524 120.164 265.625 120.156 265.726V265.726C120.139 266.017 120.212 266.305 120.365 266.549C120.517 266.793 120.741 266.979 121.002 267.08C121.264 267.18 121.549 267.19 121.817 267.108C122.084 267.026 122.319 266.857 122.487 266.624V266.624C122.545 266.542 122.593 266.452 122.631 266.358C122.884 265.75 123.343 265.261 123.919 264.984C124.496 264.706 125.15 264.66 125.757 264.853C125.85 264.884 125.947 264.904 126.044 264.912V264.912C126.322 264.929 126.599 264.853 126.832 264.694C127.066 264.535 127.244 264.302 127.34 264.028C127.437 263.755 127.446 263.457 127.368 263.178C127.289 262.899 127.127 262.653 126.904 262.478C126.825 262.418 126.74 262.367 126.649 262.328V262.328Z" fill="#4D8AF0" />
    <path opacity="0.5" d="M243.746 139.504C243.164 139.239 242.695 138.76 242.43 138.158C242.164 137.556 242.119 136.873 242.305 136.239C242.335 136.142 242.353 136.041 242.361 135.939V135.939C242.378 135.649 242.305 135.36 242.152 135.117C242 134.873 241.776 134.687 241.515 134.586C241.253 134.485 240.968 134.475 240.7 134.557C240.433 134.639 240.198 134.809 240.03 135.042V135.042C239.972 135.124 239.924 135.213 239.886 135.308C239.633 135.915 239.174 136.405 238.598 136.682C238.021 136.96 237.367 137.006 236.76 136.813C236.667 136.781 236.57 136.762 236.473 136.754V136.754C236.195 136.736 235.918 136.813 235.685 136.972C235.452 137.131 235.273 137.364 235.177 137.637C235.081 137.91 235.071 138.209 235.149 138.488C235.228 138.767 235.391 139.012 235.613 139.188V139.188C235.692 139.248 235.778 139.298 235.868 139.338C236.45 139.602 236.918 140.081 237.184 140.683C237.45 141.285 237.495 141.968 237.309 142.602C237.279 142.7 237.261 142.8 237.253 142.902V142.902C237.236 143.192 237.309 143.481 237.462 143.725C237.614 143.968 237.837 144.154 238.099 144.255C238.361 144.356 238.646 144.366 238.914 144.284C239.181 144.202 239.416 144.032 239.584 143.8C239.642 143.717 239.69 143.628 239.727 143.534C239.981 142.926 240.44 142.437 241.016 142.159C241.593 141.882 242.247 141.835 242.854 142.029C242.947 142.06 243.043 142.08 243.141 142.087V142.087C243.419 142.105 243.696 142.029 243.929 141.87C244.162 141.71 244.34 141.477 244.437 141.204C244.533 140.931 244.543 140.633 244.465 140.353C244.386 140.074 244.223 139.829 244.001 139.654V139.654C243.922 139.593 243.836 139.543 243.746 139.504V139.504Z" fill="#4D8AF0" />
    <path opacity="0.5" d="M357.597 456.165C357.015 455.9 356.546 455.421 356.281 454.819C356.015 454.217 355.97 453.534 356.155 452.9C356.185 452.803 356.204 452.702 356.212 452.6C356.229 452.31 356.155 452.021 356.003 451.778C355.851 451.534 355.627 451.348 355.366 451.247C355.104 451.147 354.819 451.136 354.551 451.218C354.284 451.301 354.049 451.47 353.881 451.703C353.823 451.785 353.775 451.874 353.737 451.969C353.484 452.576 353.025 453.066 352.449 453.343C351.872 453.621 351.218 453.667 350.611 453.474C350.518 453.443 350.421 453.423 350.324 453.415C350.045 453.397 349.769 453.474 349.536 453.633C349.302 453.792 349.124 454.025 349.028 454.298C348.931 454.571 348.922 454.87 349 455.149C349.079 455.428 349.241 455.674 349.464 455.849C349.543 455.909 349.628 455.959 349.719 455.999C350.301 456.263 350.769 456.742 351.035 457.344C351.301 457.946 351.345 458.629 351.16 459.263C351.13 459.361 351.111 459.461 351.104 459.563C351.087 459.854 351.16 460.142 351.312 460.386C351.465 460.63 351.688 460.816 351.95 460.916C352.211 461.017 352.497 461.027 352.764 460.945C353.032 460.863 353.267 460.693 353.435 460.461C353.492 460.378 353.541 460.289 353.578 460.195C353.832 459.587 354.29 459.098 354.867 458.82C355.444 458.543 356.098 458.496 356.705 458.69C356.798 458.721 356.894 458.741 356.992 458.748C357.27 458.766 357.546 458.69 357.78 458.531C358.013 458.372 358.191 458.138 358.288 457.865C358.384 457.592 358.394 457.294 358.315 457.015C358.237 456.735 358.074 456.49 357.852 456.315C357.773 456.254 357.687 456.204 357.597 456.165Z" fill="#4D8AF0" />
    <path opacity="0.5" d="M594.649 372.817C596.982 372.817 598.874 370.842 598.874 368.406C598.874 365.97 596.982 363.995 594.649 363.995C592.316 363.995 590.425 365.97 590.425 368.406C590.425 370.842 592.316 372.817 594.649 372.817Z" fill="#F55F44" />
    <path opacity="0.5" d="M501.715 400.753C504.048 400.753 505.939 398.778 505.939 396.342C505.939 393.906 504.048 391.931 501.715 391.931C499.382 391.931 497.49 393.906 497.49 396.342C497.49 398.778 499.382 400.753 501.715 400.753Z" fill="#4D8AF0" />
    <path opacity="0.5" d="M224.792 444.126C227.125 444.126 229.016 442.152 229.016 439.716C229.016 437.28 227.125 435.305 224.792 435.305C222.459 435.305 220.567 437.28 220.567 439.716C220.567 442.152 222.459 444.126 224.792 444.126Z" fill="#47E6B1" />
    <path opacity="0.5" d="M403.639 106.822C405.972 106.822 407.864 104.847 407.864 102.411C407.864 99.9748 405.972 98 403.639 98C401.306 98 399.415 99.9748 399.415 102.411C399.415 104.847 401.306 106.822 403.639 106.822Z" fill="#F55F44" />
    <path d="M262.253 338.816L245.356 365.281C245.356 365.281 250.988 392.482 375.605 391.746C500.222 391.011 510.079 365.281 510.079 365.281L486.845 329.994L415.736 279.269L262.253 338.816Z" fill="black" />
    <path opacity="0.15" d="M262.253 338.816L245.356 365.281C245.356 365.281 250.988 392.482 375.605 391.746C500.222 391.011 510.079 365.281 510.079 365.281L486.845 329.994L415.736 279.269L262.253 338.816Z" fill="black" />
    <path d="M621.671 240.673L399.895 342.859L129.539 240.673L377.365 123.05L499.018 181.619L503.376 183.721L621.671 240.673Z" fill="black" />
    <path opacity="0.15" d="M621.671 240.673L399.895 342.859L129.539 240.673L377.365 123.05L499.018 181.619L503.376 183.721L621.671 240.673Z" fill="black" />
    <path d="M507.967 265.169L503.742 265.433L499.018 181.619L503.376 183.721L507.967 265.169Z" fill="#C9993D" />
    <path d="M265.069 240.306L245.356 365.281C245.356 365.281 386.87 317.496 510.079 365.281L491.774 232.954C491.774 232.954 326.322 211.635 265.069 240.306Z" fill="#16161C" />
    <path d="M507.615 290.664C518.891 290.664 528.032 284.081 528.032 275.961C528.032 267.84 518.891 261.258 507.615 261.258C496.338 261.258 487.197 267.84 487.197 275.961C487.197 284.081 496.338 290.664 507.615 290.664Z" fill="#C9993D" />
    <defs>
        <linearGradient id="paint0_linear" x1="281.798" y1="391.303" x2="306.502" y2="343.619" gradientUnits="userSpaceOnUse">
            <stop stop-color="#808080" stop-opacity="0.17" />
            <stop offset="0.53514" stop-color="#808080" stop-opacity="0.12" />
            <stop offset="1" stop-color="#808080" stop-opacity="0.1" />
        </linearGradient>
    </defs>
</svg>
