<svg width="698" height="410" viewBox="0 0 698 410" fill="none" xmlns="http://www.w3.org/2000/svg">
    <path d="M616.078 357.134C610.607 376.288 594.632 389.696 577.968 401.086C575.641 402.677 573.314 404.231 570.986 405.748C570.97 405.755 570.954 405.77 570.938 405.777C570.826 405.85 570.714 405.923 570.609 405.996C570.129 406.308 569.648 406.621 569.172 406.93L569.433 407.049C569.433 407.049 569.69 407.187 569.409 407.071C569.325 407.036 569.238 407.004 569.154 406.968C559.474 403.028 549.621 398.798 542.202 391.416C534.507 383.751 530.009 371.729 534.176 361.66C534.724 360.34 535.416 359.087 536.239 357.923C536.577 357.435 536.941 356.968 537.32 356.509C539.619 353.678 542.623 351.516 546.025 350.245C549.426 348.974 553.101 348.64 556.673 349.278C560.244 349.915 563.583 351.501 566.345 353.873C569.108 356.244 571.195 359.316 572.391 362.771C573.616 351.268 564.217 341.632 555.171 334.522C546.122 327.416 535.84 319.677 534.09 308.238C533.114 301.873 535.307 295.705 539.302 290.753C539.425 290.603 539.549 290.453 539.676 290.306C544.54 284.539 551.38 280.836 558.83 279.936C572.706 278.481 586.184 285.893 596.264 295.629C612.489 311.294 622.297 335.356 616.078 357.134Z" fill="#9FBF93" />
    <path d="M304.284 144.001C306.32 144.001 306.742 142.761 307.561 140.694C307.561 138.639 306.32 136.973 304.284 136.973C302.247 136.973 300.597 138.639 300.597 140.694C300.597 142.749 302.247 144.001 304.284 144.001Z" fill="#636363" />
    <path d="M352.984 165.817L305.739 142.455C305.682 142.427 305.665 142.322 305.693 142.163C305.72 142.004 305.79 141.804 305.885 141.607C305.981 141.41 306.095 141.232 306.203 141.113C306.31 140.994 306.403 140.942 306.46 140.97L353.705 164.332C353.761 164.36 353.778 164.465 353.75 164.624C353.723 164.783 353.653 164.983 353.558 165.18C353.462 165.377 353.348 165.555 353.24 165.674C353.133 165.794 353.04 165.845 352.984 165.817Z" fill="black" />
    <path d="M589.996 332.081C592.659 336.262 594.704 340.813 596.065 345.589C597.217 349.859 597.729 354.278 597.586 358.7C597.214 367.801 594.683 376.678 590.204 384.585C586.831 390.584 582.719 396.128 577.968 401.086C575.641 402.677 573.314 404.231 570.986 405.749C570.97 405.756 570.954 405.77 570.938 405.778C570.826 405.85 570.713 405.923 570.609 405.996C570.128 406.309 569.648 406.621 569.171 406.93C569.171 406.93 569.69 407.187 569.409 407.071C569.325 407.036 569.238 407.004 569.154 406.969C570.022 399.79 569.172 392.506 566.675 385.727C564.179 378.948 560.109 372.871 554.806 368.007C549.491 363.216 543.129 359.761 536.239 357.923C536.577 357.435 536.941 356.968 537.32 356.509C539.981 357.262 542.571 358.251 545.059 359.465C553.955 363.776 561.238 370.862 565.832 379.676C569.954 387.679 571.728 396.703 570.946 405.688C571.344 405.324 571.742 404.952 572.128 404.584C579.484 397.663 586.018 389.719 590.44 380.55C594.276 372.785 596.162 364.188 595.93 355.515C595.569 346.058 591.836 337.298 586.43 329.673C580.505 321.537 573.506 314.257 565.626 308.035C557.686 301.617 548.997 296.203 539.753 291.915C539.544 291.817 539.381 291.641 539.297 291.425C539.213 291.209 539.215 290.969 539.302 290.754C539.363 290.561 539.498 290.4 539.676 290.306C539.768 290.267 539.867 290.248 539.967 290.252C540.067 290.257 540.165 290.284 540.253 290.331C541.394 290.861 542.527 291.399 543.652 291.96C553.016 296.631 561.769 302.458 569.71 309.307C577.38 315.906 584.601 323.446 589.996 332.081Z" fill="white" />
    <path d="M349.507 173.309C350.474 174.033 351.587 174.535 352.767 174.778C353.947 175.022 355.166 175.001 356.337 174.718C357.508 174.434 358.604 173.895 359.546 173.139C360.489 172.382 361.255 171.426 361.792 170.338L390.83 174.107L384.144 160.316L357.594 158.85C355.723 158.062 353.63 157.993 351.712 158.657C349.794 159.321 348.184 160.673 347.187 162.455C346.19 164.237 345.876 166.326 346.303 168.327C346.731 170.327 347.871 172.1 349.507 173.309L349.507 173.309Z" fill="#FFB8B8" />
    <path d="M504.155 243.232C504.934 242.304 505.501 241.216 505.817 240.043C506.134 238.87 506.191 237.641 505.986 236.444C505.781 235.246 505.318 234.108 504.63 233.11C503.942 232.112 503.046 231.279 502.005 230.669L507.593 201.665L493.526 207.516L490.376 234.161C489.476 235.995 489.274 238.099 489.808 240.073C490.342 242.047 491.575 243.755 493.274 244.873C494.972 245.991 497.018 246.442 499.024 246.139C501.029 245.837 502.855 244.802 504.155 243.232V243.232Z" fill="#FFB8B8" />
    <path d="M433.642 398.912L423.597 398.911L418.819 359.812L433.643 359.813L433.642 398.912Z" fill="#FFB8B8" />
    <path d="M436.204 408.737L403.816 408.736V408.323C403.816 406.652 404.142 404.998 404.776 403.454C405.409 401.911 406.338 400.508 407.508 399.327C408.679 398.146 410.069 397.209 411.598 396.569C413.128 395.93 414.767 395.601 416.422 395.601H416.423L436.204 395.602L436.204 408.737Z" fill="#2F2E41" />
    <path d="M482.799 398.912L472.755 398.911L467.977 359.812L482.801 359.813L482.799 398.912Z" fill="#FFB8B8" />
    <path d="M485.361 408.737L452.974 408.736V408.323C452.974 406.652 453.3 404.998 453.933 403.454C454.567 401.911 455.495 400.508 456.666 399.327C457.836 398.146 459.226 397.209 460.756 396.569C462.285 395.93 463.924 395.601 465.58 395.601H465.581L485.362 395.602L485.361 408.737Z" fill="#2F2E41" />
    <path d="M434.688 378.495L420.469 377.921C419.499 377.879 418.585 377.453 417.923 376.736C417.261 376.02 416.905 375.069 416.931 374.09L420.937 241.484L421.199 241.388C446.119 232.291 466.734 232.979 484.224 243.489L484.42 243.606L486.82 372.759C486.829 373.253 486.74 373.745 486.559 374.204C486.378 374.664 486.108 375.082 485.765 375.435C485.422 375.788 485.012 376.069 484.56 376.26C484.109 376.451 483.623 376.55 483.133 376.55H471.144C470.29 376.548 469.463 376.248 468.803 375.701C468.143 375.153 467.692 374.392 467.526 373.547L451.193 289.699C451.137 289.409 450.98 289.149 450.75 288.966C450.521 288.782 450.234 288.688 449.942 288.699C449.65 288.709 449.371 288.825 449.155 289.025C448.94 289.225 448.802 289.496 448.767 289.789L438.495 375.226C438.382 376.127 437.948 376.955 437.275 377.557C436.601 378.159 435.733 378.493 434.833 378.497C434.785 378.497 434.736 378.497 434.688 378.495Z" fill="#2F2E41" />
    <path d="M448.521 130.345C459.634 130.345 468.644 121.253 468.644 110.037C468.644 98.8214 459.634 89.7292 448.521 89.7292C437.407 89.7292 428.398 98.8214 428.398 110.037C428.398 121.253 437.407 130.345 448.521 130.345Z" fill="#FFB8B8" />
    <path d="M363.542 169.898C363.309 169.178 363.3 168.403 363.515 167.678L365.521 160.912C365.74 160.18 366.177 159.534 366.772 159.06C367.367 158.587 368.091 158.309 368.848 158.264L395.233 156.775L437.805 134.114C439.286 133.618 440.85 133.421 442.407 133.535C443.964 133.648 445.483 134.071 446.878 134.777C448.273 135.484 449.516 136.462 450.536 137.654C451.557 138.846 452.334 140.229 452.825 141.724C453.315 143.22 453.508 144.798 453.394 146.369C453.279 147.94 452.859 149.473 452.157 150.88C451.455 152.287 450.485 153.54 449.303 154.569C448.12 155.597 446.749 156.38 445.266 156.873L419.197 172.547C411.285 177.305 401.931 179.001 392.873 177.319L366.38 172.404C365.871 172.31 365.387 172.108 364.96 171.812C364.533 171.516 364.173 171.133 363.902 170.687C363.751 170.439 363.63 170.175 363.542 169.898V169.898Z" fill="#4E649B" />
    <path d="M502.921 228.633C502.23 228.929 501.466 229.004 500.731 228.85L493.88 227.412C493.139 227.255 492.463 226.872 491.945 226.314C491.426 225.756 491.09 225.052 490.981 224.295L487.25 197.893L461.23 157.029C460.614 155.582 460.286 154.027 460.265 152.452C460.244 150.877 460.531 149.314 461.109 147.851C461.688 146.388 462.546 145.055 463.635 143.927C464.725 142.799 466.024 141.899 467.458 141.278C468.892 140.657 470.433 140.327 471.994 140.308C473.554 140.288 475.103 140.579 476.552 141.164C478.001 141.749 479.322 142.617 480.439 143.717C481.555 144.817 482.446 146.129 483.06 147.577L500.767 172.446C506.142 179.993 508.618 189.254 507.734 198.505L505.152 225.564C505.102 226.085 504.944 226.588 504.689 227.043C504.433 227.498 504.086 227.893 503.669 228.203C503.438 228.376 503.186 228.52 502.921 228.633V228.633Z" fill="#40527E" />
    <path d="M426.51 140.948C429.967 137.123 434.23 134.13 438.986 132.19C443.741 130.249 448.868 129.411 453.987 129.737C454.324 129.758 454.659 129.782 454.993 129.808H454.993C459.845 130.195 464.559 131.623 468.821 133.997C473.082 136.371 476.792 139.635 479.703 143.572C482.662 147.564 484.743 152.147 485.806 157.016C486.869 161.885 486.89 166.926 485.868 171.804C481.966 190.444 482.954 209.789 488.733 227.925L494.131 244.841C494.304 245.384 494.351 245.958 494.27 246.522C494.188 247.085 493.979 247.622 493.659 248.091C493.339 248.561 492.916 248.949 492.424 249.228C491.932 249.506 491.383 249.666 490.819 249.697L463.221 251.194L456.159 238.883V251.577L422.616 253.397C422.549 253.401 422.483 253.403 422.417 253.403C421.908 253.403 421.404 253.296 420.938 253.09C420.472 252.884 420.053 252.582 419.708 252.205C419.363 251.827 419.099 251.382 418.933 250.896C418.767 250.41 418.702 249.895 418.743 249.383L422.534 201.938L417.779 169.715C417.009 164.566 417.394 159.309 418.905 154.33C420.416 149.352 423.015 144.779 426.51 140.948V140.948Z" fill="#4E649B" />
    <path d="M462.506 128.393C460.643 129.475 453.279 130.192 452.754 128.088L452.743 128.042C452.378 126.501 452.681 124.891 452.786 123.31C452.89 121.729 452.737 119.992 451.67 118.829C449.681 116.662 446.142 117.811 443.265 117.263C441.58 116.883 440.09 115.897 439.074 114.489C438.057 113.081 437.584 111.347 437.743 109.612C437.784 109.284 437.848 108.955 437.92 108.626C438.1 107.793 438.086 106.929 437.88 106.102C437.673 105.275 437.279 104.508 436.73 103.86C436.18 103.213 435.489 102.703 434.711 102.37C433.932 102.038 433.089 101.892 432.245 101.944C429.338 102.112 426.2 103.001 423.795 100.828C421.935 99.1473 421.482 94.7733 422.299 92.3929C423.672 88.3924 432.469 86.2981 436.31 85.1468C441.061 83.7616 446.058 83.4622 450.937 84.2702C455.817 85.0782 460.456 86.9734 464.519 89.818C466.945 91.5438 469.211 93.7123 470.245 96.5201C471.279 99.3279 470.78 102.87 468.448 104.724C470.256 106.655 471.529 109.032 472.139 111.616C472.75 114.2 472.677 116.9 471.927 119.447C470.776 123.192 465.279 126.782 462.506 128.393Z" fill="#2F2E41" />
    <path d="M280.933 184.102H99.8683C99.651 184.102 99.4426 184.015 99.289 183.86C99.1353 183.705 99.049 183.495 99.049 183.275C99.049 183.056 99.1353 182.846 99.289 182.691C99.4426 182.536 99.651 182.449 99.8683 182.449H280.933C281.151 182.449 281.359 182.536 281.513 182.691C281.666 182.846 281.753 183.056 281.753 183.275C281.753 183.495 281.666 183.705 281.513 183.86C281.359 184.015 281.151 184.102 280.933 184.102Z" fill="black" />
    <path d="M241.278 184.102H138.376C138.158 184.102 137.95 184.015 137.796 183.86C137.643 183.705 137.556 183.495 137.556 183.275C137.556 183.056 137.643 182.846 137.796 182.691C137.95 182.536 138.158 182.449 138.376 182.449H241.278C241.496 182.449 241.704 182.536 241.858 182.691C242.011 182.846 242.098 183.056 242.098 183.275C242.098 183.495 242.011 183.705 241.858 183.86C241.704 184.015 241.496 184.102 241.278 184.102Z" fill="#3F3D56" />
    <path d="M190.811 184.103C190.593 184.103 190.385 184.015 190.231 183.86C190.078 183.705 189.991 183.495 189.991 183.276V131.186C189.991 130.966 190.078 130.756 190.231 130.601C190.385 130.446 190.593 130.359 190.811 130.359C191.028 130.359 191.236 130.446 191.39 130.601C191.544 130.756 191.63 130.966 191.63 131.186V183.276C191.63 183.495 191.544 183.705 191.39 183.86C191.236 184.015 191.028 184.103 190.811 184.103V184.103Z" fill="#3F3D56" />
    <path d="M242.427 184.102C242.209 184.102 242.001 184.015 241.847 183.86C241.694 183.705 241.607 183.495 241.607 183.275V79.0948C241.607 78.8755 241.694 78.6652 241.847 78.5102C242.001 78.3551 242.209 78.268 242.427 78.268C242.644 78.268 242.852 78.3551 243.006 78.5102C243.16 78.6652 243.246 78.8755 243.246 79.0948V183.275C243.246 183.495 243.16 183.705 243.006 183.86C242.852 184.015 242.644 184.102 242.427 184.102V184.102Z" fill="#3F3D56" />
    <path d="M72.0123 88.1902C76.9896 88.1902 81.0246 84.1182 81.0246 79.0951C81.0246 74.072 76.9896 70 72.0123 70C67.0349 70 63 74.072 63 79.0951C63 84.1182 67.0349 88.1902 72.0123 88.1902Z" fill="#79BD36" />
    <path d="M72.0123 140.28C76.9896 140.28 81.0246 136.208 81.0246 131.185C81.0246 126.162 76.9896 122.09 72.0123 122.09C67.0349 122.09 63 126.162 63 131.185C63 136.208 67.0349 140.28 72.0123 140.28Z" fill="#79BD36" />
    <path d="M72.0123 192.371C76.9896 192.371 81.0246 188.299 81.0246 183.276C81.0246 178.253 76.9896 174.18 72.0123 174.18C67.0349 174.18 63 178.253 63 183.276C63 188.299 67.0349 192.371 72.0123 192.371Z" fill="#79BD36" />
    <path d="M280.933 79.9217H99.8683C99.651 79.9217 99.4426 79.8345 99.289 79.6795C99.1353 79.5244 99.049 79.3141 99.049 79.0948C99.049 78.8755 99.1353 78.6652 99.289 78.5102C99.4426 78.3551 99.651 78.268 99.8683 78.268H280.933C281.151 78.268 281.359 78.3551 281.513 78.5102C281.666 78.6652 281.753 78.8755 281.753 79.0948C281.753 79.3141 281.666 79.5244 281.513 79.6795C281.359 79.8345 281.151 79.9217 280.933 79.9217Z" fill="black" />
    <path d="M280.933 132.012H99.8683C99.651 132.012 99.4426 131.925 99.289 131.77C99.1353 131.615 99.049 131.405 99.049 131.186C99.049 130.966 99.1353 130.756 99.289 130.601C99.4426 130.446 99.651 130.359 99.8683 130.359H280.933C281.151 130.359 281.359 130.446 281.513 130.601C281.666 130.756 281.753 130.966 281.753 131.186C281.753 131.405 281.666 131.615 281.513 131.77C281.359 131.925 281.151 132.012 280.933 132.012Z" fill="black" />
    <path d="M138.785 192.371C143.762 192.371 147.797 188.299 147.797 183.276C147.797 178.253 143.762 174.18 138.785 174.18C133.808 174.18 129.773 178.253 129.773 183.276C129.773 188.299 133.808 192.371 138.785 192.371Z" fill="#B40000" />
    <path d="M190.811 140.28C195.788 140.28 199.823 136.208 199.823 131.185C199.823 126.162 195.788 122.09 190.811 122.09C185.833 122.09 181.798 126.162 181.798 131.185C181.798 136.208 185.833 140.28 190.811 140.28Z" fill="#B40000" />
    <path d="M190.811 192.371C195.788 192.371 199.823 188.299 199.823 183.276C199.823 178.253 195.788 174.18 190.811 174.18C185.833 174.18 181.798 178.253 181.798 183.276C181.798 188.299 185.833 192.371 190.811 192.371Z" fill="#016AA6" />
    <path d="M242.426 88.1902C247.403 88.1902 251.438 84.1182 251.438 79.0951C251.438 74.072 247.403 70 242.426 70C237.449 70 233.414 74.072 233.414 79.0951C233.414 84.1182 237.449 88.1902 242.426 88.1902Z" fill="#B40000" />
    <path d="M242.426 140.28C247.403 140.28 251.438 136.208 251.438 131.185C251.438 126.162 247.403 122.09 242.426 122.09C237.449 122.09 233.414 126.162 233.414 131.185C233.414 136.208 237.449 140.28 242.426 140.28Z" fill="#016AA6" />
    <path d="M242.426 192.371C247.403 192.371 251.438 188.299 251.438 183.276C251.438 178.253 247.403 174.18 242.426 174.18C237.449 174.18 233.414 178.253 233.414 183.276C233.414 188.299 237.449 192.371 242.426 192.371Z" fill="#016AA6" />
    <path d="M633.461 409H273.789C273.571 409 273.363 408.913 273.209 408.758C273.056 408.603 272.969 408.392 272.969 408.173C272.969 407.954 273.056 407.744 273.209 407.588C273.363 407.433 273.571 407.346 273.789 407.346H633.461C633.678 407.346 633.886 407.433 634.04 407.588C634.194 407.744 634.28 407.954 634.28 408.173C634.28 408.392 634.194 408.603 634.04 408.758C633.886 408.913 633.678 409 633.461 409Z" fill="#3F3D56" />
    <path d="M329.272 335.455C328.729 335.427 328.183 335.412 327.633 335.412C319.376 335.412 311.457 338.722 305.619 344.614C299.78 350.507 296.5 358.498 296.5 366.831H329.272V335.455Z" fill="#FFDD67" />
    <path d="M335.827 409C327.355 408.99 319.233 405.59 313.243 399.545C307.253 393.499 303.884 385.303 303.874 376.754C303.874 376.534 303.96 376.324 304.114 376.169C304.268 376.014 304.476 375.927 304.693 375.927H336.646V345.378C336.646 345.266 336.669 345.155 336.712 345.051C336.756 344.948 336.82 344.855 336.901 344.778C336.981 344.7 337.076 344.64 337.181 344.601C337.285 344.562 337.397 344.545 337.508 344.552C345.825 344.994 353.642 348.696 359.295 354.87C364.947 361.043 367.987 369.2 367.768 377.602C367.549 386.005 364.088 393.989 358.121 399.853C352.155 405.718 344.155 409 335.827 409V409ZM305.524 377.58C305.682 383.488 307.533 389.223 310.852 394.092C314.171 398.961 318.816 402.755 324.226 405.017C329.636 407.278 335.58 407.91 341.338 406.836C347.096 405.761 352.423 403.027 356.674 398.962C360.925 394.898 363.919 389.678 365.294 383.934C366.668 378.189 366.365 372.165 364.42 366.591C362.475 361.017 358.971 356.131 354.333 352.523C349.695 348.915 344.121 346.74 338.285 346.261V376.754C338.285 376.973 338.198 377.183 338.045 377.338C337.891 377.493 337.683 377.58 337.465 377.58H305.524Z" fill="#3F3D56" />
</svg>
