<svg width="1031" height="730" viewBox="0 0 1031 730" fill="none" xmlns="http://www.w3.org/2000/svg">
    <path opacity="0.1" d="M753 569C845.784 569 921 554.673 921 537C921 519.327 845.784 505 753 505C660.216 505 585 519.327 585 537C585 554.673 660.216 569 753 569Z" fill="#888888" />
    <g opacity="0.5">
        <path opacity="0.5" d="M609.19 160.899C606.926 161.532 604.155 163.18 602.789 167.686C600.112 176.519 606.331 182.525 604.282 191.733C603.713 194.176 602.631 196.474 601.105 198.481C598.604 201.816 595.888 203.393 593.251 205.729C589.907 208.712 587.51 212.582 586.35 216.873C585.078 221.61 584.972 226.576 586.04 231.361C586.977 235.359 588.573 238.273 589.971 241.514C591.709 245.648 593.067 249.926 594.029 254.299C594.557 256.428 594.856 258.606 594.919 260.796C594.879 263.707 594.614 266.61 594.125 269.481L590.321 295.582C589.743 298.994 589.395 302.441 589.28 305.899C589.33 309.364 589.737 312.816 590.495 316.2C591.829 323.104 593.267 330.258 596.324 333.913C599.382 337.568 604.591 336.256 607.792 328.86C610.833 321.784 610.905 312.342 613.589 304.782C617.822 292.872 626.232 291.271 630.902 279.907C635.381 268.973 634.007 255.634 636.278 243.201C637.866 234.289 641.369 226.167 643.425 217.365C646.38 204.69 646.086 191.53 643.727 181.783C641.933 173.775 638.053 166.363 632.466 160.275C630.489 158.127 628.368 156.214 625.883 156.018C623.238 155.815 620.927 159.088 618.314 160.072C615.297 161.235 612.263 160.04 609.19 160.899Z" fill="#596700" />
        <path opacity="0.5" d="M623.508 156.682C623.508 156.682 619.029 269.411 600.192 335.881" stroke="#535461" stroke-width="2" stroke-miterlimit="10" />
        <path opacity="0.5" d="M602.678 168.217C602.678 168.217 622.809 186.243 618.989 220.544" stroke="#535461" stroke-width="2" stroke-miterlimit="10" />
        <path opacity="0.5" d="M585.786 219.513C585.786 219.513 618.831 226.05 616.377 245.489" stroke="#535461" stroke-width="2" stroke-miterlimit="10" />
        <path opacity="0.5" d="M643.783 181.549C643.783 181.549 630.409 193.061 618.497 225.667" stroke="#535461" stroke-width="2" stroke-miterlimit="10" />
        <path opacity="0.5" d="M630.719 280.095C630.719 280.095 621.594 287.124 614.272 262.515" stroke="#535461" stroke-width="2" stroke-miterlimit="10" />
        <path opacity="0.5" d="M591.345 294.473C591.345 294.473 609.952 292.083 611.667 280.626" stroke="#535461" stroke-width="2" stroke-miterlimit="10" />
    </g>
    <path d="M653.789 85.2036C649.178 85.8756 643.629 87.9774 641.348 94.4548C636.872 107.16 650.474 116.778 647.342 130.053C646.407 133.706 644.439 137.025 641.666 139.625C636.896 144.242 631.442 146.258 626.274 149.391C621.107 152.525 615.741 157.455 613.316 165.018C610.987 172.293 611.996 180.325 614.421 186.326C616.846 192.326 620.511 196.804 623.786 201.742C627.766 207.82 631.094 214.288 633.716 221.041C635.038 224.119 635.926 227.36 636.355 230.675C636.776 234.738 636.244 239.106 635.711 243.38L630.981 281.463C630.353 286.526 629.717 291.667 630.074 296.543C630.48 302.16 632.173 307.067 633.843 311.857C637.436 322.186 641.284 332.953 648.065 338.642C654.847 344.33 665.484 343.111 671.216 332.531C676.669 322.46 675.668 308.56 680.318 297.738C687.648 280.681 704.884 279.298 713.176 263.109C721.125 247.575 716.681 227.706 719.877 209.657C722.167 196.725 728.368 185.161 731.548 172.433C736.135 154.095 733.933 134.679 727.875 120.083C721.817 105.487 712.237 95.0799 701.958 87.0867C697.602 83.6878 692.983 80.6171 687.807 80.0546C682.306 79.4529 677.909 84.0004 672.623 85.1489C666.469 86.4069 660.046 84.2895 653.789 85.2036Z" fill="#B4C839" />
    <path d="M683.792 81C683.792 81 688.15 246.371 657 342" stroke="#535461" stroke-width="2" stroke-miterlimit="10" />
    <path d="M642 95C642 95 685.501 123.895 681.773 174" stroke="#535461" stroke-width="2" stroke-miterlimit="10" />
    <path d="M613 169C613 169 681.632 182.54 678.922 211" stroke="#535461" stroke-width="2" stroke-miterlimit="10" />
    <path d="M728 120C728 120 701.709 135.389 681 182" stroke="#535461" stroke-width="2" stroke-miterlimit="10" />
    <path d="M713 262.979C713 262.979 695.051 272.07 677 236" stroke="#535461" stroke-width="2" stroke-miterlimit="10" />
    <path d="M633 280C633 280 671.792 278.651 674 262" stroke="#535461" stroke-width="2" stroke-miterlimit="10" />
    <path d="M159.176 532C159.176 532 165.781 540.531 156.126 553.327C146.47 566.123 138.494 576.996 141.733 585C141.733 585 156.299 561.168 168.154 560.834C180.008 560.501 172.221 546.332 159.176 532Z" fill="#509668" />
    <path opacity="0.1" d="M159.426 532C160.004 532.82 160.462 533.718 160.787 534.668C172.141 548.038 178.181 560.516 167.276 560.834C157.113 561.129 144.924 579.346 142 583.953C142.096 584.308 142.213 584.658 142.348 585C142.348 585 156.641 561.168 168.274 560.834C179.906 560.501 172.226 546.332 159.426 532Z" fill="black" />
    <path d="M172 542.816C172 545.674 171.57 548 171 548C170.43 548 170 545.682 170 542.816C170 539.95 170.54 541.335 171.07 541.335C171.6 541.335 172 539.957 172 542.816Z" fill="#FF3737" />
    <path d="M176.334 546.011C173.597 547.42 171.216 548.296 171.014 547.908C170.812 547.519 172.855 546.118 175.592 544.716C178.329 543.315 177.247 544.336 177.457 544.716C177.667 545.097 179.063 544.602 176.334 546.011Z" fill="#FF3737" />
    <path d="M124.278 532C124.278 532 117.472 540.532 127.42 553.33C137.369 566.128 145.571 576.995 142.25 585C142.25 585 127.242 561.164 115.028 560.831C102.813 560.497 110.821 546.334 124.278 532Z" fill="#509668" />
    <path opacity="0.1" d="M123.998 532C123.416 532.822 122.957 533.72 122.635 534.668C110.931 548.038 104.705 560.516 115.946 560.834C126.422 561.129 138.986 579.346 142 583.953C141.901 584.308 141.781 584.658 141.641 585C141.641 585 126.908 561.168 114.917 560.834C102.927 560.501 110.788 546.332 123.998 532Z" fill="black" />
    <path d="M112 542.816C112 545.674 112.215 548 112.5 548C112.785 548 113 545.682 113 542.816C113 539.95 112.73 541.335 112.465 541.335C112.2 541.335 112 539.957 112 542.816Z" fill="#FF3737" />
    <path d="M107.666 546.011C110.403 547.42 112.784 548.296 112.986 547.908C113.188 547.519 111.145 546.118 108.408 544.716C105.671 543.315 106.753 544.336 106.543 544.716C106.333 545.097 104.937 544.602 107.666 546.011Z" fill="#FF3737" />
    <path d="M114 584.014C114 584.014 132.543 583.444 138.13 579.464C143.718 575.484 166.621 570.76 168.038 577.09C169.455 583.42 195.904 608.828 174.971 608.994C154.038 609.16 126.33 605.734 120.751 602.34C115.171 598.945 114 584.014 114 584.014Z" fill="#A8A8A8" />
    <path opacity="0.2" d="M175.35 606.795C154.414 606.961 126.704 603.536 121.124 600.143C116.873 597.557 115.179 588.279 114.617 584H114C114 584 115.171 598.949 120.752 602.342C126.332 605.735 154.042 609.168 174.978 608.994C181.025 608.946 183.107 606.795 182.996 603.615C182.157 605.561 179.854 606.763 175.35 606.795Z" fill="black" />
    <path d="M885.923 528.194C887.348 527.049 888.386 525.504 888.901 523.764C889.289 522.002 888.527 519.894 886.817 519.25C884.905 518.53 882.86 519.833 881.313 521.159C879.766 522.484 877.986 523.987 875.957 523.703C876.999 522.771 877.78 521.589 878.221 520.271C878.663 518.953 878.75 517.545 878.475 516.184C878.388 515.62 878.146 515.09 877.776 514.652C876.711 513.533 874.79 514.015 873.516 514.897C869.473 517.702 868.346 523.113 868.322 527.988C867.918 526.232 868.26 524.401 868.245 522.622C868.229 520.844 867.732 518.79 866.192 517.855C865.238 517.35 864.166 517.099 863.083 517.127C861.263 517.058 859.242 517.242 857.998 518.553C856.444 520.178 856.856 522.914 858.2 524.684C859.545 526.455 861.582 527.597 863.464 528.838C864.971 529.722 866.258 530.93 867.226 532.372C867.34 532.571 867.434 532.782 867.506 533H878.895C881.447 531.718 883.811 530.102 885.923 528.194Z" fill="#509668" />
    <path opacity="0.1" d="M222.809 454.973C248.068 486.6 238.257 532.806 222.205 569.803C216.831 582.193 210.75 595.302 213.021 608.583C215.791 624.826 230.485 636.724 245.98 642.977C274.161 654.452 307.899 651.717 333.786 635.856C356.164 622.145 372.192 599.851 394.951 586.766C433.055 564.879 481.526 573.141 522.884 588.22C552.145 598.89 584.136 612.773 613.215 601.618C633.672 593.801 647.818 574.673 655.526 554.428C659.249 544.649 661.948 534.104 669.021 526.287C673.244 521.683 678.753 518.407 684.405 515.656C736.004 490.478 801.098 503.93 851.173 476.04C884.998 457.185 906.654 421.611 916.267 384.52C925.881 347.429 924.737 308.532 922.3 270.338C920.57 243.19 917.466 214.213 899.851 193.256C881.22 171.095 849.236 162.848 820.333 167.062C791.429 171.275 765.217 186.361 742.196 204.043C713.388 226.142 686.676 253.665 651.302 262.623C627.218 268.72 601.879 265.382 577.032 264.233C535.498 262.303 493.957 266.578 452.654 271.269C413.114 275.771 373.271 280.727 335.62 293.39C308.963 302.356 287.593 318.623 262.421 329.989C246.012 337.399 228.119 339.447 212.592 348.882C193.453 360.506 175.917 380.728 180.839 404.382C185.459 426.903 209.393 438.19 222.809 454.973Z" fill="#896A00" />
    <path opacity="0.1" d="M544.5 455C732.001 455 884 440.673 884 423C884 405.327 732.001 391 544.5 391C356.999 391 205 405.327 205 423C205 440.673 356.999 455 544.5 455Z" fill="#9A9996" />
    <path opacity="0.1" d="M283.5 640C376.008 640 451 625.673 451 608C451 590.327 376.008 576 283.5 576C190.992 576 116 590.327 116 608C116 625.673 190.992 640 283.5 640Z" fill="#383731" />
    <path d="M455.584 413L453 416.689C453 416.689 455.815 420.378 456.085 420.841C456.355 421.303 464.298 420.613 464.298 420.613L465 417.848L463.828 414.621L455.584 413Z" fill="#E6E6F0" />
    <path d="M365.618 411L360 411.974L363.572 418.598L367.405 420.553L370.977 423L372 420.312L369.442 415.161L365.618 411Z" fill="#FDC2CC" />
    <path d="M452.933 349.175C452.933 349.175 481.471 355.829 486.831 363.233C486.831 363.233 491.711 367.278 486.831 374.643C481.952 382.008 475.126 398.658 475.126 398.658C475.126 398.658 470.247 414.825 468.3 416.012C466.353 417.199 455.128 418.152 454.151 413.669C454.151 413.669 460.488 403.922 460.488 399.4C460.488 394.878 470.976 373.487 470.976 373.487C470.976 373.487 447.076 370.871 439.513 372.534C431.95 374.198 442.934 346.559 452.933 349.175Z" fill="#565171" />
    <path opacity="0.1" d="M452.933 349.175C452.933 349.175 481.471 355.829 486.831 363.233C486.831 363.233 491.711 367.278 486.831 374.643C481.952 382.008 475.126 398.658 475.126 398.658C475.126 398.658 470.247 414.825 468.3 416.012C466.353 417.199 455.128 418.152 454.151 413.669C454.151 413.669 460.488 403.922 460.488 399.4C460.488 394.878 470.976 373.487 470.976 373.487C470.976 373.487 447.076 370.871 439.513 372.534C431.95 374.198 442.934 346.559 452.933 349.175Z" fill="black" />
    <path d="M447 355.371C446.945 356.751 446.794 358.303 446.58 359.971C445.035 372.058 440.002 390.032 440.002 390.032C440.002 390.032 434.938 400.715 433.488 407.6C432.037 414.485 422.147 416.177 422.147 416.177C422.147 416.177 395.122 419.296 389.574 418.08C384.027 416.864 375.309 421.644 370.998 420.926C366.687 420.209 364 410.243 364 410.243C371.483 410.287 378.888 408.75 385.715 405.736C396.81 400.753 412.74 403.124 412.74 403.124C413.928 402.785 415.033 402.21 415.987 401.435C416.941 400.659 417.724 399.701 418.287 398.617C419.975 395.053 419.975 373.454 419.492 372.027C416.322 362.669 416.583 356.665 417.495 353.164C417.8 351.635 418.486 350.204 419.492 349L447 355.371Z" fill="#565171" />
    <path opacity="0.1" d="M447 355.353C446.944 356.72 446.79 358.258 446.572 359.912C444.104 360.098 437.183 360.275 432.052 357.238C427.212 354.394 420.17 353.428 417 353.127C417.311 351.611 418.009 350.193 419.033 349L447 355.353Z" fill="black" />
    <path d="M450.041 352.132C448.93 355.214 447.223 358.827 447.223 358.827C447.223 358.827 438.407 359.998 432.206 356.246C426.006 352.494 416 352.024 416 352.024C417.621 351.046 418.717 348.072 419.398 345.468C419.778 343.996 420.076 342.504 420.29 341C420.29 341 449.603 346.863 450.824 347.803C451.278 348.172 450.793 350.037 450.041 352.132Z" fill="#E6E6F0" />
    <path d="M503.258 252.571L467.547 273.885L464 276V265.588L466.462 264.422L496.558 250.199C496.558 250.199 497.997 224.399 501.827 228.427C505.657 232.455 503.258 252.571 503.258 252.571Z" fill="#FDC2CC" />
    <path opacity="0.1" d="M467 273.808L464 276V265.209L466.082 264C466.22 267.289 466.526 270.565 467 273.808Z" fill="black" />
    <path d="M439 277.654L465.53 263C465.53 263 466.027 277.188 469 279.308C469 279.308 458.093 282.415 453.874 289L439 277.654Z" fill="#B45181" />
    <path opacity="0.1" d="M439 277.654L465.53 263C465.53 263 466.027 277.188 469 279.308C469 279.308 458.093 282.415 453.874 289L439 277.654Z" fill="black" />
    <path d="M502.647 290.039C502.647 290.039 490.61 295.364 482.638 297.321C480.843 297.87 478.967 298.089 477.097 297.967C471.657 297.005 478.519 290.078 478.519 290.078L481.379 289.629L496.734 287.199C496.734 287.199 498.389 263.185 501.225 265.11C504.062 267.035 502.647 290.039 502.647 290.039Z" fill="#FDC2CC" />
    <path d="M451 268.885C451 268.885 440.838 276.442 444.618 285.893C448.399 295.343 425 280.221 425 280.221C425 280.221 432.562 268.885 434.215 260.381C435.869 251.877 451 268.885 451 268.885Z" fill="#FDC2CC" />
    <path opacity="0.1" d="M450.026 353C445.537 351.229 440.845 350.084 436.071 349.595C429.094 348.765 422.703 347.361 419 345.817C419.385 344.23 419.687 342.622 419.904 341C419.904 341 449.59 347.32 450.827 348.333C451.279 348.731 450.787 350.741 450.026 353Z" fill="black" />
    <path opacity="0.1" d="M482.54 297.351C480.769 297.876 478.916 298.085 477.07 297.969C471.7 297.049 478.474 290.43 478.474 290.43L481.297 290C482.478 291.787 483.683 294.576 482.54 297.351Z" fill="black" />
    <path d="M434.141 273.006C434.141 273.006 424.787 272.771 421.43 276.593C418.073 280.415 418.79 290.72 418.79 290.72C418.79 290.72 418.088 311.353 423.345 322.898C423.518 323.27 423.538 323.696 423.4 324.083C423.345 324.224 423.345 324.138 423.345 324.138C423.345 324.138 419.988 339.19 416.631 341.82C413.273 344.449 423.826 347.557 436.332 348.985C448.839 350.413 453.843 354 453.843 354C453.843 354 456.002 351.646 456.207 346.356C456.412 341.066 452.873 302.633 452.873 302.633C452.873 302.633 466.066 305.977 473.986 301.919C473.986 301.919 477.587 303.834 480.944 298.576C484.301 293.318 478.58 287.588 478.58 287.588C478.58 287.588 473.3 292.847 458.666 285.917C444.031 278.987 438.688 272.771 434.141 273.006Z" fill="#B45181" />
    <path d="M361.806 411H359V415.344L361.806 422.237C361.806 422.237 365.549 423 365.788 423C366.026 423 369.062 422.237 369.062 422.237L370 420.451C370 420.451 359.7 416.099 361.806 411Z" fill="#E6E6F0" />
    <path d="M452.349 415.399L448 424.922L466.366 433.523L480.866 434C480.866 434 482.073 430.669 477.239 429.004L473.374 428.292C473.374 428.292 468.302 419.246 467.818 415C467.818 415 462.985 415.954 462.262 419.519C462.254 419.441 455.492 422.772 452.349 415.399Z" fill="#B45181" />
    <path d="M360.015 410L358.53 411.207L352 416.529L367.064 436.387C367.064 436.387 375.566 440.017 379.461 436.387C379.461 436.387 381.856 434.004 376.547 432.034C376.547 432.034 372.412 432.757 372.412 428.65C372.412 424.544 373.386 420.191 374.807 419.222C374.807 419.222 371.159 418.015 370.193 418.984C369.45 419.798 368.797 420.691 368.245 421.644C368.245 421.644 359.528 418.221 360.015 410Z" fill="#B45181" />
    <path opacity="0.1" d="M433.015 260.472C432.758 261.716 432.419 262.942 432 264.144C433.315 267.208 435.812 269.654 438.961 270.964C442.109 272.274 445.661 272.344 448.862 271.159C449.53 270.493 450.244 269.871 451 269.299C451 269.299 434.787 251.644 433.015 260.472Z" fill="black" />
    <path opacity="0.1" d="M432 292C432 292 439.343 301.758 450 302Z" fill="black" />
    <g opacity="0.1">
        <path opacity="0.1" d="M476.924 301.939C476.771 301.897 476.622 301.842 476.479 301.775C476.246 301.895 476.008 302.007 475.764 302.111C476.157 302.104 476.546 302.046 476.924 301.939Z" fill="black" />
        <path opacity="0.1" d="M479.497 288.49C479.234 288.158 478.953 287.84 478.655 287.538C478.655 287.538 477.067 289.1 473.143 289.396C475.305 289.607 477.485 289.296 479.497 288.49V288.49Z" fill="black" />
        <path opacity="0.1" d="M455.204 302.486L455.251 302.993C458.44 303.574 461.681 303.836 464.924 303.774C461.649 303.657 458.393 303.226 455.204 302.486V302.486Z" fill="black" />
        <path opacity="0.1" d="M438.526 348.627C425.955 347.198 415.321 344.113 418.673 341.496C422.024 338.88 425.439 323.901 425.439 323.901C425.439 323.901 425.439 323.987 425.494 323.846C425.633 323.461 425.614 323.037 425.439 322.667C420.142 311.147 420.849 290.646 420.849 290.646C420.849 290.646 420.126 280.423 423.509 276.588C426.026 273.753 431.895 273.167 434.73 273.05C434.466 273.03 434.201 273.03 433.936 273.05C433.936 273.05 424.51 272.816 421.127 276.619C417.743 280.423 418.466 290.677 418.466 290.677C418.466 290.677 417.759 311.209 423.056 322.698C423.231 323.069 423.251 323.492 423.112 323.877C423.056 324.018 423.056 323.932 423.056 323.932C423.056 323.932 419.697 338.864 416.282 341.481C412.867 344.097 423.533 347.19 436.136 348.611C448.739 350.033 453.782 353.602 453.782 353.602C454.035 353.303 454.258 352.982 454.449 352.641C451.995 351.478 446.944 349.564 438.526 348.627Z" fill="black" />
    </g>
    <path d="M444.5 271C451.404 271 457 265.627 457 259C457 252.373 451.404 247 444.5 247C437.596 247 432 252.373 432 259C432 265.627 437.596 271 444.5 271Z" fill="#FDC2CC" />
    <path opacity="0.1" d="M462.864 253.763C461.821 256.322 458.708 257.29 455.977 257.953C452.075 258.89 447.871 259.81 444.137 258.359C443.653 258.093 443.095 257.986 442.545 258.055C442.101 258.229 441.731 258.545 441.494 258.952C437.377 264.696 438.046 272.351 436.979 279.296C436.645 281.458 436.079 283.69 434.59 285.305C431.692 288.427 426.222 288.309 423.555 291.626C421.795 293.811 421.779 296.847 421.795 299.633C421.795 302.603 421.768 305.576 421.715 308.552C421.668 310.503 421.572 312.524 420.672 314.257C419.143 317.191 415.736 318.588 412.59 319.719C410.632 320.437 408.609 321.163 406.507 320.968C404.405 320.773 402.303 319.407 402.033 317.347C401.658 314.553 404.596 312.602 406.619 310.589C409.851 307.382 411.181 302.715 411.301 298.205C411.414 296.383 411.143 294.558 410.504 292.843C409.764 291.072 408.442 289.581 407.646 287.833C405.194 282.449 408.219 276.222 411.842 271.508C415.465 266.795 419.916 262.198 420.688 256.353C420.755 255.089 420.939 253.832 421.238 252.6C421.795 250.899 423.117 246.201 424.574 245.124C426.906 243.402 429.645 242.285 432.536 241.878C434.773 241.558 437.059 241.675 439.28 241.253C441.876 240.762 444.288 239.552 446.884 239.1C452.497 238.124 458.589 244.515 461.049 249.556C461.726 251.102 463.501 252.194 462.864 253.763Z" fill="black" />
    <path d="M462.864 252.763C461.821 255.322 458.708 256.29 455.977 256.953C452.075 257.89 447.871 258.81 444.137 257.359C443.653 257.093 443.095 256.986 442.545 257.055C442.101 257.229 441.731 257.545 441.494 257.952C437.377 263.696 438.046 271.351 436.979 278.296C436.645 280.458 436.079 282.69 434.59 284.305C431.692 287.427 426.222 287.309 423.555 290.626C421.795 292.811 421.779 295.847 421.795 298.633C421.795 301.603 421.768 304.576 421.715 307.552C421.668 309.503 421.572 311.524 420.672 313.257C419.143 316.191 415.736 317.588 412.59 318.719C410.632 319.437 408.609 320.163 406.507 319.968C404.405 319.773 402.303 318.407 402.033 316.347C401.658 313.553 404.596 311.602 406.619 309.589C409.851 306.382 411.181 301.715 411.301 297.205C411.414 295.383 411.143 293.558 410.504 291.843C409.764 290.072 408.442 288.581 407.646 286.833C405.194 281.449 408.219 275.222 411.842 270.508C415.465 265.795 419.916 261.198 420.688 255.353C420.755 254.089 420.939 252.832 421.238 251.6C421.795 249.899 423.117 245.201 424.574 244.124C426.906 242.402 429.645 241.285 432.536 240.878C434.773 240.558 437.059 240.675 439.28 240.253C441.876 239.762 444.288 238.552 446.884 238.1C452.497 237.124 458.589 243.515 461.049 248.556C461.726 250.102 463.501 251.194 462.864 252.763Z" fill="#D7A06E" />
    <path d="M503 229H712V435H503V229Z" fill="#F7DF1E" />
    <path d="M558 401.198L574.021 391.595C577.115 397.023 579.923 401.615 586.669 401.615C593.136 401.615 597.209 399.11 597.209 389.374V323.134H616.881V389.642C616.881 409.815 604.949 419 587.512 419C571.778 419 562.646 410.926 558.008 401.19L558 401.198ZM627.565 399.102L643.578 389.917C647.794 396.739 653.275 401.733 662.972 401.733C671.125 401.733 676.32 397.7 676.32 392.131C676.32 385.451 670.982 383.088 662.001 379.189L657.085 377.101C642.894 371.122 633.475 363.607 633.475 347.743C633.475 333.131 644.715 322 662.28 322C674.785 322 683.758 326.317 690.241 337.581L674.928 347.325C671.555 341.339 667.904 338.975 662.28 338.975C656.52 338.975 652.861 342.591 652.861 347.325C652.861 353.17 656.512 355.533 664.944 359.141L669.861 361.229C686.566 368.318 696 375.557 696 391.839C696 409.374 682.087 418.976 663.385 418.976C645.089 418.976 633.316 410.311 627.589 399.079" fill="black" />
    <path d="M804.219 549.022C804.219 549.022 796.05 549.586 791.007 540.976C790.021 539.242 788.857 537.613 787.531 536.115C785.903 533.488 785.057 530.464 785.089 527.388C785.368 521.008 778.607 486.067 778.607 486.067C778.607 486.067 779.45 472.761 772.689 464.44C768.235 458.961 761.832 443.306 757.974 433.194C758.233 433.421 758.544 433.582 758.881 433.663L758.722 432.794H758.881L756.884 422.001C753.978 418.712 751.528 415.059 749.598 411.136L750.052 411.042L756.033 409.806C756.033 409.806 765.753 396.209 766.373 389.525H767.169H768.29C777.287 389.477 786.28 389.939 795.223 390.91V390.91C795.223 390.871 795.159 390.699 795.079 390.425C794.701 389.08 794.409 387.713 794.205 386.331H794.761L800.329 385.971C800.329 385.971 819.49 364.9 812.443 361.018C805.396 357.135 798.07 378.488 798.07 378.488L795.684 378.911L795.04 379.028C795.103 378.935 795.167 378.848 795.239 378.762C795.31 378.676 763.963 377.385 759.135 369.886C759.135 369.886 745.327 359.069 744.762 351.883C744.661 350.393 744.144 348.958 743.268 347.738C742.393 346.517 741.192 345.557 739.799 344.964C738.093 344.163 736.204 343.815 734.319 343.954L727.852 344.393L728.306 345.175H728.123C727.717 344.261 727.377 343.319 727.104 342.357H727.24C727.192 342.162 727.152 341.966 727.112 341.77C729.094 341.31 730.962 340.464 732.605 339.281C734.249 338.097 735.634 336.602 736.679 334.882C737.724 333.162 738.408 331.254 738.689 329.269C738.971 327.285 738.846 325.265 738.32 323.329C738.952 323.409 739.594 323.391 740.221 323.274C742.607 322.797 744.285 320.417 744.349 318.038C744.349 317.881 744.349 317.725 744.349 317.576C744.349 317.576 744.349 317.513 744.349 317.482C744.325 316.287 744.031 315.111 743.487 314.041C742.944 312.972 742.165 312.035 741.207 311.299C739.918 310.242 738.375 309.49 737.23 308.316C735.838 306.915 735.074 305.037 733.993 303.385C732.181 300.653 729.493 298.595 726.357 297.538C724.026 296.755 721.163 296.677 719.373 298.321C718.451 299.174 717.918 300.411 716.884 301.131C715.396 302.18 713.376 301.867 711.554 302.078C709.905 302.328 708.343 302.973 707.008 303.957C705.672 304.942 704.603 306.234 703.895 307.722C703.002 309.584 702.571 311.628 702.638 313.686C702.618 315.098 702.789 316.506 703.147 317.874C703.497 319.236 704.014 320.551 704.396 321.912C705.191 324.73 705.374 327.697 706.289 330.476C706.903 332.538 708.131 334.372 709.812 335.743L709.542 336.886C709.367 336.886 704.976 337.849 701.946 344.369C699.56 349.512 691.439 354.819 687.867 356.963C687.201 357.364 686.623 357.892 686.167 358.516C685.711 359.139 685.386 359.846 685.211 360.595C684.868 362.108 684.715 363.656 684.757 365.205C684.694 368.548 685.402 373.174 688.13 379.036C694.326 392.343 698.836 398.166 698.836 398.166C698.836 398.166 699.178 402.244 699.202 406.542C699.202 409.743 698.963 412.929 698.271 414.525C697.683 415.872 697.476 419.308 697.524 423.237C697.524 430.767 698.271 440.59 698.271 440.59C698.271 440.59 700.427 440.997 703.76 441.475L705.835 477.418C706.096 481.771 704.676 486.06 701.858 489.425C700.402 491.195 698.721 492.774 696.855 494.122C690.938 498.278 678.259 542.095 678.259 542.095C678.259 542.095 678.879 542.095 679.897 542.213L676 552.913C676 552.913 691.574 564.654 701.047 561.444C702.073 561.115 703.15 560.967 704.229 561.006C706.098 561.006 710.099 559.55 707.872 557.633C703.571 553.735 699.515 549.584 695.726 545.203C696.031 545.349 696.323 545.52 696.601 545.711V545.625L696.736 545.711C696.736 545.711 696.736 545.281 696.84 544.576L696.704 544.53C696.991 541.649 697.897 534.354 699.695 533.509C701.946 532.397 718.578 499.953 718.578 499.953L735.202 457.803C735.202 457.803 748.445 480.267 759.716 484.142V493.534C759.716 493.534 765.912 521.267 768.171 524.312C770.43 527.356 768.171 539.559 768.171 539.559C768.617 540.061 769.127 540.503 769.69 540.874L767.885 550.924C767.885 550.924 780.85 550.369 802.827 557.022C802.811 557.061 811.266 553.461 804.219 549.022ZM752.374 403.998L749.63 404.671L749.089 404.804C749.034 404.467 748.994 404.272 748.994 404.272C748.364 404.551 747.687 404.713 746.997 404.749C746.025 401.717 745.463 398.572 745.327 395.395C744.404 391.594 743.842 387.715 743.649 383.811C743.649 381.792 743.991 380.03 744.762 379.036L745.677 379.107L746.313 379.702L746.361 379.741L746.687 380.03L747.029 380.328L747.085 380.375L747.451 380.696L747.514 380.75L747.888 381.064L748.31 381.408L748.405 381.486L748.851 381.838L749.288 382.183L749.392 382.261L749.877 382.621L749.98 382.692L750.442 383.028L750.521 383.083L751.046 383.451L751.173 383.537L751.73 383.913H751.778L752.319 384.265L752.446 384.351L753.027 384.719L753.154 384.797L753.695 385.126L753.798 385.189L754.419 385.549L754.57 385.635L755.214 385.987H755.262L755.89 386.316L756.041 386.394L756.709 386.723L756.845 386.785L757.465 387.067L757.584 387.122L758.284 387.419L758.451 387.49L759.175 387.779C754.681 392.648 752.374 403.998 752.374 403.998Z" fill="url(#paint0_linear)" />
    <path d="M682.271 535L677 549.832C677 549.832 691.44 560.998 700.826 558.684C702.24 558.329 703.681 558.094 705.134 557.98C707.076 557.835 710.421 556.402 708.343 554.59C701.685 548.715 692.804 537.8 692.804 537.8L682.271 535Z" fill="#4F4D59" />
    <path d="M769.459 534.243L767 548.046C767 548.046 779.579 547.506 800.911 554C800.911 554 809.118 550.479 802.279 546.176C802.279 546.176 794.372 546.715 789.431 538.351C784.489 529.987 781.524 531.043 781.524 531.043L769.459 534.243Z" fill="#4F4D59" />
    <path d="M704.373 433.863L706.745 475.998C707.005 480.488 705.506 484.904 702.563 488.322C701.233 489.891 699.717 491.296 698.049 492.505C692.309 496.579 680 539.468 680 539.468C680 539.468 693.946 540.253 697.772 543C697.772 543 698.563 532.144 700.776 531.053C702.99 529.962 719.094 498.204 719.094 498.204L735.229 456.94C735.229 456.94 748.076 478.918 759.018 482.733V491.964C759.018 491.964 765.034 519.115 767.224 522.097C769.414 525.08 767.224 537.011 767.224 537.011C767.224 537.011 773.548 544.86 788 536.469C788 536.469 783.351 531.312 783.628 525.064C783.905 518.816 777.304 484.617 777.304 484.617C777.304 484.617 778.094 471.587 771.564 463.424C765.034 455.261 754.179 424.075 754.179 424.075L746.653 408L704.373 433.863Z" fill="#585858" />
    <g opacity="0.1">
        <path opacity="0.1" d="M682.188 539.189C682.188 539.189 694.545 496.516 700.318 492.463C702.089 491.186 703.69 489.696 705.083 488.027C707.902 484.672 709.321 480.39 709.054 476.046L706.632 434.115L747.134 409.56L746.586 408.396L704.162 434.122L706.584 476.054C706.851 480.398 705.432 484.679 702.614 488.034C701.221 489.703 699.62 491.194 697.849 492.47C692.091 496.516 679.718 539.189 679.718 539.189C679.718 539.189 693.727 539.97 697.571 542.704C697.571 542.704 697.571 542.282 697.674 541.603C692.266 539.775 682.188 539.189 682.188 539.189Z" fill="black" />
        <path opacity="0.1" d="M769.807 536.761C769.807 536.761 772.007 524.874 769.807 521.922C767.607 518.97 761.563 491.939 761.563 491.939V482.739C750.58 478.959 737.667 457.076 737.667 457.076L736.714 459.528C740.439 465.339 750.374 479.756 759.102 482.755V491.939C759.102 491.939 765.145 518.954 767.345 521.922C769.545 524.889 767.345 536.761 767.345 536.761C767.345 536.761 770.41 540.556 777.176 540.041C772.118 539.627 769.807 536.761 769.807 536.761Z" fill="black" />
    </g>
    <path d="M798.401 387.446L792.9 387.807L790 388V381.06L793.807 380.378L796.165 379.953C796.165 379.953 803.456 358.589 810.455 362.472C817.454 366.355 798.401 387.446 798.401 387.446Z" fill="#714B4F" />
    <path d="M711.781 331C711.781 331 708.148 344.991 707.033 353.658C705.919 362.324 733 355.341 733 355.341C733 355.341 722.665 342.75 728.535 336.033L711.781 331Z" fill="#C5A07F" fill-opacity="0.99" />
    <path d="M741.037 387.879L741.592 393L732.97 392.462L724.347 385.182L715.725 361.72L710.175 353.357L706 348.236L707.673 342C707.673 342 708.437 342.647 709.724 343.598C713.963 346.716 723.897 353.271 731.16 351.463C731.496 351.381 731.826 351.279 732.149 351.159L743 369.219L741.037 387.879Z" fill="#E6E6F0" />
    <path opacity="0.1" d="M710.245 340.008C710.245 340.008 705.84 340.792 702.805 347.33C700.478 352.332 692.608 357.521 689.095 359.614C688.425 360.017 687.843 360.548 687.385 361.175C686.927 361.803 686.601 362.514 686.426 363.268C685.717 366.356 685.447 372.119 689.302 380.405C695.364 393.419 699.769 399.11 699.769 399.11C699.769 399.11 700.869 412.124 699.22 415.918C697.571 419.712 699.22 440.589 699.22 440.589C699.22 440.589 728.145 446.014 737.791 440.589C747.438 435.164 746.06 414.287 746.06 414.287C746.06 414.287 755.15 433.267 758.455 433.808L756.528 423.232C756.528 423.232 745.781 411.841 745.232 397.205C745.232 397.205 741.926 383.917 744.682 380.397C744.682 380.397 791.244 384.191 794 380.938C794 380.938 763.418 379.582 758.734 372.26C758.734 372.26 745.232 361.684 744.682 354.636C744.602 353.313 744.18 352.032 743.457 350.914C742.733 349.796 741.732 348.878 740.548 348.247C738.674 347.198 736.523 346.726 734.374 346.891L728.153 347.314C728.153 347.314 738.899 366.019 738.349 368.481C737.799 370.943 738.899 390.714 738.899 390.714C738.899 390.714 726.464 364.412 720.991 361.433C715.518 358.454 709.138 346.193 709.138 346.193L710.237 340" fill="black" />
    <path opacity="0.1" d="M741.037 387.879L741.592 393L732.97 392.462L724.347 385.182L715.725 361.72L710.175 353.357L706 348.236L707.673 342C707.673 342 708.437 342.647 709.724 343.598L709.338 345.726C709.338 345.726 715.773 357.901 721.299 360.871C726.825 363.84 739.38 389.983 739.38 389.983C739.38 389.983 738.27 370.302 738.825 367.878C739.203 366.233 734.329 357.145 731.16 351.463C731.496 351.381 731.826 351.279 732.149 351.159L743 369.219L741.037 387.879Z" fill="black" />
    <path opacity="0.1" d="M793.047 387.798L790 388V380.716L794 380C792.604 381.827 792.655 385.061 793.047 387.798Z" fill="black" />
    <path d="M710.245 339C710.245 339 705.84 339.784 702.805 346.323C700.478 351.325 692.608 356.515 689.095 358.608C688.425 359.011 687.843 359.542 687.385 360.169C686.927 360.797 686.601 361.508 686.426 362.262C685.717 365.351 685.447 371.113 689.302 379.4C695.364 392.415 699.769 398.107 699.769 398.107C699.769 398.107 700.869 411.121 699.22 414.916C697.571 418.71 699.22 439.589 699.22 439.589C699.22 439.589 728.145 445.014 737.791 439.589C747.438 434.163 746.06 413.285 746.06 413.285C746.06 413.285 755.142 432.235 758.455 432.815L756.528 422.239C756.528 422.239 745.781 410.847 745.232 396.209C745.232 396.209 741.926 382.92 744.682 379.4C744.682 379.4 755.428 390.792 767.553 390.517C776.388 390.465 785.218 390.918 794 391.874C794 391.874 791.244 383.195 794 379.941C794 379.941 763.418 378.585 758.734 371.262C758.734 371.262 745.232 360.686 744.682 353.638C744.602 352.314 744.18 351.033 743.457 349.915C742.733 348.797 741.732 347.879 740.548 347.248C738.674 346.199 736.523 345.726 734.374 345.891L728.153 346.315C728.153 346.315 738.899 365.021 738.349 367.483C737.799 369.945 738.899 389.718 738.899 389.718C738.899 389.718 726.464 363.398 720.991 360.419C715.518 357.44 709.138 345.209 709.138 345.209L710.237 339.016" fill="#585858" />
    <path opacity="0.1" d="M703.706 368C703.706 368 710.335 389.496 714.2 392.16C718.065 394.824 741.544 408.359 748.452 405.173C748.452 405.173 750.113 413.142 747.653 415C747.653 415 721.898 414.033 721.691 413.941C721.691 413.941 704.84 411.814 702.077 403.853C699.314 395.891 696 382.356 696 382.356L703.706 368Z" fill="black" />
    <path d="M739 392C739.552 392 740 391.552 740 391C740 390.448 739.552 390 739 390C738.448 390 738 390.448 738 391C738 391.552 738.448 392 739 392Z" fill="black" />
    <path d="M742 402C742.552 402 743 401.328 743 400.5C743 399.672 742.552 399 742 399C741.448 399 741 399.672 741 400.5C741 401.328 741.448 402 742 402Z" fill="black" />
    <g opacity="0.1">
        <path opacity="0.1" d="M701.009 439.222C701.009 439.222 699.358 418.424 701.009 414.644C702.661 410.864 701.557 397.9 701.557 397.9C701.557 397.9 697.166 392.23 691.122 379.265C687.271 371.01 687.549 365.27 688.255 362.193C688.429 361.442 688.754 360.733 689.211 360.108C689.668 359.483 690.248 358.955 690.916 358.553C694.418 356.445 702.256 351.298 704.583 346.315C706.291 342.66 708.427 340.809 709.967 339.888L710.071 339.294C710.071 339.294 705.679 340.075 702.653 346.589C700.334 351.571 692.488 356.741 688.986 358.827C688.318 359.228 687.738 359.757 687.281 360.382C686.824 361.007 686.499 361.716 686.326 362.466C685.619 365.543 685.349 371.284 689.192 379.539C695.236 392.503 699.628 398.173 699.628 398.173C699.628 398.173 700.724 411.138 699.08 414.918C697.436 418.698 699.08 439.496 699.08 439.496C699.08 439.496 719.68 443.354 731.862 441.284C719.561 442.729 701.009 439.222 701.009 439.222Z" fill="black" />
        <path opacity="0.1" d="M738.08 367.675C737.707 369.339 738.08 379.125 738.39 385.123C739.716 387.786 740.55 389.559 740.55 389.559C740.55 389.559 739.454 369.839 740.002 367.41C740.526 365.067 730.877 348.151 729.917 346.479L727.915 346.612C727.915 346.612 738.636 365.247 738.08 367.675Z" fill="black" />
        <path opacity="0.1" d="M769.124 390.363C757.037 390.637 746.324 379.289 746.324 379.289C746.002 379.729 745.768 380.224 745.633 380.749C748.809 383.655 757.545 390.847 767.202 390.629C776.01 390.577 784.813 391.028 793.568 391.98C793.568 391.98 793.512 391.8 793.425 391.496C785.352 390.675 777.239 390.297 769.124 390.363Z" fill="black" />
        <path opacity="0.1" d="M747.682 413.051C747.682 413.051 747.793 414.738 747.729 417.269C750.588 422.845 755.79 432.381 758.117 432.763L757.712 430.545C753.717 425.61 747.682 413.051 747.682 413.051Z" fill="black" />
    </g>
    <path d="M755.171 409.876L749.486 411.064L745 412L747.405 405.366L749.084 404.952L751.69 404.308C751.69 404.308 755.434 385.741 762.928 387.068C770.423 388.395 755.171 409.876 755.171 409.876Z" fill="#C5A07F" fill-opacity="0.99" />
    <path opacity="0.1" d="M749.962 411.938L745 413L747.661 405.47L749.517 405C749.929 407.287 750.078 409.616 749.962 411.938Z" fill="black" />
    <path d="M703.706 367C703.706 367 710.335 388.954 714.2 391.674C718.065 394.395 741.544 408.218 748.452 404.964C748.452 404.964 750.113 413.103 747.653 415C747.653 415 721.898 414.012 721.691 413.918C721.691 413.918 704.84 411.746 702.077 403.615C699.314 395.485 696 381.662 696 381.662L703.706 367Z" fill="#585858" />
    <path opacity="0.1" d="M712.318 332C712.318 332 711.756 334.122 711 337.206C712.539 340.046 714.996 342.313 717.991 343.658C720.986 345.002 724.352 345.348 727.569 344.643C726.902 341.864 727.046 339.054 729 336.877L712.318 332Z" fill="black" />
    <path d="M724 344C732.284 344 739 337.508 739 329.5C739 321.492 732.284 315 724 315C715.716 315 709 321.492 709 329.5C709 337.508 715.716 344 724 344Z" fill="#C5A07F" fill-opacity="0.99" />
    <path opacity="0.1" d="M736.627 325.697C737.709 325.991 738.842 326.059 739.953 325.899C741.104 325.597 742.122 324.938 742.853 324.024C743.583 323.109 743.986 321.988 744 320.831C743.979 319.674 743.692 318.536 743.159 317.501C742.626 316.465 741.862 315.559 740.921 314.847C739.658 313.823 738.146 313.101 736.987 311.96C735.619 310.602 734.867 308.786 733.788 307.187C732.009 304.543 729.372 302.552 726.294 301.529C724.007 300.753 721.2 300.691 719.441 302.305C718.537 303.135 718.009 304.323 717.002 305.029C715.538 306.038 713.555 305.743 711.772 305.945C710.156 306.183 708.625 306.803 707.314 307.751C706.004 308.698 704.953 309.944 704.254 311.378C702.89 314.302 702.629 317.599 703.519 320.691C703.862 322.011 704.374 323.284 704.742 324.572C705.542 327.304 705.702 330.168 706.597 332.861C707.493 335.554 709.341 338.193 712.14 339C711.919 335.977 712.535 332.952 713.923 330.238C714.152 329.644 714.603 329.156 715.186 328.872C715.685 328.747 716.207 328.747 716.706 328.872C720.214 329.375 723.792 328.672 726.822 326.885C727.886 326.264 729.541 324.122 730.669 323.912C732.124 323.672 735.107 325.371 736.627 325.697Z" fill="black" />
    <path d="M736.627 325.347C737.709 325.648 738.842 325.719 739.953 325.554C741.104 325.244 742.122 324.568 742.853 323.63C743.583 322.691 743.986 321.54 744 320.353C743.979 319.165 743.692 317.997 743.159 316.935C742.626 315.872 741.862 314.942 740.921 314.211C739.658 313.16 738.146 312.419 736.987 311.248C735.619 309.854 734.867 307.99 733.788 306.35C732.009 303.636 729.372 301.592 726.294 300.543C724.007 299.746 721.2 299.682 719.441 301.339C718.537 302.192 718.009 303.41 717.002 304.135C715.538 305.171 713.555 304.868 711.772 305.075C710.156 305.32 708.625 305.956 707.314 306.928C706.004 307.901 704.953 309.179 704.254 310.651C702.89 313.652 702.629 317.036 703.519 320.209C703.862 321.564 704.374 322.87 704.742 324.192C705.542 326.996 705.702 329.935 706.597 332.699C707.493 335.463 709.341 338.172 712.14 339C711.925 335.899 712.546 332.797 713.939 330.015C714.168 329.406 714.619 328.905 715.202 328.613C715.701 328.486 716.223 328.486 716.722 328.613C720.23 329.13 723.808 328.408 726.838 326.574C727.902 325.937 729.557 323.738 730.685 323.523C732.124 323.268 735.107 325.013 736.627 325.347Z" fill="#503F43" />
    <path d="M885 277L872.882 410.177L818.417 425L764.102 410.177L752 277H885Z" fill="#E44D26" />
    <path d="M818 414L862.539 402.011L873 288H818V414Z" fill="#F16529" />
    <path d="M794.865 320.419H817.992V304H777L777.39 308.407L781.412 353.648H818V337.229H796.364L794.865 320.419ZM798.581 361.857H782.185L784.472 387.638L817.922 397H818V379.868H817.93L799.721 374.928L798.581 361.857Z" fill="#EBEBEB" />
    <path d="M764 241H772.499V249.252H780.271V241H788.77V266H780.271V257.63H772.499V266H764V241ZM799.945 249.291H792.46V241H815.928V249.291H808.444V266H799.953V249.291H799.945ZM819.658 241H828.525L833.98 249.786L839.428 241H848.294V266H839.827V253.61L833.98 262.498H833.836L827.981 253.61V266H819.658V241ZM852.52 241H861.018V257.732H873V265.992H852.544V241H852.52Z" fill="black" />
    <path d="M818 353.652H838.624L836.68 374.946L818 379.885V397L852.344 387.67L852.592 384.895L856.528 341.672L856.936 337.266H818V353.683V353.652ZM818 320.386V320.425H858.464L858.8 316.732L859.6 308.406L860 304H818V320.378V320.386Z" fill="white" />
    <path d="M396.75 375.707C395.214 371.251 393 365.561 391.236 364.266C391.129 364.181 391.013 364.111 390.889 364.055H390.669V358.552L386.525 359.208C385.86 357.219 385.357 355.181 385.02 353.113C385.419 353.508 385.928 353.778 386.482 353.888C387.036 353.997 387.61 353.942 388.132 353.729C388.061 353.62 388.006 353.503 387.943 353.386L388.132 353.308C387.48 352.167 387.135 350.88 387.131 349.569C387.166 348.373 387.359 347.187 387.707 346.041C388.447 343.505 389.7 341.132 390.401 338.588C390.849 336.945 391.061 335.248 391.031 333.546C391.052 330.663 390.388 327.815 389.093 325.234C388.772 324.491 388.268 323.839 387.628 323.337C387.045 323.017 386.445 322.728 385.832 322.471C384.804 321.785 383.919 320.911 383.224 319.895C380.281 316.346 376.341 313.741 371.904 312.411C370.748 311.985 369.496 311.888 368.288 312.13C365.507 312.91 364.491 316.29 362.237 318.077C360.244 319.638 357.511 319.817 355.021 320.348C352.466 320.779 350.113 322 348.302 323.837C347.123 325.171 346.481 326.888 346.498 328.66C346.43 329.487 346.577 330.318 346.926 331.072C347.275 331.826 347.814 332.479 348.491 332.968C349.261 333.47 350.133 333.797 351.046 333.925C351.958 334.053 352.888 333.98 353.769 333.71C353.081 336.064 352.891 338.533 353.212 340.963C353.533 343.393 354.357 345.731 355.633 347.831C356.909 349.931 358.609 351.746 360.627 353.164C362.645 354.582 364.936 355.571 367.358 356.071L367.846 356.929C369.336 359.682 370.467 362.611 371.21 365.647C367.397 367.793 363.23 369.799 360.717 369.987C360.617 370.96 360.435 371.923 360.173 372.866C359.586 375.235 358.457 377.438 356.873 379.305C353.454 383.114 338.068 411.914 338.068 411.914C338.068 411.914 337.58 413.061 336.792 415.036C327.236 416.199 311.646 417.877 307.289 417.01L290.195 400.917C290.195 400.917 284.68 405.093 285.153 410.166L282.072 407.262C282.072 407.262 265.828 419.539 291.479 427.555L330.505 432.042C326.787 443.157 323.321 456.089 324.392 463.129H324.715C325.462 463.128 326.207 463.07 326.945 462.957L326.874 464.206L323.116 530.882C323.116 530.882 322.257 543.159 333.798 548.67C333.798 548.67 347.908 589.746 342.346 594.406C342.346 594.406 343.008 594.749 344.118 595.233L332.514 605.379C332.514 605.379 323.967 607.494 319.264 607.073C318.437 606.961 317.598 607.155 316.907 607.617C316.215 608.079 315.719 608.777 315.514 609.578C315.514 609.664 315.514 609.75 315.467 609.844V609.953C315.467 610.039 315.467 610.132 315.467 610.226C315.467 610.32 315.467 610.296 315.467 610.328C315.467 610.359 315.467 610.484 315.467 610.562V610.663C315.467 610.757 315.467 610.843 315.522 610.936V611.038C315.548 611.137 315.58 611.233 315.616 611.327V611.42C315.656 611.514 315.703 611.608 315.75 611.701V611.764C315.805 611.857 315.861 611.951 315.924 612.045L315.979 612.123C316.047 612.221 316.123 612.32 316.207 612.419L316.27 612.497C316.357 612.599 316.451 612.692 316.554 612.794H316.601L316.916 613.059L316.987 613.114L317.373 613.387L317.468 613.449L317.917 613.707H317.988L318.468 613.941H318.539L319.098 614.167L319.217 614.214L319.839 614.417H319.941L320.611 614.589H320.666L321.454 614.737H321.604L322.391 614.854H322.541L323.447 614.94C325.204 615.073 327.575 615.12 330.316 615.112C330.316 615.112 330.316 615.182 330.316 615.213C330.316 615.245 330.316 615.369 330.316 615.447V615.549C330.316 615.643 330.316 615.728 330.372 615.822V615.924C330.398 616.022 330.429 616.119 330.466 616.212V616.306C330.505 616.4 330.553 616.493 330.6 616.587V616.649C330.655 616.743 330.71 616.837 330.773 616.93L330.828 617.008C330.897 617.107 330.973 617.206 331.057 617.305L331.12 617.383C331.207 617.484 331.301 617.578 331.404 617.68H331.443L331.758 617.945L331.829 618L332.215 618.273L332.31 618.335L332.751 618.593H332.822L333.302 618.827H333.373L333.932 619.053L334.051 619.1L334.673 619.303H334.775L335.445 619.475H335.5L336.288 619.623H336.438L337.225 619.74H337.375L338.281 619.826C349.397 620.677 384.871 618.132 384.871 618.132V618.031V617.906C385.225 616.267 386.927 606.737 380.876 599.69C381.058 599.502 381.231 599.307 381.396 599.104C381.396 599.104 376.67 591.057 379.261 588.521C381.853 585.984 366.744 542.332 366.744 542.332C366.744 542.332 358.622 529.626 363.325 515.226C368.028 500.826 362.899 485.162 362.899 485.162C362.899 485.162 374.125 481.868 374.33 468.187C374.33 467.773 374.33 467.344 374.33 466.914C374.565 466.948 374.802 466.964 375.039 466.961C375.196 466.972 375.354 466.972 375.512 466.961C375.512 466.961 373.377 459.336 375.937 453.833C378.497 448.331 384.059 453.412 389.188 430.965C392.898 414.724 396.159 396.047 397.688 386.954C398.316 383.186 397.993 379.323 396.75 375.707V375.707ZM299.207 423.317L295.307 419.648C296.599 420.179 298.033 420.694 299.632 421.209L314.324 422.919C307.77 423.504 301.649 423.832 299.207 423.34V423.317Z" fill="url(#paint1_linear)" />
    <path d="M336.074 421.216C336.074 421.216 305.965 425.477 299.689 424.198L282.963 408C282.963 408 267.069 420.36 292.166 428.459L339 434L336.074 421.216Z" fill="#FDC2CC" />
    <path opacity="0.05" d="M336.074 421.216C336.074 421.216 305.965 425.477 299.689 424.198L282.963 408C282.963 408 267.069 420.36 292.166 428.459L339 434L336.074 421.216Z" fill="black" />
    <path d="M276.401 432L210.65 414.023L196 252H357L342.334 414L276.401 432Z" fill="#264DE4" />
    <path d="M330.428 403.467L343 265H277V418L330.428 403.467Z" fill="#2965F1" />
    <path d="M229.701 325.033L231.523 344.808H277V325.033H229.701ZM226.04 285L227.886 304.775H276.992V285H226H226.04ZM276.992 376.4H276.904L254.269 370.449L252.823 354.672H232.386L235.231 385.728L276.856 397H276.952L276.992 376.4Z" fill="#EBEBEB" />
    <path d="M234 208H258.388V217.857H244.194V227.714H258.388V237.571H234V208ZM263.306 208H287.694V216.571H273.468V218.286H287.662V238H263.267V229H277.46V227.286H263.267V208H263.306ZM292.612 208H317V216.571H302.735V218.286H316.929V238H292.533V229H306.727V227.286H292.533V208H292.612Z" fill="black" />
    <path d="M323.399 325.036L327 285H277V304.777H305.111L303.298 325.004H277V344.781H301.565L299.211 370.455L277 376.422V397L317.891 385.758L318.189 382.413L322.897 330.334L323.383 325.02L323.399 325.036Z" fill="white" />
    <path d="M347.317 590L332.687 603.103C332.687 603.103 324.33 605.22 319.735 604.792C315.141 604.364 313.047 611.978 323.914 612.826C334.781 613.675 369.466 611.137 369.466 611.137C369.466 611.137 372.806 597.606 362.778 590H347.317Z" fill="#47465A" />
    <path opacity="0.05" d="M347.317 590L332.687 603.103C332.687 603.103 324.33 605.22 319.735 604.792C315.141 604.364 313.047 611.978 323.914 612.826C334.781 613.675 369.466 611.137 369.466 611.137C369.466 611.137 372.806 597.606 362.778 590H347.317Z" fill="black" />
    <path opacity="0.3" d="M369.989 605C369.964 606.595 369.788 608.184 369.463 609.743C369.463 609.743 334.777 612.369 323.911 611.491C318.681 611.072 316.462 609.029 316.07 607.076C315.592 609.325 317.489 612.287 323.911 612.82C334.777 613.698 369.463 611.072 369.463 611.072C369.872 609.078 370.048 607.039 369.989 605Z" fill="white" />
    <path d="M365 353.79C365 353.79 374.038 366.775 370.748 375.578C367.458 384.381 388 366.358 388 366.358C388 366.358 381.427 354.576 384.718 342L365 353.79Z" fill="#FDC2CC" />
    <path d="M362.302 595L347.687 608.103C347.687 608.103 339.33 610.22 334.735 609.792C330.141 609.364 328.047 616.978 338.914 617.826C349.781 618.675 384.466 616.137 384.466 616.137C384.466 616.137 387.806 602.606 377.778 595H362.302Z" fill="#47465A" />
    <path d="M366 592.124C363.802 594.796 360.703 595.824 357.461 595.98C350.093 596.323 341.981 592.124 341.981 592.124C347.46 587.559 333.553 547.278 333.553 547.278C322.176 541.879 323.014 529.836 323.014 529.836L326.698 464.479L327.631 448.058L339.435 441L348.733 448.011L357.556 454.679C358.131 456.8 358.502 458.97 358.663 461.16C359.691 476.421 347.444 480.012 347.444 480.012C347.444 480.012 352.504 495.374 347.863 509.497C343.222 523.62 351.231 536.076 351.231 536.076C351.231 536.076 366.403 579.263 363.881 581.756C361.359 584.249 366 592.124 366 592.124Z" fill="#565171" />
    <path opacity="0.05" d="M366 592.124C363.802 594.796 360.703 595.824 357.461 595.98C350.093 596.323 341.981 592.124 341.981 592.124C347.46 587.559 333.553 547.278 333.553 547.278C322.176 541.879 323.014 529.836 323.014 529.836L326.698 464.479L327.631 448.058L339.435 441L348.733 448.011L357.556 454.679C358.131 456.8 358.502 458.97 358.663 461.16C359.691 476.421 347.444 480.012 347.444 480.012C347.444 480.012 352.504 495.374 347.863 509.497C343.222 523.62 351.231 536.076 351.231 536.076C351.231 536.076 366.403 579.263 363.881 581.756C361.359 584.249 366 592.124 366 592.124Z" fill="black" />
    <path d="M381 597.126C373.798 605.842 356.851 597.126 356.851 597.126C357.192 596.818 357.446 596.429 357.59 595.997C360.698 587.717 347.105 548.132 347.105 548.132C335.666 542.734 334.386 529.866 334.386 529.866L331.389 463.331L331 454.716L348.83 448.049L354.307 446L372.55 459.701C373.333 462.54 373.718 465.469 373.695 468.41C373.464 481.815 362.359 485.055 362.359 485.055C362.359 485.055 367.447 500.415 362.781 514.537C358.114 528.659 366.191 541.075 366.191 541.075C366.191 541.075 381.445 584.258 378.909 586.751C376.374 589.243 381 597.126 381 597.126Z" fill="#565171" />
    <path opacity="0.1" d="M373.999 468C370.336 467.493 362.923 463.227 359.117 460.914C357.663 460.03 356.733 459.438 356.733 459.438C356.733 459.438 352.919 449.193 342.756 456.979C339.45 459.576 335.717 461.618 331.712 463.02C330.182 463.544 328.604 463.927 327 464.165L327.938 447.963L339.801 441L349.145 447.917L354.619 445.896L372.855 459.407C373.638 462.208 374.023 465.099 373.999 468V468Z" fill="black" />
    <path d="M396.683 388.015C395.171 396.988 391.908 415.466 388.247 431.458C383.154 453.614 377.639 448.594 375.1 454.03C372.561 459.465 374.678 466.986 374.678 466.986C370.436 467.402 356.437 458.21 356.437 458.21C356.437 458.21 352.617 447.755 342.438 455.7C332.26 463.645 324.198 463.222 324.198 463.222C322.073 449.426 337.775 412.634 337.775 412.634C337.775 412.634 353.047 384.203 356.437 380.478C358.01 378.636 359.132 376.463 359.716 374.125C359.977 373.195 360.158 372.246 360.257 371.286C365.773 370.87 379.358 361.671 379.358 361.671L389.966 360V365.435C390.092 365.491 390.209 365.562 390.316 365.647C392.059 366.957 394.296 372.541 395.784 376.941C397.002 380.503 397.311 384.307 396.683 388.015Z" fill="#8E8E8E" />
    <path d="M347 427L341.595 426.385L300.168 421.673C275.065 413.885 290.966 402 290.966 402L307.691 417.575C312.515 418.521 331.444 416.314 339.924 415.269C342.466 414.946 344.074 414.731 344.074 414.731L347 427Z" fill="#FDC2CC" />
    <path opacity="0.1" d="M388.087 371.262C388.087 371.262 377.261 362.606 360.989 390.639C344.718 418.673 341 414.14 341 414.14C341 414.14 344.328 426.517 342.664 428.984C342.664 428.984 353.904 428.157 358.068 428.984C362.231 429.812 388.048 397.648 388.048 397.648C388.048 397.648 401.414 379.508 388.087 371.262Z" fill="black" />
    <path opacity="0.1" d="M387.965 369.283C387.965 369.283 376.929 360.48 360.376 388.989C343.822 417.498 340 412.888 340 412.888C340 412.888 353.154 427.142 357.398 427.984C361.642 428.826 387.957 396.116 387.957 396.116C387.957 396.116 401.549 377.669 387.965 369.283Z" fill="black" />
    <path opacity="0.1" d="M341.653 426.393C341.824 423.43 340.667 418.225 340 415.525C342.514 415.21 344.105 415 344.105 415L347 427L341.653 426.393Z" fill="black" />
    <path d="M388.087 370.282C388.087 370.282 377.261 361.481 360.989 389.994C344.718 418.507 341 413.89 341 413.89C341 413.89 344.328 426.475 342.664 428.984C342.664 428.984 353.904 428.142 358.068 428.984C362.231 429.826 388.048 397.12 388.048 397.12C388.048 397.12 401.414 378.667 388.087 370.282Z" fill="#8E8E8E" />
    <path opacity="0.1" d="M386 343L365 354.787C365.889 356.03 366.709 357.318 367.458 358.644C368.666 358.881 369.896 359 371.129 359C376.725 359 379.322 353.332 382.706 349.514C382.46 346.478 385.033 346.399 386 343Z" fill="black" />
    <path d="M370.5 358C380.165 358 388 350.165 388 340.5C388 330.835 380.165 323 370.5 323C360.835 323 353 330.835 353 340.5C353 350.165 360.835 358 370.5 358Z" fill="#FDC2CC" />
    <path opacity="0.1" d="M347.843 326.687C349.672 324.872 352.049 323.665 354.631 323.239C357.151 322.713 359.913 322.557 361.922 320.997C364.198 319.233 365.219 315.878 368.03 315.126C369.251 314.89 370.516 314.987 371.683 315.408C376.167 316.72 380.148 319.289 383.121 322.792C383.825 323.797 384.721 324.662 385.762 325.339C386.382 325.593 386.988 325.878 387.576 326.194C388.221 326.69 388.728 327.334 389.051 328.067C391.075 332.023 391.541 336.556 390.363 340.82C389.658 343.336 388.395 345.672 387.641 348.18C386.888 350.688 386.702 353.526 388.071 355.768C386.742 356.426 385.065 355.595 384.231 354.396C383.397 353.197 383.145 351.723 382.708 350.336C381.848 347.612 380.227 345.171 378.026 343.281C376.665 342.121 374.235 341.337 373.287 342.834C372.922 343.415 372.947 344.159 372.631 344.763C372.015 345.946 370.201 346.181 369.042 345.547C367.902 344.785 367.1 343.634 366.798 342.325C365.024 336.501 361.987 332.841 355.555 335.325C353.125 336.25 350.33 336.893 348.021 335.325C345.064 333.225 345.656 329.062 347.843 326.687Z" fill="black" />
    <path d="M347.843 326.402C349.672 324.632 352.049 323.454 354.631 323.038C357.151 322.525 359.913 322.372 361.922 320.851C364.198 319.13 365.219 315.857 368.03 315.123C369.251 314.892 370.516 314.988 371.683 315.398C376.167 316.678 380.148 319.185 383.121 322.602C383.825 323.582 384.721 324.426 385.762 325.087C386.382 325.335 386.988 325.613 387.576 325.921C388.221 326.405 388.728 327.033 389.051 327.748C391.075 331.607 391.541 336.03 390.363 340.19C389.658 342.645 388.395 344.924 387.641 347.371C386.888 349.818 386.702 352.586 388.071 354.773C386.742 355.416 385.065 354.605 384.231 353.435C383.397 352.265 383.145 350.827 382.708 349.474C381.848 346.817 380.227 344.435 378.026 342.591C376.665 341.46 374.235 340.695 373.287 342.156C372.922 342.721 372.947 343.448 372.631 344.037C372.015 345.192 370.201 345.421 369.042 344.802C367.902 344.058 367.1 342.936 366.798 341.659C365.024 335.977 361.987 332.405 355.555 334.83C353.125 335.732 350.33 336.359 348.021 334.83C345.064 332.788 345.656 328.727 347.843 326.402Z" fill="#8F5A6A" />
    <path opacity="0.05" d="M391 365.589H382.264C382.264 365.589 365.066 373.876 364.638 373.464C364.348 373.184 361.686 373.666 360 374C360.264 373.078 360.447 372.137 360.549 371.186C366.139 370.774 379.908 361.656 379.908 361.656L390.661 360V365.387C390.782 365.441 390.896 365.509 391 365.589V365.589Z" fill="black" />
    <path opacity="0.3" d="M384.989 610C384.964 611.595 384.788 613.184 384.463 614.743C384.463 614.743 349.777 617.369 338.911 616.491C333.681 616.072 331.462 614.029 331.07 612.076C330.592 614.325 332.489 617.287 338.911 617.82C349.777 618.698 384.463 616.072 384.463 616.072C384.872 614.078 385.048 612.039 384.989 610Z" fill="white" />
    <g opacity="0.05">
        <path opacity="0.05" d="M338.741 455.217C333.031 459.669 327.981 461.465 324.661 462.246C324.661 462.558 324.725 462.863 324.772 463.16C324.772 463.16 332.817 463.574 342.974 455.67C344.548 454.344 346.408 453.388 348.414 452.874C346.198 451.804 343.038 451.874 338.741 455.217Z" fill="black" />
        <path opacity="0.05" d="M396.19 377.164C394.673 372.783 392.474 367.23 390.734 365.918C390.628 365.833 390.51 365.762 390.385 365.707C390.385 365.707 386.883 365.824 387.002 365.918C388.741 367.222 390.441 372.369 391.957 376.743C393.187 380.298 393.503 384.097 392.879 387.802C391.37 396.736 388.114 415.136 384.461 431.061C379.378 453.124 373.875 448.126 371.341 453.538C369.261 457.974 370.301 463.8 370.754 465.76C372.123 466.434 373.623 466.81 375.153 466.862C375.153 466.862 373.033 459.372 375.574 453.96C378.115 448.547 383.619 453.546 388.693 431.483C392.37 415.519 395.603 397.119 397.111 388.223C397.736 384.519 397.419 380.72 396.19 377.164V377.164Z" fill="black" />
    </g>
    <path d="M445.827 454.942C447.296 453.736 448.367 452.11 448.897 450.278C449.298 448.423 448.513 446.204 446.749 445.526C444.777 444.768 442.668 446.14 441.073 447.535C439.477 448.931 437.641 450.512 435.549 450.214C436.624 449.233 437.429 447.988 437.884 446.601C438.339 445.214 438.43 443.732 438.147 442.299C438.056 441.706 437.807 441.148 437.425 440.686C436.327 439.508 434.346 440.016 433.032 440.944C428.863 443.897 427.7 449.593 427.676 454.724C427.259 452.876 427.612 450.948 427.596 449.076C427.58 447.205 427.067 445.042 425.48 444.058C424.495 443.526 423.39 443.262 422.273 443.292C420.397 443.219 418.312 443.413 417.03 444.792C415.426 446.503 415.851 449.383 417.238 451.247C418.625 453.11 420.725 454.312 422.666 455.619C424.221 456.549 425.547 457.821 426.546 459.338C426.663 459.549 426.76 459.771 426.834 460H438.579C441.211 458.651 443.649 456.949 445.827 454.942V454.942Z" fill="#509668" />
    <path d="M466.762 586.194C468.599 584.451 470.326 582.394 470.863 579.895C471.399 577.396 470.35 574.391 468 573.467C465.374 572.438 462.559 574.27 460.43 576.175C458.301 578.079 455.857 580.192 453.073 579.79C454.507 578.465 455.579 576.785 456.186 574.912C456.792 573.039 456.913 571.038 456.535 569.104C456.413 568.305 456.08 567.556 455.573 566.934C454.114 565.327 451.464 566.027 449.722 567.28C444.202 571.297 442.625 578.955 442.585 585.881C442.026 583.382 442.499 580.779 442.483 578.216C442.467 575.652 441.781 572.816 439.66 571.434C438.339 570.711 436.854 570.356 435.354 570.406C432.855 570.309 430.071 570.566 428.368 572.43C426.247 574.744 426.791 578.625 428.644 581.172C430.497 583.72 433.296 585.319 435.875 587.078C437.945 588.336 439.71 590.052 441.04 592.1C441.198 592.386 441.327 592.688 441.426 593H457.095C460.603 591.186 463.855 588.897 466.762 586.194V586.194Z" fill="#509668" />
    <defs>
        <linearGradient id="paint0_linear" x1="744.977" y1="561.992" x2="744.977" y2="296.998" gradientUnits="userSpaceOnUse">
            <stop stop-color="#808080" stop-opacity="0.25" />
            <stop offset="0.54" stop-color="#808080" stop-opacity="0.12" />
            <stop offset="1" stop-color="#808080" stop-opacity="0.1" />
        </linearGradient>
        <linearGradient id="paint1_linear" x1="45837.1" y1="239646" x2="45837.1" y2="117922" gradientUnits="userSpaceOnUse">
            <stop stop-color="#404040" stop-opacity="0.57" />
            <stop offset="0.54" stop-color="#2F2F2F" stop-opacity="0.5" />
            <stop offset="1" stop-color="#808080" stop-opacity="0.44" />
        </linearGradient>
    </defs>
</svg>
