<svg width="817" height="663" viewBox="0 0 817 663" fill="none" xmlns="http://www.w3.org/2000/svg">
    <path d="M496.952 509.301C473.121 509.366 449.314 507.77 425.695 504.523C424.924 504.422 424.142 504.31 423.366 504.191C417.568 503.347 411.768 502.383 406.129 501.324C380.753 496.575 356.823 489.639 335.004 480.707C262.396 450.984 216.744 457.31 191.233 467.85C163.625 479.257 153.012 497.92 152.908 498.108L152 497.58C152.105 497.39 162.855 478.449 190.765 466.891C207.129 460.115 226.113 457.153 247.194 458.086C273.508 459.253 303.182 466.529 335.392 479.714C357.147 488.62 381.009 495.537 406.317 500.273C411.942 501.329 417.729 502.292 423.516 503.133C424.289 503.251 425.064 503.363 425.833 503.464C489.856 512.476 551.619 507.041 592.16 500.895C625.575 495.83 647.08 489.906 647.293 489.847L647.567 490.879C647.353 490.938 625.794 496.877 592.313 501.952C560.742 506.764 528.871 509.22 496.952 509.301V509.301Z" fill="#3F3D56" />
    <path d="M497.023 202.609C478.616 202.61 460.696 201.728 443.407 199.966C403.677 195.917 367.206 187.18 335.004 173.998C262.396 144.275 216.744 150.601 191.233 161.142C163.625 172.549 153.012 191.212 152.908 191.399L152 190.871C152.105 190.682 162.855 171.741 190.765 160.183C207.129 153.406 226.113 150.443 247.194 151.378C273.508 152.544 303.182 159.821 335.392 173.006C408.115 202.775 489.038 203.945 544.117 199.688C603.818 195.072 646.866 183.258 647.293 183.139L647.567 184.17C647.138 184.289 604.013 196.126 544.219 200.752C528.209 201.99 512.445 202.609 497.023 202.609Z" fill="#3F3D56" />
    <path d="M494.319 124.167C494.319 124.167 473.791 116.664 460.594 146.676C447.398 176.687 426.869 209.7 426.869 209.7L438.6 212.701C438.6 212.701 441.532 191.693 448.864 188.692L445.931 215.702C445.931 215.702 533.909 247.215 573.499 212.701L572.033 202.197C572.033 202.197 577.898 203.698 577.898 212.701L582.297 208.199C582.297 208.199 577.898 199.196 564.701 187.191C556.04 179.312 553.063 164.322 552.04 154.949C551.274 147.123 548.214 139.717 543.263 133.702C534.493 123.301 518.513 112.245 494.319 124.167Z" fill="#2F2E41" />
    <path d="M618.911 293.991C618.911 293.991 657.541 327.71 663.221 347.477C668.902 367.243 641.634 369.569 641.634 369.569L582.554 375.382C582.554 375.382 581.418 403.288 571.192 406.776C560.967 410.264 569.116 360.63 569.116 360.63L626.864 343.989L600.732 316.083L618.911 293.991Z" fill="#FBBEBE" />
    <path d="M438.261 328.873L433.716 390.498L408.72 495.144C408.72 495.144 385.997 542.816 405.312 543.979C424.627 545.141 423.491 498.632 423.491 498.632L459.848 399.8L463.256 332.361L438.261 328.873Z" fill="#FBBEBE" />
    <path d="M501.886 220.739C522.593 220.739 539.379 203.56 539.379 182.369C539.379 161.178 522.593 143.999 501.886 143.999C481.179 143.999 464.392 161.178 464.392 182.369C464.392 203.56 481.179 220.739 501.886 220.739Z" fill="#FBBEBE" />
    <path d="M484.843 200.973C484.843 200.973 498.477 250.97 476.89 263.76C455.303 276.55 531.426 285.852 551.877 247.482C551.877 247.482 515.52 234.692 525.745 200.973H484.843Z" fill="#FBBEBE" />
    <path d="M458.712 269.574L451.895 267.248C451.895 267.248 438.261 273.062 438.261 283.527C438.261 293.991 435.988 335.85 435.988 335.85L466.665 339.338L458.712 269.574Z" fill="#85BDB6" />
    <path d="M592.236 501.424C550.294 507.782 489.163 512.917 425.766 503.994C425.761 503.353 425.761 502.728 425.761 502.118C425.761 498.49 425.897 494.903 426.169 491.357C429.416 447.691 451.398 411.287 459.903 398.671C460.331 398.03 460.728 397.453 461.083 396.94C462.456 394.968 463.255 393.926 463.255 393.926C463.255 393.926 529.153 392.825 563.237 406.777C564.881 407.483 566.385 408.49 567.675 409.748C580.384 421.749 587.85 460.713 592.236 501.424Z" fill="#2F2E41" />
    <path d="M567.784 253.296C567.784 253.296 582.554 245.156 597.324 262.597L626.864 297.479L604.141 323.059L560.967 296.317L567.784 253.296Z" fill="#85BDB6" />
    <path d="M461.371 182.612C474.644 172.782 485.388 161.459 492.495 147.99C492.495 147.99 516.854 175.688 531.739 177.073C546.625 178.458 533.093 143.836 533.093 143.836L506.028 136.911L480.316 139.681L460.018 153.53L461.371 182.612Z" fill="#2F2E41" />
    <path d="M546.196 245.156C546.196 245.156 530.297 270.884 482.574 258.601L455.494 266.234L451.895 267.248C451.895 267.248 455.303 337.012 464.393 349.802C473.482 362.592 471.21 369.569 468.937 370.731C466.665 371.894 460.984 369.569 464.393 375.382C467.801 381.196 472.346 377.708 467.801 381.196C463.256 384.684 460.984 397.474 460.984 397.474L567.784 411.427C567.784 411.427 564.375 366.081 573.464 342.826C582.554 319.571 584.826 310.269 584.826 310.269L578.009 252.133L546.196 245.156Z" fill="#85BDB6" />
    <path d="M324.234 222.394H178.038V409.411H324.234V222.394Z" fill="#E6E6E6" />
    <path d="M219.547 238.157H188.22V259.53H219.547V238.157Z" fill="#2F9595" />
    <path d="M309.614 279.835H188.481V287.316H309.614V279.835Z" fill="#4E4E4E" />
    <path d="M309.614 299.605H188.481V307.086H309.614V299.605Z" fill="#4E4E4E" />
    <path d="M309.614 319.376H188.481V326.856H309.614V319.376Z" fill="#4E4E4E" />
    <path d="M309.614 339.146H188.481V346.627H309.614V339.146Z" fill="#4E4E4E" />
    <path d="M309.614 358.917H188.481V366.397H309.614V358.917Z" fill="#4E4E4E" />
    <path d="M352.951 409.144C352.944 416.202 350.449 423.02 345.924 428.345C341.399 433.671 335.148 437.147 328.32 438.134C321.492 439.121 314.544 437.554 308.755 433.719C302.966 429.884 298.723 424.04 296.806 417.261C294.89 410.482 295.428 403.222 298.322 396.816C301.217 390.41 306.273 385.289 312.562 382.392C318.85 379.496 325.949 379.019 332.554 381.05C339.158 383.08 344.825 387.482 348.513 393.445C351.413 398.144 352.952 403.587 352.951 409.144V409.144Z" fill="#A1C495" />
    <path d="M348.513 393.445L320.245 422.369C318.468 419.554 308.57 406.472 308.57 406.472C309.838 405.16 311.192 403.938 312.622 402.812L320.829 414.012L345.202 389.069C346.438 390.418 347.547 391.883 348.513 393.445V393.445Z" fill="white" />
</svg>
