<svg width="420" height="300" viewBox="0 0 420 300" fill="none" xmlns="http://www.w3.org/2000/svg">
    <path d="M160.33 197.126L80.8396 212.977C78.5423 213.432 76.148 213.007 74.1816 211.795C72.2154 210.583 70.8378 208.682 70.3512 206.51L56.7106 145.289C56.2291 143.115 56.6784 140.85 57.9601 138.99C59.2418 137.13 61.2511 135.827 63.5471 135.367L143.039 119.515C145.335 119.06 147.73 119.485 149.696 120.698C151.662 121.91 153.04 123.811 153.526 125.983L167.168 187.204C167.648 189.377 167.2 191.642 165.918 193.502C164.636 195.363 162.627 196.665 160.33 197.126ZM63.762 136.331C61.736 136.737 59.9631 137.887 58.8323 139.528C57.7014 141.169 57.3048 143.168 57.7297 145.085L71.3702 206.306C71.7997 208.223 73.0152 209.9 74.7502 210.97C76.4851 212.04 78.5978 212.415 80.6247 212.013L160.116 196.163C162.142 195.756 163.914 194.606 165.045 192.964C166.176 191.323 166.573 189.325 166.148 187.407L152.508 126.186C152.078 124.27 150.863 122.592 149.128 121.523C147.392 120.453 145.28 120.078 143.253 120.48L63.762 136.331Z" fill="#3F3D56" />
    <path d="M138.1 139.702L97.9813 147.702C97.6302 147.779 97.2613 147.727 96.9491 147.556C96.6369 147.386 96.4048 147.11 96.2996 146.783C96.2514 146.614 96.2405 146.436 96.2673 146.262C96.2941 146.088 96.3582 145.921 96.4556 145.77C96.553 145.62 96.6817 145.491 96.8337 145.389C96.9859 145.288 97.1582 145.217 97.3403 145.181L138.178 137.037C139.773 137.888 139.269 139.469 138.099 139.702H138.1Z" fill="#CCCCCC" />
    <path d="M139.583 146.359L99.4645 154.359C99.1134 154.436 98.7445 154.384 98.4323 154.213C98.1202 154.043 97.888 153.767 97.7828 153.441C97.7347 153.271 97.7238 153.093 97.7506 152.919C97.7773 152.745 97.8414 152.578 97.9388 152.428C98.0362 152.277 98.1649 152.148 98.317 152.046C98.4691 151.945 98.6415 151.874 98.8236 151.838L139.661 143.694C141.256 144.545 140.752 146.126 139.583 146.359Z" fill="#CCCCCC" />
    <path d="M91.6364 159.879L79.3927 162.319C78.9929 162.399 78.5761 162.325 78.2339 162.114C77.8916 161.903 77.6519 161.573 77.5672 161.194L74.5216 147.526C74.4378 147.147 74.5159 146.753 74.7391 146.429C74.9622 146.105 75.3119 145.879 75.7116 145.798L87.9553 143.357C88.3551 143.278 88.7718 143.352 89.1141 143.563C89.4563 143.774 89.6961 144.104 89.7809 144.483L92.8264 158.151C92.9103 158.53 92.8321 158.924 92.609 159.248C92.3859 159.572 92.0361 159.798 91.6364 159.879Z" fill="#A06161" />
    <path d="M142.503 160.013L81.2754 172.222C80.9243 172.299 80.5554 172.247 80.2432 172.076C79.931 171.907 79.6989 171.63 79.5937 171.304C79.5456 171.134 79.5346 170.956 79.5614 170.782C79.5882 170.608 79.6523 170.441 79.7497 170.291C79.8471 170.141 79.9758 170.011 80.1279 169.909C80.28 169.808 80.4523 169.737 80.6344 169.701L142.582 157.348C144.177 158.199 143.673 159.78 142.503 160.013Z" fill="#CCCCCC" />
    <path d="M143.987 166.672L82.7591 178.881C82.408 178.958 82.0391 178.906 81.727 178.735C81.4148 178.566 81.1826 178.29 81.0774 177.964C81.0293 177.793 81.0184 177.615 81.0452 177.441C81.072 177.267 81.136 177.1 81.2334 176.95C81.3308 176.799 81.4595 176.67 81.6117 176.569C81.7637 176.467 81.9361 176.397 82.1182 176.36L144.066 164.007C145.661 164.857 145.156 166.439 143.987 166.672Z" fill="#CCCCCC" />
    <path d="M145.47 173.326L84.2418 185.535C83.8907 185.613 83.5218 185.561 83.2097 185.391C82.8975 185.22 82.6653 184.944 82.5601 184.618C82.512 184.448 82.501 184.27 82.5279 184.096C82.5547 183.922 82.6188 183.755 82.7162 183.605C82.8135 183.455 82.9423 183.325 83.0943 183.223C83.2464 183.123 83.4188 183.051 83.6009 183.014L145.548 170.662C147.143 171.512 146.639 173.093 145.47 173.326Z" fill="#CCCCCC" />
    <path d="M146.953 179.985L85.7254 192.194C85.3743 192.271 85.0054 192.219 84.6932 192.049C84.3811 191.879 84.1489 191.603 84.0437 191.277C83.9956 191.106 83.9846 190.928 84.0114 190.754C84.0383 190.58 84.1023 190.413 84.1998 190.263C84.2971 190.113 84.4258 189.983 84.5779 189.882C84.73 189.781 84.9024 189.71 85.0845 189.673L147.032 177.32C148.627 178.171 148.123 179.752 146.953 179.985Z" fill="#CCCCCC" />
    <path d="M148.436 186.64L87.2082 198.85C86.8573 198.926 86.4883 198.875 86.1761 198.704C85.864 198.534 85.6318 198.258 85.5266 197.931C85.4785 197.762 85.4675 197.584 85.4943 197.41C85.5212 197.235 85.5852 197.068 85.6826 196.918C85.78 196.768 85.9087 196.639 86.0608 196.538C86.213 196.436 86.3853 196.365 86.5674 196.329L148.515 183.976C150.11 184.826 149.606 186.407 148.436 186.64Z" fill="#CCCCCC" />
    <path d="M158.202 156.162C158.063 156.401 157.944 156.65 157.846 156.906L132.781 162.79L128.42 158.523L120.752 163.907L127.696 172.171C128.256 172.838 129.031 173.316 129.903 173.532C130.775 173.748 131.699 173.69 132.533 173.367L159.732 162.853C160.626 163.475 161.699 163.826 162.808 163.858C163.918 163.889 165.012 163.6 165.943 163.03C166.875 162.459 167.601 161.633 168.025 160.662C168.448 159.691 168.55 158.622 168.315 157.596C168.081 156.569 167.521 155.635 166.711 154.916C165.902 154.198 164.88 153.73 163.782 153.574C162.685 153.418 161.563 153.583 160.565 154.045C159.569 154.507 158.745 155.246 158.203 156.162H158.202Z" fill="#FFB8B8" />
    <path d="M72.644 208.526C73.4255 208.298 74.1446 207.911 74.7505 207.391C75.3564 206.872 75.8346 206.232 76.1512 205.519C76.4679 204.806 76.6154 204.035 76.5833 203.262C76.5512 202.489 76.3404 201.732 75.9656 201.045L93.2152 155.687L81.2359 153.679L68.0469 198.895C66.8675 199.567 65.9897 200.626 65.5799 201.869C65.1701 203.113 65.2567 204.455 65.8234 205.643C66.39 206.83 67.3973 207.779 68.6545 208.311C69.9115 208.842 71.3311 208.919 72.644 208.526Z" fill="#FFB8B8" />
    <path d="M91.0245 163.739L79.1968 159.445C78.8603 159.322 78.5555 159.133 78.3034 158.889C78.0512 158.646 77.8575 158.354 77.7354 158.032C77.6134 157.712 77.5658 157.37 77.5961 157.03C77.6263 156.691 77.7336 156.361 77.9107 156.063L84.1155 145.656C84.7866 144.031 86.111 142.725 87.7988 142.022C89.4865 141.32 91.3998 141.279 93.1193 141.909C94.8387 142.538 96.2241 143.787 96.9719 145.382C97.7196 146.976 97.7687 148.786 97.1083 150.415L94.3715 162.04C94.293 162.373 94.1396 162.686 93.9218 162.957C93.704 163.229 93.4268 163.453 93.1092 163.615C92.7916 163.776 92.441 163.87 92.0812 163.892C91.7214 163.913 91.361 163.861 91.0245 163.739Z" fill="#FFDD67" />
    <path d="M117.721 293.681H124.105L127.143 270.385L117.72 270.386L117.721 293.681Z" fill="#FFB8B8" />
    <path d="M116.093 291.71H128.665H128.666C129.718 291.71 130.76 291.905 131.733 292.287C132.704 292.667 133.588 293.226 134.332 293.93C135.076 294.634 135.666 295.469 136.069 296.389C136.471 297.308 136.679 298.294 136.679 299.29V299.536H116.093V291.71Z" fill="#2F2E41" />
    <path d="M81.7889 293.681H88.1729L91.2105 270.385L81.7879 270.386L81.7889 293.681Z" fill="#FFB8B8" />
    <path d="M80.1603 291.71H92.7333H92.7338C93.7861 291.71 94.828 291.905 95.8001 292.287C96.7722 292.667 97.6555 293.226 98.3995 293.93C99.1436 294.634 99.7339 295.469 100.137 296.389C100.539 297.308 100.746 298.294 100.746 299.29V299.536H80.1606L80.1603 291.71Z" fill="#2F2E41" />
    <path d="M88.4818 284.305H80.4025C80.0854 284.305 79.7715 284.244 79.48 284.126C79.1886 284.008 78.9254 283.835 78.7066 283.618C78.4878 283.401 78.3178 283.145 78.2069 282.863C78.0961 282.583 78.0467 282.282 78.0617 281.983L81.8994 203.982L82.1412 203.976L121.156 203.013L128.79 281.06C128.82 281.352 128.788 281.647 128.695 281.928C128.603 282.208 128.452 282.469 128.253 282.694C128.053 282.919 127.808 283.104 127.531 283.239C127.255 283.374 126.954 283.455 126.645 283.479L117.569 284.166C117 284.209 116.432 284.053 115.975 283.728C115.518 283.403 115.202 282.931 115.087 282.4L103.479 226.842C103.448 226.673 103.353 226.521 103.213 226.413C103.072 226.304 102.895 226.246 102.714 226.251H102.711C102.529 226.247 102.352 226.305 102.212 226.415C102.072 226.524 101.978 226.678 101.947 226.848L90.7811 282.517C90.6754 283.02 90.3885 283.473 89.9694 283.799C89.5502 284.125 89.0245 284.305 88.4818 284.305Z" fill="#2F2E41" />
    <path d="M103.282 134.414C110.346 134.414 116.072 128.996 116.072 122.314C116.072 115.631 110.346 110.214 103.282 110.214C96.2177 110.214 90.4913 115.631 90.4913 122.314C90.4913 128.996 96.2177 134.414 103.282 134.414Z" fill="#FFB8B8" />
    <path d="M98.9928 213.122C92.8968 213.122 86.6352 211.606 81.4444 207.125C81.1682 206.888 80.9549 206.592 80.822 206.263C80.689 205.933 80.64 205.578 80.6792 205.228C81.2348 200.505 83.9298 176.121 82.4121 159.833C82.1159 156.792 82.5712 153.726 83.742 150.878C84.9128 148.031 86.7672 145.479 89.1587 143.426C91.5084 141.378 94.3292 139.874 97.3984 139.033C100.468 138.192 103.702 138.038 106.845 138.582H106.845C107.004 138.609 107.163 138.637 107.323 138.666C117.563 140.541 124.677 149.505 123.872 159.52C122.698 174.132 121.644 193.896 123.298 205.074C123.367 205.531 123.282 205.997 123.057 206.407C122.831 206.816 122.476 207.15 122.04 207.359C118.278 209.157 108.852 213.122 98.9928 213.122Z" fill="#FFDD67" />
    <path d="M115.682 164.61C115.382 164.421 115.129 164.173 114.94 163.883C114.75 163.592 114.629 163.267 114.584 162.929L113.026 151.111C112.532 149.43 112.761 147.632 113.665 146.112C114.57 144.591 116.075 143.472 117.85 142.999C119.625 142.527 121.525 142.739 123.136 143.59C124.746 144.441 125.933 145.862 126.437 147.54L131.57 158.458C131.717 158.769 131.79 159.107 131.787 159.447C131.783 159.789 131.701 160.125 131.547 160.434C131.393 160.742 131.171 161.015 130.896 161.235C130.62 161.455 130.298 161.616 129.951 161.708L117.746 164.921C117.398 165.012 117.035 165.032 116.678 164.978C116.322 164.924 115.982 164.798 115.682 164.61Z" fill="#FFDD67" />
    <path d="M98.8166 134.243C97.606 134.264 96.403 134.058 95.2769 133.637C94.7815 133.457 94.2672 133.308 93.7727 133.127C89.4053 131.531 86.5283 127.131 86.4253 122.703C86.3222 118.274 88.7463 113.976 92.3458 111.144C95.9454 108.311 100.608 106.857 105.276 106.521C110.305 106.159 115.968 107.365 118.777 111.327C119.525 112.381 120.048 113.661 119.606 114.934C119.473 115.319 119.235 115.663 118.918 115.933C117.663 116.99 116.412 116.195 115.133 116.125C113.374 116.029 111.795 117.375 111.227 118.953C110.659 120.53 110.91 122.267 111.368 123.875C111.717 124.843 111.937 125.849 112.023 126.868C112.06 127.38 111.958 127.891 111.728 128.355C111.497 128.819 111.145 129.22 110.705 129.518C109.606 130.147 108.163 129.783 107.064 129.155C105.964 128.528 105.015 127.656 103.827 127.194C102.639 126.733 101.044 126.835 100.353 127.859C100.133 128.232 99.9844 128.637 99.9136 129.059C99.2939 131.729 99.4363 131.572 98.8166 134.243Z" fill="#2F2E41" />
    <path d="M275.977 117.721H194.739C192.392 117.718 190.142 116.835 188.482 115.265C186.823 113.695 185.889 111.566 185.887 109.346V46.7794C185.889 44.559 186.823 42.4302 188.482 40.8602C190.142 39.2901 192.392 38.4069 194.739 38.4044H275.977C278.325 38.4069 280.575 39.2901 282.234 40.8602C283.893 42.4302 284.827 44.559 284.83 46.7794V109.346C284.827 111.566 283.893 113.695 282.234 115.265C280.575 116.835 278.325 117.718 275.977 117.721ZM194.739 39.3897C192.668 39.3919 190.683 40.1712 189.218 41.5565C187.754 42.9419 186.93 44.8202 186.928 46.7794V109.346C186.93 111.305 187.754 113.183 189.218 114.568C190.683 115.954 192.668 116.733 194.739 116.735H275.977C278.048 116.733 280.033 115.954 281.498 114.568C282.963 113.183 283.786 111.305 283.788 109.346V46.7794C283.786 44.8202 282.963 42.9419 281.498 41.5565C280.033 40.1712 278.048 39.3919 275.977 39.3897H194.739Z" fill="#3F3D56" />
    <path d="M266.743 57.193H225.744C225.383 57.1998 225.034 57.0771 224.766 56.8495C224.497 56.6219 224.33 56.3063 224.299 55.9667C224.288 55.791 224.316 55.6151 224.381 55.4498C224.445 55.2846 224.544 55.1335 224.672 55.0056C224.8 54.8779 224.954 54.7761 225.125 54.7065C225.296 54.637 225.48 54.6011 225.666 54.6011H267.402C268.776 55.7441 267.938 57.193 266.742 57.193H266.743Z" fill="#CCCCCC" />
    <path d="M266.743 63.9964H225.744C225.383 64.0034 225.034 63.8807 224.766 63.653C224.497 63.4253 224.33 63.1099 224.299 62.7702C224.288 62.5944 224.316 62.4185 224.381 62.2534C224.445 62.0881 224.544 61.9369 224.672 61.8092C224.8 61.6814 224.954 61.5796 225.125 61.5101C225.296 61.4405 225.48 61.4047 225.666 61.4046H267.402C268.776 62.5476 267.938 63.9964 266.742 63.9964H266.743Z" fill="#CCCCCC" />
    <path d="M216.88 67.8701H204.368C203.959 67.8697 203.567 67.716 203.278 67.4427C202.989 67.1695 202.827 66.7989 202.827 66.4124V52.4434C202.827 52.0569 202.989 51.6863 203.278 51.413C203.567 51.1398 203.959 50.986 204.368 50.9857H216.88C217.289 50.9861 217.681 51.1399 217.97 51.4132C218.258 51.6864 218.421 52.0569 218.422 52.4434V66.4124C218.421 66.7989 218.259 67.1695 217.97 67.4427C217.681 67.716 217.289 67.8697 216.88 67.8701Z" fill="#3F3D56" />
    <path d="M266.624 77.9265H204.051C203.691 77.9334 203.341 77.8106 203.072 77.583C202.805 77.3554 202.637 77.0399 202.605 76.7003C202.595 76.5245 202.624 76.3486 202.688 76.1833C202.752 76.0181 202.851 75.867 202.979 75.7392C203.107 75.6114 203.262 75.5097 203.433 75.4401C203.604 75.3706 203.787 75.3347 203.973 75.3347H267.283C268.658 76.4776 267.819 77.9265 266.624 77.9265Z" fill="#CCCCCC" />
    <path d="M266.624 84.732H204.051C203.691 84.7388 203.341 84.6161 203.072 84.3885C202.805 84.1609 202.637 83.8453 202.605 83.5058C202.595 83.33 202.624 83.1541 202.688 82.9888C202.752 82.8236 202.851 82.6725 202.979 82.5447C203.107 82.4169 203.262 82.3151 203.433 82.2456C203.604 82.176 203.787 82.1401 203.973 82.1401H267.283C268.658 83.2831 267.819 84.732 266.624 84.732Z" fill="#CCCCCC" />
    <path d="M266.624 91.5329H204.051C203.691 91.5399 203.341 91.4171 203.072 91.1895C202.805 90.9619 202.637 90.6464 202.605 90.3067C202.595 90.1309 202.624 89.955 202.688 89.7898C202.752 89.6246 202.851 89.4734 202.979 89.3457C203.107 89.2179 203.262 89.1161 203.433 89.0466C203.604 88.977 203.787 88.9412 203.973 88.9412H267.283C268.658 90.0841 267.819 91.5329 266.624 91.5329Z" fill="#CCCCCC" />
    <path d="M266.624 98.3379H204.051C203.691 98.3448 203.341 98.222 203.072 97.9944C202.805 97.7668 202.637 97.4512 202.605 97.1117C202.595 96.9359 202.624 96.76 202.688 96.5948C202.752 96.4295 202.851 96.2784 202.979 96.1506C203.107 96.0228 203.262 95.921 203.433 95.8515C203.604 95.7819 203.787 95.746 203.973 95.746H267.283C268.658 96.8891 267.819 98.3379 266.624 98.3379Z" fill="#CCCCCC" />
    <path d="M266.624 105.139H204.051C203.691 105.146 203.341 105.023 203.072 104.796C202.805 104.568 202.637 104.253 202.605 103.913C202.595 103.737 202.624 103.561 202.688 103.396C202.752 103.231 202.851 103.08 202.979 102.952C203.107 102.824 203.262 102.722 203.433 102.653C203.604 102.583 203.787 102.547 203.973 102.547H267.283C268.658 103.69 267.819 105.139 266.624 105.139Z" fill="#CCCCCC" />
    <path d="M258.272 32C258.962 32.0007 259.624 32.2605 260.112 32.7223C260.6 33.1841 260.874 33.8102 260.875 34.4632V42.3456C260.874 42.9986 260.6 43.6248 260.112 44.0865C259.624 44.5483 258.962 44.8081 258.272 44.8088H212.445C211.754 44.8081 211.093 44.5483 210.604 44.0865C210.116 43.6248 209.842 42.9986 209.841 42.3456V34.4632C209.842 33.8102 210.116 33.1841 210.604 32.7223C211.093 32.2605 211.754 32.0007 212.445 32" fill="#67C8FF" />
    <path d="M393.147 195.066H311.909C309.562 195.064 307.312 194.18 305.653 192.611C303.992 191.04 303.059 188.911 303.056 186.691V124.125C303.059 121.904 303.992 119.776 305.653 118.206C307.312 116.636 309.562 115.753 311.909 115.75H393.147C395.494 115.753 397.745 116.636 399.404 118.206C401.064 119.776 401.997 121.904 402 124.125V186.691C401.997 188.911 401.064 191.04 399.404 192.611C397.745 194.18 395.494 195.064 393.147 195.066ZM311.909 116.735C309.838 116.737 307.852 117.517 306.389 118.902C304.924 120.288 304.1 122.166 304.098 124.125V186.691C304.1 188.65 304.924 190.528 306.389 191.914C307.852 193.299 309.838 194.078 311.909 194.081H393.147C395.218 194.078 397.204 193.299 398.668 191.914C400.132 190.528 400.956 188.65 400.959 186.691V124.125C400.956 122.166 400.132 120.288 398.668 118.902C397.204 117.517 395.218 116.737 393.147 116.735H311.909Z" fill="#3F3D56" />
    <path d="M383.914 134.539H342.913C342.553 134.546 342.204 134.422 341.935 134.196C341.667 133.968 341.5 133.652 341.468 133.312C341.458 133.137 341.486 132.961 341.55 132.796C341.615 132.63 341.714 132.479 341.842 132.352C341.97 132.224 342.124 132.122 342.295 132.052C342.466 131.983 342.65 131.947 342.837 131.947H384.571C385.946 133.09 385.109 134.539 383.913 134.539H383.914Z" fill="#3F3D56" />
    <path d="M383.914 141.342H342.913C342.553 141.349 342.204 141.226 341.935 140.998C341.667 140.77 341.5 140.455 341.468 140.116C341.458 139.94 341.486 139.764 341.55 139.599C341.615 139.434 341.714 139.282 341.842 139.154C341.97 139.027 342.124 138.925 342.295 138.856C342.466 138.786 342.65 138.751 342.837 138.751H384.571C385.946 139.893 385.109 141.342 383.913 141.342H383.914Z" fill="#3F3D56" />
    <path d="M334.05 145.216H321.537C321.13 145.216 320.737 145.062 320.448 144.789C320.16 144.515 319.997 144.145 319.997 143.758V129.789C319.997 129.403 320.16 129.032 320.448 128.759C320.737 128.485 321.13 128.332 321.537 128.331H334.05C334.459 128.332 334.85 128.485 335.139 128.759C335.428 129.032 335.591 129.403 335.592 129.789V143.758C335.591 144.145 335.428 144.515 335.139 144.789C334.85 145.062 334.459 145.216 334.05 145.216Z" fill="#CCCCCC" />
    <path d="M383.522 183.149H371.009C370.601 183.149 370.209 182.996 369.92 182.722C369.632 182.449 369.469 182.078 369.469 181.691V173.634C369.469 173.248 369.632 172.878 369.92 172.604C370.209 172.331 370.601 172.177 371.009 172.177H383.522C383.931 172.177 384.322 172.331 384.611 172.604C384.9 172.878 385.063 173.249 385.063 173.634V181.691C385.063 182.078 384.9 182.449 384.611 182.722C384.322 182.996 383.931 183.149 383.522 183.149Z" fill="#3F3D56" />
    <path d="M383.794 155.272H321.221C320.861 155.279 320.511 155.157 320.243 154.929C319.975 154.701 319.808 154.386 319.776 154.046C319.765 153.87 319.794 153.694 319.858 153.529C319.922 153.364 320.022 153.213 320.15 153.085C320.278 152.957 320.431 152.855 320.602 152.786C320.773 152.716 320.958 152.68 321.143 152.68H384.453C385.827 153.823 384.99 155.272 383.794 155.272Z" fill="#CCCCCC" />
    <path d="M383.794 162.077H321.221C320.861 162.085 320.511 161.961 320.243 161.734C319.975 161.507 319.808 161.191 319.776 160.852C319.765 160.676 319.794 160.5 319.858 160.335C319.922 160.169 320.022 160.018 320.15 159.891C320.278 159.763 320.431 159.661 320.602 159.591C320.773 159.522 320.958 159.486 321.143 159.486H384.453C385.827 160.628 384.99 162.077 383.794 162.077Z" fill="#CCCCCC" />
    <path d="M383.794 168.878H321.221C320.861 168.885 320.511 168.763 320.243 168.535C319.975 168.307 319.808 167.992 319.776 167.653C319.765 167.477 319.794 167.301 319.858 167.135C319.922 166.97 320.022 166.819 320.15 166.691C320.278 166.564 320.431 166.462 320.602 166.392C320.773 166.322 320.958 166.287 321.143 166.287H384.453C385.827 167.429 384.99 168.878 383.794 168.878Z" fill="#CCCCCC" />
    <path d="M350.987 175.684H321.221C320.861 175.69 320.511 175.568 320.243 175.34C319.975 175.112 319.808 174.797 319.776 174.457C319.765 174.281 319.794 174.105 319.858 173.94C319.922 173.776 320.022 173.624 320.15 173.496C320.278 173.368 320.431 173.266 320.602 173.198C320.773 173.128 320.958 173.091 321.143 173.091H351.645C353.02 174.235 352.182 175.684 350.987 175.684Z" fill="#CCCCCC" />
    <path d="M350.987 182.485H321.221C320.861 182.492 320.511 182.369 320.243 182.142C319.975 181.914 319.808 181.598 319.776 181.259C319.765 181.083 319.794 180.907 319.858 180.742C319.922 180.577 320.022 180.426 320.15 180.298C320.278 180.17 320.431 180.068 320.602 179.999C320.773 179.929 320.958 179.893 321.143 179.893H351.645C353.02 181.036 352.182 182.485 350.987 182.485Z" fill="#CCCCCC" />
    <path d="M375.442 122.154H329.615C328.925 122.153 328.263 121.894 327.775 121.433C327.286 120.97 327.012 120.344 327.011 119.691V111.809C327.012 111.156 327.286 110.53 327.775 110.068C328.263 109.606 328.925 109.346 329.615 109.346H375.442C376.132 109.346 376.794 109.606 377.281 110.068C377.77 110.53 378.045 111.156 378.046 111.809V119.691C378.045 120.344 377.77 120.97 377.281 121.433C376.794 121.894 376.132 122.153 375.442 122.154Z" fill="#75A274" />
    <path d="M198.928 300H0.520756C0.382643 300 0.250186 299.948 0.152526 299.855C0.0548648 299.763 0 299.638 0 299.508C0 299.376 0.0548648 299.251 0.152526 299.159C0.250186 299.066 0.382643 299.015 0.520756 299.015H198.928C199.067 299.015 199.199 299.066 199.297 299.159C199.395 299.251 199.45 299.376 199.45 299.508C199.45 299.638 199.395 299.763 199.297 299.855C199.199 299.948 199.067 300 198.928 300Z" fill="#3F3D56" />
    <path d="M68.3903 46.6765C70.2503 46.6765 71.758 45.2502 71.758 43.4907C71.758 41.7311 70.2503 40.3047 68.3903 40.3047C66.5304 40.3047 65.0226 41.7311 65.0226 43.4907C65.0226 45.2502 66.5304 46.6765 68.3903 46.6765Z" fill="#F2F2F2" />
    <path d="M68.3903 59.3737C70.2503 59.3737 71.758 57.9473 71.758 56.1878C71.758 54.4283 70.2503 53.0019 68.3903 53.0019C66.5304 53.0019 65.0226 54.4283 65.0226 56.1878C65.0226 57.9473 66.5304 59.3737 68.3903 59.3737Z" fill="#F2F2F2" />
    <path d="M68.3903 72.0708C70.2503 72.0708 71.758 70.6444 71.758 68.8849C71.758 67.1254 70.2503 65.699 68.3903 65.699C66.5304 65.699 65.0226 67.1254 65.0226 68.8849C65.0226 70.6444 66.5304 72.0708 68.3903 72.0708Z" fill="#505050" />
    <path d="M68.3903 84.7679C70.2503 84.7679 71.758 83.3416 71.758 81.582C71.758 79.8225 70.2503 78.3961 68.3903 78.3961C66.5304 78.3961 65.0226 79.8225 65.0226 81.582C65.0226 83.3416 66.5304 84.7679 68.3903 84.7679Z" fill="#F2F2F2" />
    <path d="M82.4507 46.6765C84.3105 46.6765 85.8184 45.2502 85.8184 43.4907C85.8184 41.7311 84.3105 40.3047 82.4507 40.3047C80.5908 40.3047 79.083 41.7311 79.083 43.4907C79.083 45.2502 80.5908 46.6765 82.4507 46.6765Z" fill="#F2F2F2" />
    <path d="M82.4507 59.3737C84.3105 59.3737 85.8184 57.9473 85.8184 56.1878C85.8184 54.4283 84.3105 53.0019 82.4507 53.0019C80.5908 53.0019 79.083 54.4283 79.083 56.1878C79.083 57.9473 80.5908 59.3737 82.4507 59.3737Z" fill="#505050" />
    <path d="M82.4507 72.0708C84.3105 72.0708 85.8184 70.6444 85.8184 68.8849C85.8184 67.1254 84.3105 65.699 82.4507 65.699C80.5908 65.699 79.083 67.1254 79.083 68.8849C79.083 70.6444 80.5908 72.0708 82.4507 72.0708Z" fill="#F2F2F2" />
    <path d="M82.4507 84.7679C84.3105 84.7679 85.8184 83.3416 85.8184 81.582C85.8184 79.8225 84.3105 78.3961 82.4507 78.3961C80.5908 78.3961 79.083 79.8225 79.083 81.582C79.083 83.3416 80.5908 84.7679 82.4507 84.7679Z" fill="#F2F2F2" />
    <path d="M96.5111 46.6765C98.371 46.6765 99.8788 45.2502 99.8788 43.4907C99.8788 41.7311 98.371 40.3047 96.5111 40.3047C94.6512 40.3047 93.1434 41.7311 93.1434 43.4907C93.1434 45.2502 94.6512 46.6765 96.5111 46.6765Z" fill="#505050" />
    <path d="M96.5111 59.3737C98.371 59.3737 99.8788 57.9473 99.8788 56.1878C99.8788 54.4283 98.371 53.0019 96.5111 53.0019C94.6512 53.0019 93.1434 54.4283 93.1434 56.1878C93.1434 57.9473 94.6512 59.3737 96.5111 59.3737Z" fill="#505050" />
    <path d="M96.5111 72.0708C98.371 72.0708 99.8788 70.6444 99.8788 68.8849C99.8788 67.1254 98.371 65.699 96.5111 65.699C94.6512 65.699 93.1434 67.1254 93.1434 68.8849C93.1434 70.6444 94.6512 72.0708 96.5111 72.0708Z" fill="#505050" />
    <path d="M96.5111 84.7679C98.371 84.7679 99.8788 83.3416 99.8788 81.582C99.8788 79.8225 98.371 78.3961 96.5111 78.3961C94.6512 78.3961 93.1434 79.8225 93.1434 81.582C93.1434 83.3416 94.6512 84.7679 96.5111 84.7679Z" fill="#505050" />
    <path d="M110.571 46.6765C112.431 46.6765 113.939 45.2502 113.939 43.4907C113.939 41.7311 112.431 40.3047 110.571 40.3047C108.712 40.3047 107.204 41.7311 107.204 43.4907C107.204 45.2502 108.712 46.6765 110.571 46.6765Z" fill="#505050" />
    <path d="M110.571 59.3737C112.431 59.3737 113.939 57.9473 113.939 56.1878C113.939 54.4283 112.431 53.0019 110.571 53.0019C108.712 53.0019 107.204 54.4283 107.204 56.1878C107.204 57.9473 108.712 59.3737 110.571 59.3737Z" fill="#505050" />
    <path d="M110.571 72.0708C112.431 72.0708 113.939 70.6444 113.939 68.8849C113.939 67.1254 112.431 65.699 110.571 65.699C108.712 65.699 107.204 67.1254 107.204 68.8849C107.204 70.6444 108.712 72.0708 110.571 72.0708Z" fill="#505050" />
    <path d="M110.571 84.7679C112.431 84.7679 113.939 83.3416 113.939 81.582C113.939 79.8225 112.431 78.3961 110.571 78.3961C108.712 78.3961 107.204 79.8225 107.204 81.582C107.204 83.3416 108.712 84.7679 110.571 84.7679Z" fill="#505050" />
    <path d="M124.632 46.6765C126.492 46.6765 128 45.2502 128 43.4907C128 41.7311 126.492 40.3047 124.632 40.3047C122.772 40.3047 121.264 41.7311 121.264 43.4907C121.264 45.2502 122.772 46.6765 124.632 46.6765Z" fill="#F2F2F2" />
    <path d="M124.632 59.3737C126.492 59.3737 128 57.9473 128 56.1878C128 54.4283 126.492 53.0019 124.632 53.0019C122.772 53.0019 121.264 54.4283 121.264 56.1878C121.264 57.9473 122.772 59.3737 124.632 59.3737Z" fill="#505050" />
    <path d="M124.632 72.0708C126.492 72.0708 128 70.6444 128 68.8849C128 67.1254 126.492 65.699 124.632 65.699C122.772 65.699 121.264 67.1254 121.264 68.8849C121.264 70.6444 122.772 72.0708 124.632 72.0708Z" fill="#F2F2F2" />
    <path d="M124.632 84.7679C126.492 84.7679 128 83.3416 128 81.582C128 79.8225 126.492 78.3961 124.632 78.3961C122.772 78.3961 121.264 79.8225 121.264 81.582C121.264 83.3416 122.772 84.7679 124.632 84.7679Z" fill="#F2F2F2" />
    <path d="M138.692 46.6765C140.553 46.6765 142.06 45.2502 142.06 43.4907C142.06 41.7311 140.553 40.3047 138.692 40.3047C136.832 40.3047 135.325 41.7311 135.325 43.4907C135.325 45.2502 136.832 46.6765 138.692 46.6765Z" fill="#F2F2F2" />
    <path d="M138.692 59.3737C140.553 59.3737 142.06 57.9473 142.06 56.1878C142.06 54.4283 140.553 53.0019 138.692 53.0019C136.832 53.0019 135.325 54.4283 135.325 56.1878C135.325 57.9473 136.832 59.3737 138.692 59.3737Z" fill="#F2F2F2" />
    <path d="M138.692 72.0708C140.553 72.0708 142.06 70.6444 142.06 68.8849C142.06 67.1254 140.553 65.699 138.692 65.699C136.832 65.699 135.325 67.1254 135.325 68.8849C135.325 70.6444 136.832 72.0708 138.692 72.0708Z" fill="#505050" />
    <path d="M138.692 84.7679C140.553 84.7679 142.06 83.3416 142.06 81.582C142.06 79.8225 140.553 78.3961 138.692 78.3961C136.832 78.3961 135.325 79.8225 135.325 81.582C135.325 83.3416 136.832 84.7679 138.692 84.7679Z" fill="#F2F2F2" />
    <path d="M331.372 223.044C333.232 223.044 334.74 221.618 334.74 219.858C334.74 218.099 333.232 216.673 331.372 216.673C329.512 216.673 328.004 218.099 328.004 219.858C328.004 221.618 329.512 223.044 331.372 223.044Z" fill="#F2F2F2" />
    <path d="M331.372 235.742C333.232 235.742 334.74 234.315 334.74 232.555C334.74 230.796 333.232 229.37 331.372 229.37C329.512 229.37 328.004 230.796 328.004 232.555C328.004 234.315 329.512 235.742 331.372 235.742Z" fill="#1E1E1E" />
    <path d="M331.372 248.439C333.232 248.439 334.74 247.012 334.74 245.253C334.74 243.493 333.232 242.066 331.372 242.066C329.512 242.066 328.004 243.493 328.004 245.253C328.004 247.012 329.512 248.439 331.372 248.439Z" fill="#F2F2F2" />
    <path d="M345.432 223.044C347.292 223.044 348.8 221.618 348.8 219.858C348.8 218.099 347.292 216.673 345.432 216.673C343.573 216.673 342.065 218.099 342.065 219.858C342.065 221.618 343.573 223.044 345.432 223.044Z" fill="#F2F2F2" />
    <path d="M345.432 235.742C347.292 235.742 348.8 234.315 348.8 232.555C348.8 230.796 347.292 229.37 345.432 229.37C343.573 229.37 342.065 230.796 342.065 232.555C342.065 234.315 343.573 235.742 345.432 235.742Z" fill="#1E1E1E" />
    <path d="M345.432 248.439C347.292 248.439 348.8 247.012 348.8 245.253C348.8 243.493 347.292 242.066 345.432 242.066C343.573 242.066 342.065 243.493 342.065 245.253C342.065 247.012 343.573 248.439 345.432 248.439Z" fill="#F2F2F2" />
    <path d="M359.493 223.044C361.353 223.044 362.86 221.618 362.86 219.858C362.86 218.099 361.353 216.673 359.493 216.673C357.632 216.673 356.125 218.099 356.125 219.858C356.125 221.618 357.632 223.044 359.493 223.044Z" fill="#1E1E1E" />
    <path d="M359.493 235.742C361.353 235.742 362.86 234.315 362.86 232.555C362.86 230.796 361.353 229.37 359.493 229.37C357.632 229.37 356.125 230.796 356.125 232.555C356.125 234.315 357.632 235.742 359.493 235.742Z" fill="#1E1E1E" />
    <path d="M359.493 248.439C361.353 248.439 362.86 247.012 362.86 245.253C362.86 243.493 361.353 242.066 359.493 242.066C357.632 242.066 356.125 243.493 356.125 245.253C356.125 247.012 357.632 248.439 359.493 248.439Z" fill="#1E1E1E" />
    <path d="M373.553 223.044C375.413 223.044 376.921 221.618 376.921 219.858C376.921 218.099 375.413 216.673 373.553 216.673C371.693 216.673 370.186 218.099 370.186 219.858C370.186 221.618 371.693 223.044 373.553 223.044Z" fill="#F2F2F2" />
    <path d="M373.553 235.742C375.413 235.742 376.921 234.315 376.921 232.555C376.921 230.796 375.413 229.37 373.553 229.37C371.693 229.37 370.186 230.796 370.186 232.555C370.186 234.315 371.693 235.742 373.553 235.742Z" fill="#1E1E1E" />
    <path d="M373.553 248.439C375.413 248.439 376.921 247.012 376.921 245.253C376.921 243.493 375.413 242.066 373.553 242.066C371.693 242.066 370.186 243.493 370.186 245.253C370.186 247.012 371.693 248.439 373.553 248.439Z" fill="#F2F2F2" />
</svg>
